<svg width="18" height="18" viewBox="0 0 18 18" fill="none" xmlns="http://www.w3.org/2000/svg">
<g id="Verification checker">
<path id="Vector" d="M7.65567 10.5035L8.00922 10.857L8.36277 10.5035L12.2178 6.6485C12.2272 6.63905 12.2419 6.63182 12.2617 6.63182C12.2815 6.63182 12.2962 6.63905 12.3057 6.64849C12.3243 6.66716 12.3328 6.70649 12.3014 6.74064L8.05338 10.9887C8.05334 10.9887 8.0533 10.9887 8.05326 10.9888C8.04156 11.0004 8.02572 11.0069 8.00922 11.0069C7.99271 11.0069 7.97688 11.0004 7.96517 10.9888C7.96513 10.9887 7.96509 10.9887 7.96505 10.9887L5.84485 8.86848C5.84468 8.8683 5.8445 8.86812 5.84433 8.86794C5.83254 8.85574 5.82594 8.83943 5.82594 8.82244C5.82594 8.80573 5.83233 8.78966 5.84377 8.77752C5.85324 8.76856 5.86759 8.76182 5.88672 8.76182C5.90653 8.76182 5.92122 8.76905 5.93067 8.77849L7.65567 10.5035ZM9.07422 0.814941C4.66558 0.814941 1.07422 4.4063 1.07422 8.81494C1.07422 13.2236 4.66558 16.8149 9.07422 16.8149C13.4829 16.8149 17.0742 13.2236 17.0742 8.81494C17.0742 4.4063 13.4829 0.814941 9.07422 0.814941Z" fill="#35FAA0" stroke="black"/>
</g>
</svg>
