<svg width="51" height="51" viewBox="0 0 51 51" fill="none" xmlns="http://www.w3.org/2000/svg">
<g id="Facebook svg" clip-path="url(#clip0_2862_27815)">
<g id="g10">
<g id="g12">
<path id="path14" d="M50.5 25.402C50.5 11.5948 39.3071 0.401974 25.5 0.401974C11.6929 0.401974 0.5 11.5948 0.5 25.402C0.5 37.8802 9.64214 48.2228 21.5938 50.0983V32.6285H15.2461V25.402H21.5938V19.8942C21.5938 13.6285 25.3261 10.1676 31.0366 10.1676C33.7718 10.1676 36.6328 10.6559 36.6328 10.6559V16.8082H33.4804C30.3748 16.8082 29.4062 18.7353 29.4062 20.7124V25.402H36.3398L35.2314 32.6285H29.4062V50.0983C41.3579 48.2228 50.5 37.8802 50.5 25.402Z" fill="#1877F2"/>
<path id="path16" d="M35.2314 32.6285L36.3398 25.402H29.4063V20.7124C29.4063 18.7353 30.3748 16.8082 33.4804 16.8082H36.6328V10.6559C36.6328 10.6559 33.7718 10.1676 31.0366 10.1676C25.3261 10.1676 21.5938 13.6285 21.5938 19.8942V25.402H15.2461V32.6285H21.5938V50.0983C22.8666 50.298 24.1711 50.402 25.5 50.402C26.8289 50.402 28.1334 50.298 29.4063 50.0983V32.6285H35.2314Z" fill="white"/>
</g>
</g>
</g>
<defs>
<clipPath id="clip0_2862_27815">
<rect width="50" height="50" fill="white" transform="translate(0.5 0.401978)"/>
</clipPath>
</defs>
</svg>
