<svg width="51" height="51" viewBox="0 0 51 51" fill="none" xmlns="http://www.w3.org/2000/svg">
<g id="Google svg">
<path id="Vector" d="M47.9629 25.9229C47.9629 24.2979 47.8171 22.7354 47.5462 21.2354H25.9629V30.0999H38.2962C37.765 32.9645 36.1504 35.3916 33.7233 37.0166V42.7666H41.1296C45.4629 38.777 47.9629 32.902 47.9629 25.9229Z" fill="#4285F4"/>
<path id="Vector_2" d="M25.9635 48.3186C32.151 48.3186 37.3385 46.2665 41.1302 42.7665L33.724 37.0165C31.6719 38.3915 29.0469 39.204 25.9635 39.204C19.9948 39.204 14.9427 35.1728 13.1406 29.7561H5.48438V35.6936C9.25521 43.1832 17.0052 48.3186 25.9635 48.3186Z" fill="#34A853"/>
<path id="Vector_3" d="M13.1406 29.7562C12.6823 28.3812 12.4219 26.9124 12.4219 25.402C12.4219 23.8916 12.6823 22.4229 13.1406 21.0479V15.1104H5.48438C3.88021 18.3038 3.04546 21.8283 3.04688 25.402C3.04688 29.0999 3.93229 32.5999 5.48438 35.6937L13.1406 29.7562Z" fill="#FBBC05"/>
<path id="Vector_4" d="M25.9635 11.5999C29.3281 11.5999 32.349 12.7562 34.724 15.027L41.2969 8.4541C37.3281 4.75618 32.1406 2.48535 25.9635 2.48535C17.0052 2.48535 9.25521 7.62077 5.48438 15.1104L13.1406 21.0479C14.9427 15.6312 19.9948 11.5999 25.9635 11.5999Z" fill="#EA4335"/>
</g>
</svg>
