<svg width="81" height="80" viewBox="0 0 81 80" fill="none" xmlns="http://www.w3.org/2000/svg">
<g id="Iconsax/Linear/verify">
<path id="Vector" d="M36.3316 8.1667C38.6316 6.20003 42.3983 6.20003 44.7316 8.1667L49.9983 12.7C50.9983 13.5667 52.865 14.2667 54.1983 14.2667H59.865C63.3983 14.2667 66.2983 17.1667 66.2983 20.7V26.3667C66.2983 27.6667 66.9983 29.5667 67.865 30.5667L72.3983 35.8334C74.365 38.1334 74.365 41.9 72.3983 44.2334L67.865 49.5C66.9983 50.5 66.2983 52.3667 66.2983 53.7V59.3667C66.2983 62.9 63.3983 65.8 59.865 65.8H54.1983C52.8983 65.8 50.9983 66.5 49.9983 67.3667L44.7316 71.9C42.4316 73.8667 38.665 73.8667 36.3316 71.9L31.065 67.3667C30.065 66.5 28.1983 65.8 26.865 65.8H21.0983C17.565 65.8 14.665 62.9 14.665 59.3667V53.6667C14.665 52.3667 13.965 50.5 13.1316 49.5L8.63164 44.2C6.69831 41.9 6.69831 38.1667 8.63164 35.8667L13.1316 30.5667C13.965 29.5667 14.665 27.7 14.665 26.4V20.6667C14.665 17.1334 17.565 14.2334 21.0983 14.2334H26.865C28.165 14.2334 30.065 13.5334 31.065 12.6667L36.3316 8.1667Z" fill="#37BCF7"/>
<path id="Vector_2" d="M28.4316 40L36.465 48.0666L52.565 31.9333" stroke="white" stroke-width="6.96" stroke-linecap="round" stroke-linejoin="round"/>
</g>
</svg>
