<svg width="48" height="45" viewBox="0 0 48 45" fill="none" xmlns="http://www.w3.org/2000/svg">
<rect x="0.436364" y="1.11813" width="47.1273" height="42.7636" rx="8.74306" fill="#35FAA0" fill-opacity="0.6"/>
<rect x="0.436364" y="1.11813" width="47.1273" height="42.7636" rx="8.74306" stroke="black" stroke-width="0.872727"/>
<path d="M31.2695 19.7727H23.0877C22.0836 19.7727 21.2695 20.5867 21.2695 21.5909V29.7727C21.2695 30.7769 22.0836 31.5909 23.0877 31.5909H31.2695C32.2737 31.5909 33.0877 30.7769 33.0877 29.7727V21.5909C33.0877 20.5867 32.2737 19.7727 31.2695 19.7727Z" stroke="black" stroke-width="1.74545" stroke-linecap="round" stroke-linejoin="round"/>
<path d="M17.6335 25.2272H16.7244C16.2422 25.2272 15.7798 25.0357 15.4388 24.6947C15.0978 24.3537 14.9062 23.8913 14.9062 23.4091V15.2272C14.9062 14.745 15.0978 14.2826 15.4388 13.9416C15.7798 13.6006 16.2422 13.4091 16.7244 13.4091H24.9063C25.3885 13.4091 25.8509 13.6006 26.1919 13.9416C26.5329 14.2826 26.7244 14.745 26.7244 15.2272V16.1363" stroke="black" stroke-width="1.74545" stroke-linecap="round" stroke-linejoin="round"/>
</svg>
