<svg width="21" height="22" viewBox="0 0 21 22" fill="none" xmlns="http://www.w3.org/2000/svg">
<g id="Information icon">
<path id="Information icon_2" d="M5.19648 16.3031L4.13577 17.3637C2.87713 16.1049 2.02002 14.5012 1.67284 12.7553C1.32566 11.0095 1.504 9.19984 2.18531 7.55532C2.86661 5.9108 4.02028 4.50525 5.50042 3.5164C6.98043 2.52766 8.72037 1.99995 10.5003 2L5.19648 16.3031ZM5.19648 16.3031L4.13577 17.3637C5.39441 18.6224 6.99806 19.4797 8.74391 19.827M5.19648 16.3031L8.74391 19.827M17.4298 8.12963L18.8158 7.55587C19.2678 8.64783 19.5003 9.81816 19.5 11L17.4298 8.12963ZM17.4298 8.12963L18.8158 7.55586C18.3636 6.46374 17.7007 5.47141 16.865 4.63557M17.4298 8.12963L16.865 4.63557M8.74391 19.827C10.4898 20.1743 12.2994 19.9962 13.944 19.315M8.74391 19.827L13.944 19.315M13.944 19.315C15.5886 18.6338 16.9942 17.4803 17.9832 16.0002M13.944 19.315L17.9832 16.0002M17.9832 16.0002C18.972 14.5203 19.4999 12.7804 19.5 11.0005L17.9832 16.0002ZM16.865 4.63557C16.0292 3.79972 15.0369 3.13675 13.9448 2.68453M16.865 4.63557L13.9448 2.68453M13.9448 2.68453C12.8529 2.23237 11.6826 1.99977 10.5008 2L13.9448 2.68453Z" stroke="#37BCF7" stroke-width="3"/>
</g>
</svg>
