<svg width="30" height="30" viewBox="0 0 30 30" fill="none" xmlns="http://www.w3.org/2000/svg">
<g clip-path="url(#clip0_4252_34714)">
<path d="M30 22.387C30 22.5514 29.9949 22.9058 29.9846 23.1832C29.9589 23.8562 29.9075 24.7243 29.8253 25.1199C29.7021 25.7158 29.5223 26.2757 29.2808 26.7432C28.9983 27.2979 28.6387 27.7911 28.2072 28.2175C27.7808 28.6438 27.2877 29.0034 26.7329 29.286C26.2654 29.5274 25.7003 29.7072 25.0993 29.8305C24.7089 29.9075 23.8459 29.964 23.1781 29.9846C22.9007 29.9949 22.5462 30 22.3819 30H7.60788C7.44349 30 7.08904 29.9949 6.81164 29.9846C6.1387 29.9589 5.27055 29.9075 4.875 29.8253C4.27911 29.7021 3.71918 29.5223 3.25171 29.2808C2.69692 28.9983 2.20377 28.6387 1.7774 28.2072C1.35103 27.7808 0.991438 27.2877 0.708904 26.7329C0.467466 26.2654 0.287671 25.7003 0.164384 25.0993C0.0873288 24.7089 0.0308219 23.8459 0.010274 23.1781C0.00513699 22.9058 0 22.5514 0 22.387V7.61301C0 7.44863 0.00513699 7.09418 0.015411 6.81678C0.0410959 6.14384 0.0924658 5.27569 0.174658 4.88014C0.297945 4.28425 0.47774 3.72432 0.719178 3.25685C1.00171 2.70205 1.3613 2.2089 1.78767 1.78253C2.21404 1.35616 2.70719 0.996575 3.26199 0.714041C3.72945 0.472603 4.29452 0.292808 4.89555 0.169521C5.28596 0.0924658 6.14897 0.0359589 6.81678 0.015411C7.09418 0.00513699 7.44863 0 7.61301 0H22.387C22.5514 0 22.9058 0.00513699 23.1832 0.015411C23.8562 0.0410959 24.7243 0.0924658 25.1199 0.174658C25.7158 0.297945 26.2757 0.47774 26.7432 0.719178C27.2979 1.00171 27.7911 1.3613 28.2175 1.79281C28.6438 2.21918 29.0034 2.71233 29.286 3.26712C29.5274 3.73459 29.7072 4.29966 29.8305 4.90069C29.9075 5.2911 29.964 6.15411 29.9846 6.82192C29.9949 7.09932 30 7.45377 30 7.61815V22.387Z" fill="url(#paint0_linear_4252_34714)"/>
<g clip-path="url(#clip1_4252_34714)">
<path d="M11.2726 23.9369C10.315 23.8918 9.66103 23.7389 9.08935 23.5143C8.49769 23.2837 7.99621 22.9743 7.49725 22.4735C6.99829 21.9728 6.69103 21.4709 6.46207 20.8784C6.24049 20.3054 6.09037 19.651 6.04807 18.6928C6.00577 17.7347 5.99641 17.4267 6.00109 14.9827C6.00577 12.5386 6.01657 12.2323 6.06301 11.2721C6.10873 10.3147 6.26101 9.66095 6.48565 9.08909C6.71659 8.49743 7.02565 7.99613 7.52659 7.49699C8.02753 6.99785 8.52901 6.69131 9.12301 6.46199C9.69541 6.24077 10.3501 6.08994 11.308 6.04799C12.266 6.00605 12.5743 5.99633 15.0177 6.00101C17.461 6.0057 17.7686 6.01649 18.7285 6.06203C19.6885 6.10757 20.3388 6.26093 20.9109 6.4845C21.5025 6.71597 22.0042 7.02449 22.503 7.52562C23.0017 8.02673 23.3088 8.52893 23.5376 9.12185C23.7594 9.69425 23.91 10.3489 23.9516 11.3062C23.9935 12.2668 24.0034 12.5735 23.9988 15.0172C23.9941 17.4609 23.9831 17.7673 23.9376 18.727C23.892 19.6868 23.7396 20.3386 23.5151 20.9108C23.2838 21.5024 22.9751 22.0034 22.4743 22.5029C21.9736 23.0024 21.471 23.3093 20.8783 23.5375C20.3055 23.7591 19.6512 23.9101 18.6933 23.9515C17.7353 23.9929 17.427 24.0035 14.9827 23.9989C12.5385 23.9942 12.2325 23.9837 11.2726 23.9369ZM11.3777 7.6671C10.5002 7.70526 10.0237 7.85106 9.70621 7.97309C9.28573 8.13509 8.98621 8.33093 8.66977 8.64431C8.35333 8.95769 8.15893 9.2583 7.99477 9.67787C7.87147 9.99539 7.72297 10.4713 7.68193 11.3488C7.63729 12.2972 7.62793 12.582 7.62271 14.9848C7.61749 17.3876 7.62667 17.672 7.66825 18.6208C7.70569 19.4976 7.85239 19.9746 7.97425 20.2919C8.13625 20.713 8.33137 21.0119 8.64547 21.3282C8.95957 21.6445 9.25927 21.8392 9.67921 22.0034C9.99637 22.1272 10.4723 22.2745 11.3494 22.3162C12.2986 22.3612 12.583 22.3702 14.9854 22.3754C17.3879 22.3807 17.673 22.3717 18.6225 22.3299C19.4993 22.2917 19.9765 22.1465 20.2935 22.0239C20.7141 21.8619 21.0135 21.6673 21.3297 21.3527C21.646 21.038 21.8409 20.7394 22.0051 20.3186C22.1291 20.0023 22.2763 19.5266 22.3177 18.6489C22.3629 17.6998 22.3732 17.4152 22.3775 15.0129C22.3818 12.6106 22.3734 12.3253 22.3318 11.3769C22.2934 10.4994 22.148 10.0228 22.0258 9.70487C21.8638 9.28457 21.6685 8.98487 21.3542 8.66879C21.0399 8.35271 20.7406 8.15796 20.3205 7.9938C20.0037 7.87013 19.5272 7.72253 18.6508 7.68077C17.7016 7.63614 17.4172 7.62678 15.0139 7.62156C12.6105 7.61633 12.327 7.62605 11.3779 7.6671M18.7147 19.8101C18.715 19.5965 18.7787 19.3877 18.8977 19.2103C19.0167 19.0329 19.1856 18.8948 19.3831 18.8134C19.5806 18.732 19.7978 18.711 20.0073 18.753C20.2167 18.7951 20.409 18.8983 20.5597 19.0496C20.7105 19.2009 20.813 19.3936 20.8543 19.6032C20.8956 19.8128 20.8738 20.0299 20.7917 20.2271C20.7095 20.4243 20.5708 20.5927 20.3929 20.711C20.2151 20.8294 20.0061 20.8923 19.7925 20.8919C19.5061 20.8913 19.2317 20.777 19.0296 20.5742C18.8275 20.3713 18.7142 20.0964 18.7147 19.8101ZM10.3789 14.9909C10.3839 12.4385 12.4568 10.3741 15.0087 10.379C17.5605 10.3838 19.6264 12.4565 19.6215 15.0089C19.6167 17.5613 17.5432 19.6263 14.991 19.6213C12.4388 19.6162 10.374 17.543 10.3789 14.9909ZM12 14.9942C11.9988 15.5875 12.1736 16.1679 12.5023 16.6619C12.8309 17.1559 13.2987 17.5414 13.8465 17.7695C14.3942 17.9977 14.9973 18.0583 15.5795 17.9437C16.1616 17.8291 16.6968 17.5444 17.1172 17.1257C17.5376 16.7069 17.8243 16.1729 17.9413 15.5912C18.0582 15.0095 18 14.4062 17.774 13.8575C17.548 13.3089 17.1644 12.8396 16.6717 12.509C16.179 12.1783 15.5993 12.0012 15.006 12.0001C14.612 11.9992 14.2217 12.076 13.8574 12.226C13.4931 12.3761 13.1619 12.5964 12.8827 12.8744C12.6036 13.1525 12.382 13.4828 12.2305 13.8465C12.079 14.2102 12.0007 14.6002 12 14.9942Z" fill="white"/>
</g>
</g>
<defs>
<linearGradient id="paint0_linear_4252_34714" x1="5" y1="1.5" x2="25.5" y2="36" gradientUnits="userSpaceOnUse">
<stop stop-color="#7C31F8"/>
<stop offset="0.475" stop-color="#F83F2D"/>
<stop offset="1" stop-color="#FEBA01"/>
</linearGradient>
<clipPath id="clip0_4252_34714">
<rect width="30" height="30" rx="15" fill="white"/>
</clipPath>
<clipPath id="clip1_4252_34714">
<rect width="18" height="18" fill="white" transform="matrix(1 0 0 -1 6 24)"/>
</clipPath>
</defs>
</svg>
