<svg width="30" height="30" viewBox="0 0 30 30" fill="none" xmlns="http://www.w3.org/2000/svg">
<g clip-path="url(#clip0_4252_34722)">
<path d="M30 22.387C30 22.5514 29.9949 22.9058 29.9846 23.1832C29.9589 23.8562 29.9075 24.7243 29.8253 25.1199C29.7021 25.7158 29.5223 26.2757 29.2808 26.7432C28.9983 27.2979 28.6387 27.7911 28.2072 28.2175C27.7808 28.6438 27.2877 29.0034 26.7329 29.286C26.2654 29.5274 25.7003 29.7072 25.0993 29.8305C24.7089 29.9075 23.8459 29.964 23.1781 29.9846C22.9007 29.9949 22.5462 30 22.3819 30H7.60788C7.44349 30 7.08904 29.9949 6.81164 29.9846C6.1387 29.9589 5.27055 29.9075 4.875 29.8253C4.27911 29.7021 3.71918 29.5223 3.25171 29.2808C2.69692 28.9983 2.20377 28.6387 1.7774 28.2072C1.35103 27.7808 0.991438 27.2877 0.708904 26.7329C0.467466 26.2654 0.287671 25.7003 0.164384 25.0993C0.0873288 24.7089 0.0308219 23.8459 0.010274 23.1781C0.00513699 22.9058 0 22.5514 0 22.387V7.61301C0 7.44863 0.00513699 7.09418 0.015411 6.81678C0.0410959 6.14384 0.0924658 5.27569 0.174658 4.88014C0.297945 4.28425 0.47774 3.72432 0.719178 3.25685C1.00171 2.70205 1.3613 2.2089 1.78767 1.78253C2.21404 1.35616 2.70719 0.996575 3.26199 0.714041C3.72945 0.472603 4.29452 0.292808 4.89555 0.169521C5.28596 0.0924658 6.14897 0.0359589 6.81678 0.015411C7.09418 0.00513699 7.44863 0 7.61301 0H22.387C22.5514 0 22.9058 0.00513699 23.1832 0.015411C23.8562 0.0410959 24.7243 0.0924658 25.1199 0.174658C25.7158 0.297945 26.2757 0.47774 26.7432 0.719178C27.2979 1.00171 27.7911 1.3613 28.2175 1.79281C28.6438 2.21918 29.0034 2.71233 29.286 3.26712C29.5274 3.73459 29.7072 4.29966 29.8305 4.90069C29.9075 5.2911 29.964 6.15411 29.9846 6.82192C29.9949 7.09932 30 7.45377 30 7.61815V22.387Z" fill="#E6E6E6"/>
<path d="M8.33464 9.16663H21.668C22.5846 9.16663 23.3346 9.87913 23.3346 10.75V20.25C23.3346 21.1208 22.5846 21.8333 21.668 21.8333H8.33464C7.41797 21.8333 6.66797 21.1208 6.66797 20.25V10.75C6.66797 9.87913 7.41797 9.16663 8.33464 9.16663Z" stroke="black" stroke-width="1.5" stroke-linecap="round" stroke-linejoin="round"/>
<path d="M23.3346 10.75L15.0013 16.2917L6.66797 10.75" stroke="black" stroke-width="1.5" stroke-linecap="round" stroke-linejoin="round"/>
</g>
<defs>
<clipPath id="clip0_4252_34722">
<rect width="30" height="30" rx="15" fill="white"/>
</clipPath>
</defs>
</svg>
