<svg width="30" height="30" viewBox="0 0 30 30" fill="none" xmlns="http://www.w3.org/2000/svg">
<rect width="30" height="30" rx="15" fill="url(#paint0_linear_4252_34706)"/>
<path fill-rule="evenodd" clip-rule="evenodd" d="M15 6C9.92958 6 6 9.71408 6 14.7302C6 17.3541 7.07565 19.6213 8.82676 21.1877C8.97344 21.3199 9.06217 21.5028 9.06942 21.7002L9.11831 23.301C9.13461 23.8117 9.66157 24.1431 10.1288 23.9384L11.9143 23.1507C12.0664 23.0837 12.2348 23.071 12.3942 23.1145C13.2145 23.3408 14.0891 23.4604 15 23.4604C20.0704 23.4604 24 19.7463 24 14.7302C24 9.71408 20.0704 6 15 6Z" fill="white"/>
<path fill-rule="evenodd" clip-rule="evenodd" d="M9.59746 17.2835L12.2413 13.0895C12.6614 12.4231 13.5633 12.2565 14.1934 12.7291L16.2958 14.3064C16.4896 14.4513 16.754 14.4495 16.9459 14.3046L19.7854 12.1497C20.1639 11.8617 20.66 12.3163 20.4047 12.7183L17.7626 16.9104C17.3425 17.5768 16.4407 17.7434 15.8105 17.2708L13.7081 15.6935C13.5144 15.5486 13.25 15.5505 13.058 15.6953L10.2168 17.8521C9.8383 18.14 9.34213 17.6855 9.59746 17.2835Z" fill="url(#paint1_linear_4252_34706)"/>
<defs>
<linearGradient id="paint0_linear_4252_34706" x1="15" y1="0" x2="15" y2="30" gradientUnits="userSpaceOnUse">
<stop stop-color="#00B2FF"/>
<stop offset="1" stop-color="#006AFF"/>
</linearGradient>
<linearGradient id="paint1_linear_4252_34706" x1="15.0011" y1="12.059" x2="15.0011" y2="17.9428" gradientUnits="userSpaceOnUse">
<stop stop-color="#00B2FF"/>
<stop offset="1" stop-color="#006AFF"/>
</linearGradient>
</defs>
</svg>
