<svg width="30" height="30" viewBox="0 0 30 30" fill="none" xmlns="http://www.w3.org/2000/svg">
<g clip-path="url(#clip0_4252_34731)">
<path d="M30 22.387C30 22.5514 29.9949 22.9058 29.9846 23.1832C29.9589 23.8562 29.9075 24.7243 29.8253 25.1199C29.7021 25.7158 29.5223 26.2757 29.2808 26.7432C28.9983 27.2979 28.6387 27.7911 28.2072 28.2175C27.7808 28.6438 27.2877 29.0034 26.7329 29.286C26.2654 29.5274 25.7003 29.7072 25.0993 29.8305C24.7089 29.9075 23.8459 29.964 23.1781 29.9846C22.9007 29.9949 22.5462 30 22.3819 30H7.60788C7.44349 30 7.08904 29.9949 6.81164 29.9846C6.1387 29.9589 5.27055 29.9075 4.875 29.8253C4.27911 29.7021 3.71918 29.5223 3.25171 29.2808C2.69692 28.9983 2.20377 28.6387 1.7774 28.2072C1.35103 27.7808 0.991438 27.2877 0.708904 26.7329C0.467466 26.2654 0.287671 25.7003 0.164384 25.0993C0.0873288 24.7089 0.0308219 23.8459 0.010274 23.1781C0.00513699 22.9058 0 22.5514 0 22.387V7.61301C0 7.44863 0.00513699 7.09418 0.015411 6.81678C0.0410959 6.14384 0.0924658 5.27569 0.174658 4.88014C0.297945 4.28425 0.47774 3.72432 0.719178 3.25685C1.00171 2.70205 1.3613 2.2089 1.78767 1.78253C2.21404 1.35616 2.70719 0.996575 3.26199 0.714041C3.72945 0.472603 4.29452 0.292808 4.89555 0.169521C5.28596 0.0924658 6.14897 0.0359589 6.81678 0.015411C7.09418 0.00513699 7.44863 0 7.61301 0H22.387C22.5514 0 22.9058 0.00513699 23.1832 0.015411C23.8562 0.0410959 24.7243 0.0924658 25.1199 0.174658C25.7158 0.297945 26.2757 0.47774 26.7432 0.719178C27.2979 1.00171 27.7911 1.3613 28.2175 1.79281C28.6438 2.21918 29.0034 2.71233 29.286 3.26712C29.5274 3.73459 29.7072 4.29966 29.8305 4.90069C29.9075 5.2911 29.964 6.15411 29.9846 6.82192C29.9949 7.09932 30 7.45377 30 7.61815V22.387Z" fill="url(#paint0_linear_4252_34731)"/>
<path fill-rule="evenodd" clip-rule="evenodd" d="M21.5919 7.44413C19.8064 5.65862 17.4302 4.67273 14.8996 4.67273C9.68394 4.67273 5.44506 8.91615 5.44052 14.1273C5.44052 15.7947 5.87667 17.4212 6.70355 18.8523L5.36328 23.7545L10.3791 22.4415C11.7602 23.1957 13.314 23.591 14.8996 23.591H14.9042C20.1153 23.591 24.3587 19.3475 24.3633 14.1364C24.3633 11.6058 23.3774 9.22964 21.5919 7.44413ZM14.9042 21.9917C13.4912 21.9917 12.1055 21.6101 10.9015 20.8968L10.6153 20.7287L7.63946 21.5101L8.43454 18.6115L8.24826 18.3162C7.46228 17.0668 7.0443 15.6175 7.0443 14.1318C7.0443 9.79755 10.5744 6.27196 14.9087 6.27196C17.0077 6.27196 18.984 7.08975 20.4651 8.57541C21.9508 10.0611 22.7686 12.0374 22.764 14.1364C22.7595 18.4661 19.2339 21.9917 14.9042 21.9917ZM19.2157 16.1082C18.9795 15.99 17.8164 15.4176 17.6029 15.3404C17.3848 15.2631 17.2303 15.2222 17.0713 15.4585C16.9123 15.6947 16.4625 16.2263 16.3217 16.3853C16.1854 16.5443 16.0445 16.5625 15.8083 16.4444C15.572 16.3262 14.8088 16.0764 13.9092 15.2722C13.205 14.6452 12.7325 13.8729 12.5962 13.6366C12.4599 13.4004 12.5826 13.2732 12.7007 13.155C12.8052 13.0505 12.9369 12.8779 13.0551 12.7416C13.1732 12.6053 13.2141 12.5053 13.2913 12.3463C13.3685 12.1873 13.3322 12.051 13.2731 11.9329C13.2141 11.8148 12.7416 10.6517 12.5462 10.1792C12.3554 9.72031 12.16 9.77938 12.0146 9.77483C11.8783 9.76575 11.7193 9.76575 11.5603 9.76575C11.4013 9.76575 11.1469 9.82481 10.9288 10.0611C10.7107 10.2973 10.1019 10.8698 10.1019 12.0328C10.1019 13.1959 10.947 14.3181 11.0651 14.4771C11.1832 14.6361 12.7325 17.0214 15.1041 18.0436C15.6674 18.2889 16.1081 18.4343 16.4534 18.5434C17.0213 18.7251 17.5347 18.6978 17.9436 18.6388C18.398 18.5706 19.343 18.0663 19.5383 17.5166C19.7337 16.9668 19.7337 16.4898 19.6746 16.3944C19.6065 16.2854 19.452 16.2263 19.2157 16.1082Z" fill="white"/>
</g>
<defs>
<linearGradient id="paint0_linear_4252_34731" x1="15.0011" y1="30.0023" x2="15.0011" y2="0" gradientUnits="userSpaceOnUse">
<stop stop-color="#25CF43"/>
<stop offset="1" stop-color="#61FD7D"/>
</linearGradient>
<clipPath id="clip0_4252_34731">
<rect width="30" height="30" rx="15" fill="white"/>
</clipPath>
</defs>
</svg>
