<svg width="15" height="15" viewBox="0 0 15 15" fill="none" xmlns="http://www.w3.org/2000/svg">
<path d="M13.3787 7.06158C13.381 7.9422 13.1753 8.8109 12.7782 9.59694C12.3075 10.5389 11.5838 11.3311 10.6882 11.8849C9.79262 12.4388 8.76052 12.7324 7.70752 12.7328C6.82691 12.7351 5.95821 12.5293 5.17217 12.1323L1.36914 13.4L2.63682 9.59694C2.23979 8.8109 2.03404 7.9422 2.03634 7.06158C2.03675 6.00858 2.33031 4.97649 2.88416 4.08091C3.43801 3.18533 4.23026 2.46163 5.17217 1.99088C5.95821 1.59385 6.82691 1.3881 7.70752 1.3904H8.04112C9.4318 1.46712 10.7453 2.0541 11.7302 3.03895C12.715 4.0238 13.302 5.33731 13.3787 6.72799V7.06158Z" stroke="black" stroke-width="1.84763" stroke-linecap="round" stroke-linejoin="round"/>
</svg>
