<svg width="21" height="21" viewBox="0 0 21 21" fill="none" xmlns="http://www.w3.org/2000/svg">
<path id="Vector" d="M19.5 20.037H1.5C1.09 20.037 0.75 19.697 0.75 19.287C0.75 18.877 1.09 18.537 1.5 18.537H19.5C19.91 18.537 20.25 18.877 20.25 19.287C20.25 19.697 19.91 20.037 19.5 20.037ZM17.52 1.51898C15.58 -0.421024 13.68 -0.471024 11.69 1.51898L10.48 2.72898C10.38 2.82898 10.34 2.98898 10.38 3.12898C10.7625 4.44136 11.4697 5.6361 12.4363 6.60269C13.4029 7.56929 14.5976 8.27652 15.91 8.65898C15.9809 8.68218 16.0568 8.68512 16.1293 8.66745C16.2017 8.64978 16.2678 8.61221 16.32 8.55898L17.52 7.34898C18.51 6.36898 18.99 5.41898 18.99 4.45898C19 3.46898 18.52 2.50898 17.52 1.51898ZM14.11 9.56698C13.82 9.42698 13.54 9.28698 13.27 9.12698C13.0507 8.99633 12.8371 8.85619 12.63 8.70698C12.46 8.59698 12.26 8.43698 12.07 8.27698C12.0088 8.23236 11.9519 8.18214 11.9 8.12698C11.57 7.84698 11.2 7.48698 10.87 7.08698C10.84 7.06698 10.79 6.99698 10.72 6.90698C10.62 6.78698 10.45 6.58698 10.3 6.35698C10.1575 6.1689 10.0272 5.97182 9.91 5.76698C9.75 5.49698 9.61 5.22698 9.47 4.94698C9.44918 4.9022 9.42885 4.85719 9.409 4.81198C9.261 4.47898 8.826 4.38198 8.569 4.63898L2.84 10.368C2.71 10.498 2.59 10.748 2.56 10.918L2.02 14.748C1.92 15.428 2.11 16.068 2.53 16.498C2.89 16.848 3.39 17.038 3.93 17.038C4.05 17.038 4.17 17.028 4.29 17.008L8.13 16.468C8.31 16.438 8.56 16.318 8.68 16.188L14.402 10.467C14.662 10.207 14.563 9.76198 14.226 9.61698C14.1873 9.6004 14.1486 9.58373 14.11 9.56698Z" fill="#37BCF7"/>
</svg>
