<svg width="20" height="21" viewBox="0 0 20 21" fill="none" xmlns="http://www.w3.org/2000/svg">
<g id="Instagram svg" clip-path="url(#clip0_2930_28453)">
<g id="Group">
<g id="Group_2">
<g id="Group_3">
<g id="Clip path group">
<mask id="mask0_2930_28453" style="mask-type:luminance" maskUnits="userSpaceOnUse" x="0" y="0" width="20" height="21">
<g id="SVGID_00000170980134926788928000000000553113072940639111_">
<path id="Vector" d="M5.89572 0.618709C4.837 0.668679 4.11389 0.838259 3.482 1.08586C2.82787 1.34086 2.27337 1.68261 1.72177 2.23648C1.16951 2.79067 0.83036 3.34615 0.577293 4.00093C0.332274 4.63443 0.16624 5.35789 0.119488 6.41726C0.0730702 7.47859 0.0624254 7.8171 0.0675995 10.5191C0.0727537 13.2207 0.0846781 13.5599 0.135289 14.6215C0.185898 15.6799 0.354845 16.4027 0.602441 17.035C0.857771 17.6891 1.19917 18.2433 1.75335 18.7952C2.30722 19.3472 2.86302 19.686 3.5181 19.9394C4.15096 20.1841 4.87472 20.3508 5.93378 20.3972C6.99508 20.4439 7.3339 20.4543 10.0352 20.4491C12.7378 20.4439 13.0766 20.432 14.1379 20.3817C15.1966 20.3311 15.9191 20.1615 16.5516 19.9146C17.2058 19.6586 17.7603 19.3178 18.3119 18.7636C18.8635 18.2098 19.2026 17.6539 19.4557 16.9988C19.7007 16.366 19.8674 15.6422 19.9135 14.5838C19.9599 13.5218 19.9709 13.1827 19.9657 10.481C19.9606 7.77905 19.9483 7.44054 19.898 6.37955C19.8477 5.32017 19.6782 4.59769 19.4309 3.96515C19.1752 3.31102 18.8342 2.75714 18.2803 2.20489C17.7264 1.65327 17.1706 1.31346 16.5155 1.06104C15.8824 0.816014 15.1589 0.649011 14.0999 0.603232C13.0386 0.556163 12.6997 0.545853 9.99748 0.551009C7.29586 0.556165 6.95704 0.567775 5.89572 0.618709ZM6.0118 18.6063C5.04172 18.5641 4.51494 18.4029 4.16387 18.2678C3.69898 18.0879 3.36724 17.8722 3.01809 17.5256C2.66959 17.1778 2.45326 16.847 2.27176 16.3831C2.13538 16.032 1.97129 15.5058 1.92584 14.5358C1.87651 13.487 1.86523 13.1724 1.86039 10.5155C1.85524 7.85933 1.8649 7.54467 1.91069 6.49497C1.95226 5.52553 2.11444 4.9981 2.24919 4.64733C2.42908 4.18179 2.64411 3.85069 2.99133 3.50155C3.33918 3.15239 3.66995 2.93671 4.13419 2.75521C4.48495 2.61819 5.0111 2.45538 5.98084 2.40928C7.03022 2.35963 7.34454 2.34899 10.0007 2.34383C12.6575 2.33867 12.9722 2.34803 14.0219 2.39413C14.9913 2.43636 15.5187 2.59691 15.8691 2.73264C16.3343 2.91253 16.6661 3.12692 17.0149 3.47479C17.3637 3.82265 17.5801 4.15278 17.7616 4.61799C17.8986 4.96778 18.0614 5.49458 18.1072 6.46402C18.1571 7.5134 18.1684 7.82806 18.1732 10.4843C18.1784 13.1411 18.1687 13.4557 18.1226 14.5048C18.0804 15.4749 17.9195 16.002 17.7841 16.3534C17.6042 16.818 17.3892 17.1497 17.0417 17.4989C16.6941 17.8467 16.3634 18.0637 15.8988 18.2452C15.5487 18.3819 15.0219 18.545 14.0528 18.5911C13.0034 18.6405 12.6891 18.6517 10.032 18.6566C7.37581 18.6617 7.06149 18.6518 6.0118 18.6063ZM14.1234 5.18122C14.1247 5.84019 14.6605 6.37375 15.3195 6.37246C15.9787 6.37117 16.5123 5.83567 16.5113 5.1767C16.51 4.51773 15.9742 3.98385 15.315 3.98514C14.6557 3.98643 14.1221 4.52224 14.1234 5.18122ZM4.90762 10.5097C4.91309 13.3316 7.20495 15.6142 10.0262 15.6087C12.8477 15.6032 15.1315 13.312 15.126 10.4901C15.1206 7.66912 12.8284 5.38529 10.0065 5.39077C7.18528 5.39625 4.90213 7.68847 4.90762 10.5097ZM6.69976 10.5062C6.69654 8.67466 8.17889 7.18682 10.0101 7.1836C11.8416 7.18005 13.3297 8.66177 13.3332 10.4936C13.3368 12.3254 11.8544 13.813 10.0226 13.8165C8.19146 13.8201 6.70331 12.338 6.69976 10.5062Z" fill="white"/>
</g>
</mask>
<g mask="url(#mask0_2930_28453)">
<g id="Group_4">
<g id="Group_5">
<g id="Clip path group_2">
<mask id="mask1_2930_28453" style="mask-type:luminance" maskUnits="userSpaceOnUse" x="-1" y="-1" width="22" height="23">
<g id="SVGID_00000075130749379876087420000012434501290736231839_">
<path id="Vector_2" d="M20.7503 -0.229492H-0.742188V21.2633H20.7503V-0.229492Z" fill="white"/>
</g>
</mask>
<g mask="url(#mask1_2930_28453)">
<g id="Group_6">
<g id="Group_7">
<g id="Clip path group_3">
<mask id="mask2_2930_28453" style="mask-type:luminance" maskUnits="userSpaceOnUse" x="-1" y="-1" width="22" height="23">
<g id="SVGID_00000076589791919960347240000006817951357147468980_">
<path id="Vector_3" d="M20.8556 -0.329102H-0.835938V21.3627H20.8556V-0.329102Z" fill="white"/>
</g>
</mask>
<g mask="url(#mask2_2930_28453)">
<g id="Group_8">
<g id="Clip path group_4">
<mask id="mask3_2930_28453" style="mask-type:luminance" maskUnits="userSpaceOnUse" x="-1" y="-1" width="22" height="23">
<g id="SVGID_00000057848519819832226150000010698714775723389572_">
<path id="Vector_4" d="M20.8595 -0.329102H-0.832031V21.3627H20.8595V-0.329102Z" fill="white"/>
</g>
</mask>
<g mask="url(#mask3_2930_28453)">
<g id="Group_9">
<rect id="Rectangle" x="-0.839844" y="-0.332031" width="21.7027" height="21.7027" fill="black"/>
</g>
</g>
</g>
</g>
</g>
</g>
</g>
</g>
</g>
</g>
</g>
</g>
</g>
</g>
</g>
</g>
</g>
</g>
<defs>
<clipPath id="clip0_2930_28453">
<rect width="20" height="20" fill="white" transform="translate(0 0.5)"/>
</clipPath>
</defs>
</svg>
