<svg width="13" height="70" viewBox="0 0 13 70" fill="none" xmlns="http://www.w3.org/2000/svg">
<path id="Vector 409" d="M5.99791 4.05331C6.45031 9.25597 8.02204 -0.362541 4.88886 4.9247C4.27431 5.96177 6.01594 8.03427 6.55243 6.74671C7.36046 4.80743 5.84497 3.71808 4.73043 5.8357C3.95039 7.31777 6.23351 8.26638 6.94852 7.14279C7.91781 5.61961 5.80692 5.1024 6.15634 5.32079C6.77302 5.70621 7.86461 2.90444 6.94852 2.94427C4.98213 3.02976 5.30213 6.80874 6.31478 5.7961C6.63133 5.47954 8.18025 8.15617 7.74069 5.51884C7.41844 3.58531 8.39663 6.8566 8.6913 7.38045C10.9636 11.42 10.4669 19.3979 10.236 24.0161C9.79462 32.8445 9.46026 42.144 7.97834 50.8708C7.26788 55.0546 6.75835 59.9827 7.97834 64.1001C8.07458 64.4249 8.01837 66.3711 8.29521 65.3676C9.38474 61.4181 8.84973 48.9918 8.84973 53.0889C8.84973 55.6643 9.36982 62.0944 7.97834 62.6742C6.44066 63.3149 7.36763 65.3787 6.23556 65.9221C3.33226 67.3157 5.77429 66.8877 6.19595 66.2786C7.77575 63.9967 4.09311 63.9949 7.3446 64.7339C8.60257 65.0198 8.36529 63.704 7.58225 63.704C6.54234 63.704 7.0601 65.2754 7.70108 64.5358C9.78535 62.1309 4.80964 58.676 4.80964 62.8326C4.80964 66.1432 8.98744 64.8862 7.66147 63.2287C6.42009 61.677 3.58757 63.7382 4.49277 65.2092C6.44204 68.3767 8.65657 60.3621 5.28495 61.486C-1.04291 63.5952 10.5861 66.391 7.42382 63.2287" stroke="black" stroke-width="5" stroke-linecap="round"/>
</svg>
