<svg width="52" height="70" viewBox="0 0 52 70" fill="none" xmlns="http://www.w3.org/2000/svg">
<path id="Vector 407" d="M7.94605 61.8865C7.74597 65.0879 8.0199 65.7733 5.53624 64.221C4.64383 63.6633 3.40908 64.5536 4.33134 65.2753C5.67028 66.3232 8.17991 64.7671 6.81646 63.2797C4.77385 61.0514 0.591581 65.6779 5.76216 66.4802C10.0789 67.1501 7.30593 61.8112 5.34798 64.2587C4.18343 65.7144 7.915 65.7411 7.94605 65.2753C8.18232 61.7313 15.1683 56.9562 17.6983 55.2972C20.8652 53.2205 24.1349 51.6295 26.8103 48.8585C31.3481 44.1587 33.2701 37.6914 36.3366 32.0651C38.7241 27.6847 41.944 23.88 44.3944 19.5642C46.5395 15.7864 47.2863 11.4717 48.5363 7.36458C49.1195 5.44845 49.8311 5.29348 47.9338 4.61589C44.1117 3.25083 49.2349 6.52397 47.4067 4.20171C45.6385 1.95557 42.4759 3.23851 40.855 4.95477C39.3101 6.59055 44.4809 7.30157 44.2438 7.43989C42.801 8.28151 43.7821 10.3867 44.1685 10.0003C45.372 8.79683 45.2584 1.72393 43.1142 4.20171C42.8731 4.48031 41.8137 8.06267 42.6624 7.21397C43.8655 6.01087 42.1634 5.02063 42.7753 5.63253C43.9672 6.8244 44.787 6.01053 43.1895 7.74112C40.8338 10.2932 43.6528 8.25713 44.0932 6.3856C44.3692 5.21246 42.4353 8.58405 42.2105 9.32255C41.6475 11.1727 42.4007 9.39911 43.8673 10.3768" stroke="black" stroke-width="5" stroke-linecap="round"/>
</svg>
