<svg width="13" height="55" viewBox="0 0 13 55" fill="none" xmlns="http://www.w3.org/2000/svg">
<path id="Vector 408" d="M2.93982 2.72543C3.08181 2.81062 6.83584 5.34487 7.03672 4.00571C7.14858 3.25998 5.1336 3.30155 4.79623 3.30155C1.78201 3.30155 5.76733 6.59633 6.52461 5.18997C7.84571 2.73649 1.36466 1.36029 3.13187 4.38979C5.08838 7.74382 7.25443 2.71259 4.02806 4.32578C3.09708 4.79127 4.91518 15.5964 5.1163 17.0646C5.46956 19.6433 6.20388 22.1819 6.65264 24.7462C7.78339 31.2077 7.87961 37.835 8.82911 44.2705C9.07537 45.9396 9.73702 44.7226 9.46925 44.1425C8.5482 42.1469 8.89768 48.6319 9.53326 50.7359C10.2204 53.0105 10.5282 48.17 10.3014 47.4072C9.85457 45.9041 8.7651 46.2731 8.7651 47.5992C8.7651 48.8885 5.3476 44.2832 5.66042 48.9755C5.91855 52.8474 8.32999 52.275 9.05316 48.9755C9.20598 48.2783 8.70108 41.6403 8.70108 44.7826C8.70108 45.4092 9.44951 49.285 9.46925 48.4954C9.52615 46.2195 7.12802 47.1566 6.39658 48.4314C5.27968 50.378 8.32372 49.1897 8.82911 47.9833C9.97385 45.2507 6.83318 46.0575 7.51682 49.5517C8.06719 52.3646 9.56885 48.0105 9.02115 46.607C8.4852 45.2336 6.58862 45.3165 6.58862 46.8631C6.58862 47.3026 7.85956 45.8015 7.67686 45.0707C7.55198 44.5712 6.76066 45.5708 6.39658 45.9349" stroke="black" stroke-width="5" stroke-linecap="round"/>
</svg>
