<svg width="77" height="77" viewBox="0 0 77 77" fill="none" xmlns="http://www.w3.org/2000/svg">
<circle cx="38.172" cy="38.5698" r="27" transform="rotate(-46.4212 38.172 38.5698)" fill="#35FAA0"/>
<g clip-path="url(#clip0_3034_3282)">
<path d="M33.2577 25.894C31.545 28.0467 31.0702 30.7969 31.7378 33.2616C30.4186 33.2282 29.1096 33.4995 27.9148 34.0538C26.72 34.6082 25.6724 35.4303 24.8549 36.4551C21.9499 40.1062 22.5999 45.4074 26.3156 48.2993C27.7465 49.413 29.2491 50.2165 30.7879 50.7786C38.2953 53.579 46.499 50.5854 49.7655 48.4866C50.2315 48.1945 50.7614 47.5285 50.9389 47.0118C52.2333 43.3782 53.2462 34.7879 48.7289 28.2293C47.8146 26.8823 46.6717 25.6268 45.2407 24.5131C41.5251 21.6212 36.1627 22.2428 33.2577 25.894Z" fill="black"/>
</g>
<defs>
<clipPath id="clip0_3034_3282">
<rect width="36.4757" height="36.5703" fill="white" transform="matrix(0.62261 -0.782532 0.789151 0.6142 13.9727 42.5432)"/>
</clipPath>
</defs>
</svg>
