<svg width="77" height="77" viewBox="0 0 77 77" fill="none" xmlns="http://www.w3.org/2000/svg">
<circle cx="38.3439" cy="38.7432" r="26.2174" transform="rotate(-46.4212 38.3439 38.7432)" fill="#35FAA0" stroke="black" stroke-width="1.56522"/>
<g clip-path="url(#clip0_3034_3239)">
<path d="M32.381 26.4014C30.7845 28.6398 30.456 31.4108 31.2531 33.8376C29.9339 33.8726 28.641 34.2112 27.4772 34.8266C26.3134 35.4421 25.3107 36.3173 24.5486 37.383C21.8408 41.1795 22.7704 46.4397 26.634 49.1353C28.1219 50.1734 29.6649 50.8981 31.2313 51.3798C38.8767 53.7877 46.9107 50.3736 50.0617 48.1086C50.5116 47.7928 51.0056 47.1002 51.1554 46.5751C52.2558 42.8794 52.8127 34.2485 47.9546 27.9327C46.9703 26.6348 45.7625 25.4402 44.2745 24.4021C40.411 21.7065 35.0888 22.6049 32.381 26.4014Z" fill="black"/>
</g>
<defs>
<clipPath id="clip0_3034_3239">
<rect width="36.4555" height="36.5904" fill="white" transform="matrix(0.580671 -0.814139 0.820118 0.572194 14 44.0261)"/>
</clipPath>
</defs>
</svg>
