<svg width="93" height="93" viewBox="0 0 93 93" fill="none" xmlns="http://www.w3.org/2000/svg">
<circle cx="46.171" cy="46.5702" r="26.2174" transform="rotate(46.42 46.171 46.5702)" fill="#35FAA0" stroke="black" stroke-width="1.56522"/>
<g clip-path="url(#clip0_3034_3260)">
<path d="M60.2493 46.6518C58.8701 44.2764 56.468 42.8135 53.907 42.5055C54.4311 41.3075 54.6656 40.0053 54.5919 38.702C54.5183 37.3988 54.1385 36.1305 53.4828 34.9978C51.1435 30.9688 45.9288 29.5851 41.8286 31.9138C40.2496 32.8107 38.9347 33.889 37.8327 35.0908C32.4021 40.9327 32.1455 49.5774 32.8938 53.3583C32.9937 53.8949 33.4204 54.6299 33.8387 54.9856C36.7632 57.5305 44.4416 61.6684 52.2801 59.9737C53.8851 59.6381 55.4895 59.0584 57.0685 58.1616C61.1687 55.8328 62.5886 50.6809 60.2493 46.6518Z" fill="black"/>
</g>
<defs>
<clipPath id="clip0_3034_3260">
<rect width="36.4215" height="36.6242" fill="white" transform="matrix(0.502117 0.8648 -0.869536 0.493869 51.8398 22.7383)"/>
</clipPath>
</defs>
</svg>
