<svg width="55" height="49" viewBox="0 0 55 49" fill="none" xmlns="http://www.w3.org/2000/svg">
<rect x="0.0859375" width="54.1875" height="48.875" rx="11.2891" fill="#024C2B"/>
<rect x="10.6289" y="8.27783" width="30.1041" height="34.7605" rx="7.52604" fill="#024C2B"/>
<path d="M18.8289 43.0066C17.9118 42.8449 16.9138 42.5874 15.8349 42.2341C14.782 41.918 13.9244 41.6038 13.2622 41.2914L13.8811 37.7812C15.1368 38.4265 16.5236 38.883 18.0415 39.1506C20.2551 39.5409 22.2325 39.5146 23.9735 39.0717C25.7462 38.6343 27.1681 37.8742 28.2394 36.7915C29.3107 35.7087 29.9774 34.4242 30.2395 32.9379C30.5964 30.914 30.2715 29.2427 29.265 27.924C28.2585 26.6053 26.5749 25.7052 24.2143 25.2238L21.2428 25.4335L20.7569 22.3643C22.0924 22.3715 23.4429 22.2021 24.8082 21.8559C26.7873 21.3571 28.3916 20.5803 29.621 19.5254C30.856 18.4389 31.5989 17.1841 31.8498 15.7611C32.1286 14.1799 31.842 12.9392 30.9899 12.039C30.1695 11.1444 29.0161 10.5661 27.5298 10.304C26.1384 10.0587 24.7842 10.0644 23.4673 10.3213C22.1819 10.5838 21.051 10.9876 20.0745 11.5327L18.9245 8.34648C19.9977 7.62273 21.6374 7.01517 23.8434 6.52378C26.0811 6.03797 28.2751 5.98465 30.4255 6.36382C33.4297 6.89355 35.7504 7.97118 37.3876 9.59672C39.0619 11.1962 39.6705 13.2925 39.2132 15.8856C38.8118 18.1625 37.5722 20.0144 35.4947 21.4415C33.4171 22.8685 31.0167 23.8147 28.2935 24.2801C28.6153 24.3043 29.0924 24.3721 29.7249 24.4836C32.5394 24.9799 34.6908 26.0929 36.1791 27.8226C37.6991 29.5579 38.25 31.6114 37.8318 33.9832C37.462 36.2656 36.4224 38.1854 34.7132 39.7426C33.0299 41.337 30.8156 42.4301 28.0701 43.022C25.3246 43.614 22.2442 43.6088 18.8289 43.0066Z" fill="white"/>
</svg>
