<svg width="20" height="17" viewBox="0 0 20 17" fill="none" xmlns="http://www.w3.org/2000/svg">
<path id="white_background" d="M17.9525 4.41196C17.9647 4.58862 17.9647 4.76527 17.9647 4.94356C17.9647 10.376 13.8371 16.6412 6.28966 16.6412V16.6379C4.06013 16.6412 1.8769 16.0013 0 14.7948C0.324193 14.8339 0.65001 14.8535 0.97664 14.8543C2.82429 14.8559 4.61914 14.2347 6.07272 13.091C4.31688 13.0576 2.77717 11.9105 2.23929 10.2359C2.85436 10.3548 3.48812 10.3304 4.09181 10.1651C2.17753 9.77761 0.800325 8.09245 0.800325 6.13538C0.800325 6.11747 0.800325 6.10038 0.800325 6.08328C1.37071 6.40159 2.00934 6.57825 2.6626 6.59779C0.859638 5.39049 0.30388 2.9873 1.39265 1.10839C3.47593 3.67684 6.54967 5.23826 9.84928 5.40352C9.51859 3.97561 9.97034 2.47931 11.0364 1.47554C12.689 -0.0809957 15.2882 -0.001215 16.8418 1.65383C17.7607 1.47228 18.6415 1.13444 19.4475 0.655754C19.1412 1.60742 18.5001 2.41581 17.6437 2.9295C18.457 2.83344 19.2517 2.61526 20 2.2823C19.4491 3.10942 18.7552 3.82989 17.9525 4.41196Z" fill="black"/>
</svg>
