<svg width="55" height="49" viewBox="0 0 55 49" fill="none" xmlns="http://www.w3.org/2000/svg">
<rect width="54.1875" height="48.875" rx="11.2891" fill="#024C2B"/>
<rect x="12.0352" y="8.27832" width="30.1041" height="34.7605" rx="7.52604" fill="#024C2B"/>
<path d="M14.3111 34.7706C19.164 32.9525 23.2736 30.7263 26.6401 28.0919C30.0066 25.4574 31.9464 22.6855 32.4594 19.7762C32.7326 18.2267 32.4599 16.9069 31.6413 15.817C30.8599 14.701 29.5995 13.9897 27.8602 13.683C26.2158 13.3931 24.7686 13.4639 23.5187 13.8957C22.3059 14.3013 21.0755 14.8996 19.8275 15.6903L18.485 12.7635C19.2568 12.0845 20.3003 11.437 21.6153 10.8211C22.962 10.2108 24.4733 9.77624 26.1493 9.51745C27.8308 9.22703 29.4779 9.22401 31.0907 9.50839C33.3992 9.91544 35.2585 10.6509 36.6687 11.7147C38.1104 12.7841 39.0965 14.0339 39.6268 15.4643C40.1572 16.8947 40.2829 18.4005 40.0041 19.9816C39.4688 23.0175 37.4761 25.8126 34.0259 28.3671C30.5757 30.9215 26.3795 33.0836 21.4373 34.8533L35.4193 35.9981L37.9244 32.3314L40.804 33.475L37.9563 41.581L14.8556 37.5077L14.3111 34.7706Z" fill="white"/>
</svg>
