<svg width="81" height="73" viewBox="0 0 81 73" fill="none" xmlns="http://www.w3.org/2000/svg">
<rect x="0.921875" y="0.613281" width="79.3977" height="71.6136" rx="16.5412" fill="#35FAA0"/>
<rect x="18.5664" y="10.5381" width="44.1099" height="48.5208" rx="11.0275" fill="#29B776"/>
<rect width="17.6439" height="28.6714" transform="matrix(-1 0 0 -1 49.4414 49.1338)" fill="#29B776"/>
<rect x="49.4414" y="49.1338" width="17.6439" height="3.30824" rx="1.65412" transform="rotate(-180 49.4414 49.1338)" fill="white"/>
<path d="M41.7946 19.2926C41.1487 18.6466 40.1013 18.6466 39.4554 19.2926L28.9286 29.8194C28.2826 30.4653 28.2826 31.5127 28.9286 32.1586C29.5746 32.8046 30.6219 32.8046 31.2679 32.1586L40.625 22.8015L49.9821 32.1586C50.6281 32.8046 51.6754 32.8046 52.3214 32.1586C52.9674 31.5127 52.9674 30.4653 52.3214 29.8193L41.7946 19.2926ZM42.2791 44.7227L42.2791 20.4622L38.9709 20.4622L38.9709 44.7227L42.2791 44.7227Z" fill="white"/>
</svg>
