<svg width="48" height="48" viewBox="0 0 48 48" fill="none" xmlns="http://www.w3.org/2000/svg">
<g clip-path="url(#clip0_4428_20480)">
<path d="M20.8 41.306H26.4213C27.1943 41.306 27.8267 40.6736 27.8267 39.9007V32.8741H30.0611C31.3118 32.8741 31.9442 31.3563 31.0589 30.471L24.6085 24.0206C24.0604 23.4725 23.175 23.4725 22.627 24.0206L16.1765 30.471C15.2912 31.3563 15.9095 32.8741 17.1603 32.8741H19.3947V39.9007C19.3947 40.6736 20.0271 41.306 20.8 41.306ZM15.1788 44.1167H32.0426C32.8155 44.1167 33.4479 44.749 33.4479 45.522C33.4479 46.2949 32.8155 46.9273 32.0426 46.9273H15.1788C14.4058 46.9273 13.7734 46.2949 13.7734 45.522C13.7734 44.749 14.4058 44.1167 15.1788 44.1167Z" fill="black"/>
</g>
<defs>
<clipPath id="clip0_4428_20480">
<rect width="47.2188" height="47.2188" fill="white"/>
</clipPath>
</defs>
</svg>
