<svg width="41" height="45" viewBox="0 0 41 45" fill="none" xmlns="http://www.w3.org/2000/svg">
<path id="Vector" d="M14.6429 34.1517H26.3571C27.9679 34.1517 29.2857 32.9313 29.2857 31.4397V17.8793H33.9421C36.5486 17.8793 37.8664 14.9503 36.0214 13.2417L22.5793 0.79328C21.4371 -0.264427 19.5921 -0.264427 18.45 0.79328L5.00786 13.2417C3.16286 14.9503 4.45143 17.8793 7.05786 17.8793H11.7143V31.4397C11.7143 32.9313 13.0321 34.1517 14.6429 34.1517ZM2.92857 39.5759H38.0714C39.6821 39.5759 41 40.7963 41 42.2879C41 43.7796 39.6821 45 38.0714 45H2.92857C1.31786 45 0 43.7796 0 42.2879C0 40.7963 1.31786 39.5759 2.92857 39.5759Z" fill="white"/>
</svg>
