<svg width="36" height="33" viewBox="0 0 36 33" fill="none" xmlns="http://www.w3.org/2000/svg">
<rect width="36" height="32.4706" rx="7.5" fill="#024C2B"/>
<rect x="8" y="5.5" width="20" height="23.0935" rx="5" fill="#35FAA0" fill-opacity="0.6"/>
<path d="M9.49764 23.1752C12.7217 21.9673 15.452 20.4883 17.6886 18.7381C19.9251 16.9879 21.2138 15.1464 21.5546 13.2135C21.7362 12.1841 21.555 11.3073 21.0111 10.5832C20.492 9.84176 19.6547 9.36918 18.4992 9.16544C17.4067 8.9728 16.4452 9.0199 15.6148 9.30672C14.8091 9.57624 13.9917 9.97366 13.1625 10.499L12.2706 8.55458C12.7834 8.10344 13.4766 7.67328 14.3503 7.26411C15.245 6.85864 16.249 6.56994 17.3625 6.398C18.4796 6.20506 19.5739 6.20306 20.6454 6.39199C22.179 6.66241 23.4143 7.151 24.3511 7.85776C25.309 8.56821 25.9641 9.39858 26.3164 10.3489C26.6688 11.2992 26.7523 12.2995 26.5671 13.35C26.2115 15.3669 24.8876 17.2239 22.5954 18.9209C20.3032 20.618 17.5154 22.0544 14.232 23.2301L23.5211 23.9907L25.1854 21.5547L27.0985 22.3145L25.2066 27.6998L9.85937 24.9936L9.49764 23.1752Z" fill="white"/>
</svg>
