<svg width="36" height="33" viewBox="0 0 36 33" fill="none" xmlns="http://www.w3.org/2000/svg">
<rect y="0.470581" width="36" height="32.4706" rx="7.5" fill="#024C2B"/>
<rect x="7" y="5.97058" width="20" height="23.0935" rx="5" fill="#35FAA0" fill-opacity="0.6"/>
<path d="M12.4368 29.1177C11.8275 29.0102 11.1645 28.8392 10.4477 28.6045C9.74822 28.3945 9.17848 28.1857 8.7385 27.9781L9.1497 25.6461C9.98393 26.0748 10.9053 26.3781 11.9137 26.5559C13.3844 26.8152 14.698 26.7977 15.8547 26.5034C17.0324 26.2129 17.9771 25.7079 18.6888 24.9886C19.4005 24.2692 19.8434 23.4158 20.0176 22.4284C20.2546 21.0838 20.0388 19.9735 19.3701 19.0974C18.7015 18.2213 17.583 17.6233 16.0147 17.3035L14.0405 17.4428L13.7177 15.4037C14.605 15.4085 15.5022 15.296 16.4092 15.066C17.7241 14.7346 18.7899 14.2185 19.6066 13.5177C20.4271 12.7959 20.9207 11.9622 21.0874 11.0168C21.2726 9.96636 21.0822 9.14211 20.5161 8.54405C19.9711 7.94971 19.2048 7.56548 18.2174 7.39137C17.293 7.22837 16.3933 7.2322 15.5184 7.40286C14.6644 7.57723 13.9131 7.84551 13.2644 8.20769L12.5003 6.09086C13.2133 5.61003 14.3026 5.20639 15.7683 4.87993C17.2549 4.55718 18.7125 4.52175 20.1412 4.77366C22.137 5.12559 23.6788 5.84152 24.7665 6.92147C25.8788 7.98411 26.2831 9.3768 25.9794 11.0996C25.7126 12.6122 24.8891 13.8426 23.5089 14.7906C22.1286 15.7387 20.5339 16.3673 18.7247 16.6765C18.9385 16.6926 19.2555 16.7376 19.6757 16.8117C21.5455 17.1414 22.9748 17.8809 23.9636 19.03C24.9734 20.1829 25.3394 21.5472 25.0616 23.1229C24.8159 24.6392 24.1252 25.9147 22.9897 26.9492C21.8714 28.0084 20.4003 28.7347 18.5763 29.1279C16.7523 29.5212 14.7058 29.5177 12.4368 29.1177Z" fill="white"/>
</svg>
