<svg width="36" height="34" viewBox="0 0 36 34" fill="none" xmlns="http://www.w3.org/2000/svg">
<rect y="0.941162" width="36" height="32.4706" rx="7.5" fill="#35FAA0" fill-opacity="0.6"/>
<rect x="7" y="6.44116" width="20" height="23.0935" rx="5" fill="#024C2B"/>
<path d="M8.33064 26.9748C9.12158 27.1576 9.72714 27.286 10.1473 27.3601C11.597 27.6157 12.9619 27.5531 14.2421 27.1723C15.5434 26.7952 16.6296 26.1636 17.5007 25.2774C18.3755 24.3702 18.9222 23.2968 19.1408 22.0573C19.4186 20.4816 19.2405 19.2804 18.6064 18.4537C17.9723 17.627 16.941 17.0878 15.5124 16.8359C14.819 16.7136 14.0355 16.6729 13.1618 16.7138C12.3091 16.7584 11.5874 16.8586 10.9967 17.0144L10.0846 16.1063L13.6477 4.74436L23.3855 6.4614L23.8062 5.9182L25.9806 6.30162L24.6243 10.1242L15.9895 8.60161L13.5416 14.9287C14.2064 14.721 14.9794 14.5756 15.8605 14.4927C16.7664 14.3925 17.7025 14.4276 18.6689 14.598C20.8118 14.9758 22.3524 15.8215 23.2906 17.1351C24.2497 18.4523 24.5496 20.1299 24.1903 22.1678C23.8717 23.9746 23.0489 25.5083 21.7218 26.769C20.412 28.0544 18.7395 28.9401 16.7042 29.4261C14.6862 29.9368 12.5007 29.9846 10.1476 29.5697C9.34928 29.429 8.62692 29.2258 7.98056 28.9602L8.33064 26.9748Z" fill="white"/>
</svg>
