<svg width="36" height="34" viewBox="0 0 36 34" fill="none" xmlns="http://www.w3.org/2000/svg">
<rect y="0.941162" width="36" height="32.4706" rx="7.5" fill="#024C2B"/>
<rect x="7" y="6.44116" width="20" height="23.0935" rx="5" fill="#35FAA0" fill-opacity="0.6"/>
<path d="M16.6171 29.8688C14.8313 29.554 13.3735 28.8528 12.2439 27.7655C11.1142 26.6781 10.3447 25.3294 9.93543 23.7192C9.54716 22.1127 9.51788 20.3745 9.84758 18.5047C10.3218 15.8155 11.417 13.4741 13.1332 11.4805C14.8532 9.46591 16.863 7.95733 19.1627 6.95477C21.4661 5.9312 23.6819 5.46623 25.8099 5.55985L26.4238 7.42274C24.0572 7.69866 21.9608 8.53127 20.1345 9.92057C18.3329 11.2926 16.9366 13.0068 15.9458 15.0633C16.5599 14.6517 17.3168 14.3519 18.2165 14.164C19.1198 13.955 20.1177 13.9468 21.2102 14.1395C23.2901 14.5062 24.814 15.4464 25.7819 16.9602C26.7744 18.4566 27.0725 20.3288 26.6761 22.5768C26.402 24.1315 25.8102 25.5218 24.9009 26.7479C23.9915 27.9739 22.8238 28.8836 21.3977 29.477C19.9754 30.0494 18.3818 30.18 16.6171 29.8688ZM19.2437 16.2622C18.3823 16.1103 17.5717 16.1624 16.8117 16.4183C16.0764 16.6569 15.4913 16.9653 15.0563 17.3435C14.8896 17.9207 14.7525 18.5139 14.6451 19.1231C14.1548 21.6579 14.0865 23.7037 14.4402 25.2608C14.8148 26.8216 15.706 27.7261 17.1136 27.9743C18.3111 28.1854 19.325 27.7793 20.1554 26.756C21.0104 25.7153 21.5879 24.3441 21.888 22.6423C22.2399 20.6465 22.1699 19.1394 21.6779 18.1212C21.1896 17.0819 20.3782 16.4623 19.2437 16.2622Z" fill="white"/>
</svg>
