<svg width="36" height="33" viewBox="0 0 36 33" fill="none" xmlns="http://www.w3.org/2000/svg">
<rect y="0.411743" width="36" height="32.4706" rx="7.5" fill="#024C2B"/>
<rect x="7" y="5.91174" width="20" height="23.0935" rx="5" fill="#35FAA0" fill-opacity="0.6"/>
<path d="M8.71362 21.6421C8.92848 20.4235 9.52399 19.3804 10.5002 18.5127C11.48 17.6241 12.8066 16.9806 14.4798 16.5825C13.4366 15.6187 12.6709 14.6172 12.1826 13.5779C11.6981 12.5177 11.578 11.2942 11.8225 9.90764C12.0448 8.64708 12.5717 7.62438 13.4033 6.83953C14.2596 6.03737 15.3081 5.49656 16.5488 5.21709C17.7895 4.93763 19.1032 4.92014 20.4898 5.16464C21.9604 5.42395 23.1926 5.86867 24.1863 6.4988C25.18 7.12892 25.89 7.89317 26.3165 8.79154C26.743 9.68991 26.8655 10.6538 26.684 11.6833C26.4802 12.8388 25.936 13.8368 25.0512 14.6772C24.1702 15.4967 22.9982 16.124 21.535 16.5593C23.028 17.7973 24.1565 19.0144 24.9204 20.2106C25.6843 21.4067 25.9329 22.7612 25.6662 24.2738C25.4365 25.5764 24.8583 26.6442 23.9315 27.4773C23.0258 28.314 21.8648 28.8783 20.4487 29.1702C19.0535 29.4657 17.5365 29.469 15.8978 29.1801C13.5868 28.7726 11.72 27.9344 10.2974 26.6654C8.8785 25.3754 8.35058 23.701 8.71362 21.6421ZM15.934 9.6253C15.8117 10.3186 15.9107 10.9859 16.2309 11.6273C16.5757 12.2513 17.0263 12.829 17.5825 13.3603C18.1634 13.8743 18.9674 14.536 19.9944 15.3453C20.857 14.9991 21.5595 14.5165 22.1019 13.8972C22.6653 13.2817 23.0174 12.5748 23.1582 11.7765C23.3916 10.4529 23.2351 9.37465 22.6888 8.54179C22.1634 7.71264 21.3125 7.19434 20.136 6.98689C19.1275 6.80907 18.2143 6.95131 17.3963 7.41362C16.6029 7.85862 16.1155 8.59585 15.934 9.6253ZM21.0467 24.3041C21.1727 23.5898 21.0719 22.933 20.7443 22.3337C20.4204 21.7133 19.9785 21.148 19.4187 20.6377C18.8798 20.1311 18.1054 19.4855 17.0957 18.7009C16.5593 18.303 16.1588 17.9942 15.8944 17.7742C15.0281 18.1414 14.2885 18.65 13.6757 19.3001C13.0838 19.954 12.7101 20.7221 12.5545 21.6044C12.2989 23.0541 12.503 24.2923 13.1667 25.3192C13.8515 26.3498 14.9187 26.9929 16.3684 27.2485C17.0617 27.3707 17.7389 27.3385 18.4 27.1518C19.0859 26.9478 19.666 26.606 20.1405 26.1264C20.615 25.6469 20.9171 25.0394 21.0467 24.3041Z" fill="white"/>
</svg>
