<svg width="19" height="18" viewBox="0 0 19 18" fill="none" xmlns="http://www.w3.org/2000/svg">
<path d="M15.567 12.1C15.0753 9.15832 12.2503 6.76666 9.26699 6.76666C6.02533 6.76666 3.17533 9.39166 2.90033 12.625C2.79199 13.875 3.19199 15.0583 4.01699 15.95C4.83366 16.8417 5.98366 17.3333 7.23366 17.3333H11.1337C12.542 17.3333 13.7753 16.7833 14.617 15.7917C15.4587 14.8 15.792 13.4833 15.567 12.1ZM8.23366 5.54999C8.88123 5.54999 9.50228 5.29274 9.96018 4.83484C10.4181 4.37694 10.6753 3.75589 10.6753 3.10832C10.6753 2.46075 10.4181 1.83971 9.96018 1.3818C9.50228 0.923903 8.88123 0.666656 8.23366 0.666656C7.58609 0.666656 6.96504 0.923903 6.50714 1.3818C6.04924 1.83971 5.79199 2.46075 5.79199 3.10832C5.79199 3.75589 6.04924 4.37694 6.50714 4.83484C6.96504 5.29274 7.58609 5.54999 8.23366 5.54999ZM13.7837 6.52332C14.3229 6.52332 14.8401 6.3091 15.2214 5.92777C15.6028 5.54645 15.817 5.02926 15.817 4.48999C15.817 3.95072 15.6028 3.43353 15.2214 3.05221C14.8401 2.67088 14.3229 2.45666 13.7837 2.45666C13.2444 2.45666 12.7272 2.67088 12.3459 3.05221C11.9646 3.43353 11.7503 3.95072 11.7503 4.48999C11.7503 5.02926 11.9646 5.54645 12.3459 5.92777C12.7272 6.3091 13.2444 6.52332 13.7837 6.52332ZM16.792 9.77582C17.0054 9.77582 17.2167 9.73379 17.4139 9.65213C17.611 9.57046 17.7901 9.45077 17.941 9.29987C18.0919 9.14898 18.2116 8.96984 18.2933 8.77268C18.375 8.57553 18.417 8.36422 18.417 8.15082C18.417 7.93743 18.375 7.72612 18.2933 7.52896C18.2116 7.33181 18.0919 7.15267 17.941 7.00177C17.7901 6.85088 17.611 6.73118 17.4139 6.64952C17.2167 6.56785 17.0054 6.52582 16.792 6.52582C16.361 6.52582 15.9477 6.69703 15.6429 7.00177C15.3382 7.30652 15.167 7.71985 15.167 8.15082C15.167 8.5818 15.3382 8.99512 15.6429 9.29987C15.9477 9.60462 16.361 9.77582 16.792 9.77582ZM2.95033 8.15166C3.21735 8.15166 3.48175 8.09906 3.72845 7.99688C3.97514 7.89469 4.1993 7.74492 4.38811 7.55611C4.57692 7.36729 4.7267 7.14314 4.82888 6.89645C4.93107 6.64975 4.98366 6.38534 4.98366 6.11832C4.98366 5.8513 4.93107 5.5869 4.82888 5.3402C4.7267 5.0935 4.57692 4.86935 4.38811 4.68054C4.1993 4.49173 3.97514 4.34195 3.72845 4.23977C3.48175 4.13758 3.21735 4.08499 2.95033 4.08499C2.41105 4.08499 1.89387 4.29922 1.51254 4.68054C1.13122 5.06186 0.916992 5.57905 0.916992 6.11832C0.916992 6.6576 1.13122 7.17478 1.51254 7.55611C1.89387 7.93743 2.41105 8.15166 2.95033 8.15166Z" fill="black"/>
</svg>
