<svg width="35" height="35" viewBox="0 0 35 35" fill="none" xmlns="http://www.w3.org/2000/svg">
<path d="M14.0108 14.0145C12.2256 15.7997 12.2256 18.6915 14.0108 20.4767C15.7944 22.2603 18.6878 22.2619 20.473 20.4767C22.2566 18.6915 22.2566 15.7997 20.473 14.0145C18.6878 12.2292 15.796 12.2292 14.0108 14.0145Z" fill="#35FAA0"/>
<path d="M12.5927 22.6964C12.4641 22.3105 12.1617 22.0081 11.7773 21.881L3.45266 19.1067C2.98946 18.9523 2.47802 19.0729 2.13223 19.4187L0.377553 21.1734C-0.125851 21.6768 -0.125851 22.4938 0.377553 22.9988L11.4766 34.0978C11.98 34.6012 12.797 34.6012 13.302 34.0978L15.0567 32.3431C15.4025 31.9974 15.5231 31.4859 15.3687 31.0227L12.5943 22.6981L12.5927 22.6964Z" fill="#38BCFA"/>
<path d="M21.8812 11.7789C22.0098 12.1649 22.3122 12.4673 22.6966 12.5943L31.0213 15.3687C31.4844 15.5231 31.9959 15.4025 32.3417 15.0567L34.0964 13.302C34.5998 12.7986 34.5998 11.9816 34.0964 11.4766L22.9974 0.377553C22.4939 -0.125851 21.6769 -0.125851 21.1719 0.377553L19.4172 2.13223C19.0714 2.47802 18.9508 2.98946 19.1052 3.45266L21.8796 11.7773L21.8812 11.7789Z" fill="#38BCFA"/>
<path d="M32.3479 19.4167C32.0021 19.071 31.4907 18.9503 31.0275 19.1047L22.7028 21.8791C22.3168 22.0077 22.0144 22.3101 21.8874 22.6945L19.113 31.0192C18.9586 31.4823 19.0793 31.9938 19.425 32.3396L21.1797 34.0943C21.6831 34.5977 22.5002 34.5977 23.0052 34.0943L34.1042 22.9953C34.6076 22.4919 34.6076 21.6748 34.1042 21.1698L32.3495 19.4151L32.3479 19.4167Z" fill="#38BCFA"/>
<path d="M2.14785 15.0582C2.49364 15.404 3.00509 15.5247 3.46828 15.3703L11.7929 12.5959C12.1789 12.4672 12.4813 12.1649 12.6084 11.7805L15.3827 3.45583C15.5371 2.99263 15.4165 2.48119 15.0707 2.1354L13.316 0.380727C12.8126 -0.122677 11.9956 -0.122677 11.4906 0.380727L0.393178 11.4797C-0.110226 11.9831 -0.110226 12.8002 0.393178 13.3052L2.14785 15.0598V15.0582Z" fill="#38BCFA"/>
</svg>
