<svg width="36" height="33" viewBox="0 0 36 33" fill="none" xmlns="http://www.w3.org/2000/svg">
<rect width="36" height="32.4706" rx="7.5" fill="#35FAA0" fill-opacity="0.6"/>
<rect x="8" y="4.5" width="20" height="22" rx="5" fill="#024C2B"/>
<path d="M19.0366 9.86651L20.0925 11.9957C20.2364 12.2921 20.6204 12.5764 20.9444 12.6309L22.8582 12.9515C24.082 13.1571 24.37 14.0524 23.4881 14.9355L22.0003 16.4356C21.7483 16.6897 21.6103 17.1796 21.6883 17.5305L22.1142 19.3875C22.4502 20.8574 21.6763 21.426 20.3864 20.6578L18.5926 19.5871C18.2687 19.3935 17.7347 19.3935 17.4048 19.5871L15.611 20.6578C14.3271 21.426 13.5472 20.8513 13.8832 19.3875L14.3091 17.5305C14.3871 17.1796 14.2491 16.6897 13.9971 16.4356L12.5093 14.9355C11.6334 14.0524 11.9154 13.1571 13.1392 12.9515L15.053 12.6309C15.371 12.5764 15.7549 12.2921 15.8989 11.9957L16.9548 9.86651C17.5307 8.71116 18.4666 8.71116 19.0366 9.86651Z" fill="white"/>
</svg>
