<svg width="51" height="47" viewBox="0 0 51 47" fill="none" xmlns="http://www.w3.org/2000/svg">
<rect y="0.199951" width="51" height="46" rx="10.625" fill="#35FAA0" fill-opacity="0.6"/>
<rect x="11.3334" y="6.57495" width="28.3333" height="31.1667" rx="7.08333" fill="#024C2B"/>
<rect width="11.3333" height="18.4167" transform="translate(19.8334 12.95)" fill="#024C2B"/>
<rect x="19.8334" y="12.95" width="11.3333" height="2.125" rx="1.0625" fill="white"/>
<path d="M24.7481 32.1181C25.163 32.533 25.8358 32.533 26.2507 32.1181L33.0124 25.3564C33.4273 24.9414 33.4273 24.2687 33.0124 23.8538C32.5975 23.4388 31.9247 23.4388 31.5098 23.8538L25.4994 29.8642L19.489 23.8538C19.0741 23.4388 18.4013 23.4388 17.9864 23.8538C17.5714 24.2687 17.5714 24.9414 17.9864 25.3564L24.7481 32.1181ZM24.4369 15.7834L24.4369 31.3668L26.5619 31.3668L26.5619 15.7834L24.4369 15.7834Z" fill="white"/>
</svg>
