<svg width="36" height="33" viewBox="0 0 36 33" fill="none" xmlns="http://www.w3.org/2000/svg">
<rect y="0.411743" width="36" height="32.4706" rx="7.5" fill="#35FAA0" fill-opacity="0.6"/>
<rect x="8" y="4.91174" width="20" height="22" rx="5" fill="#024C2B"/>
<path d="M20.6389 10.8648V9.96267C20.6389 9.72556 20.45 9.52893 20.2222 9.52893C19.9944 9.52893 19.8056 9.72556 19.8056 9.96267V10.8301H16.1944V9.96267C16.1944 9.72556 16.0056 9.52893 15.7778 9.52893C15.55 9.52893 15.3611 9.72556 15.3611 9.96267V10.8648C13.8611 11.0094 13.1333 11.9405 13.0222 13.3227C13.0111 13.4904 13.1444 13.6292 13.3 13.6292H22.7C22.8611 13.6292 22.9944 13.4846 22.9778 13.3227C22.8667 11.9405 22.1389 11.0094 20.6389 10.8648ZM22.4444 14.4966H13.5556C13.25 14.4966 13 14.7569 13 15.075V18.6374C13 20.3723 13.8333 21.5289 15.7778 21.5289H20.2222C22.1667 21.5289 23 20.3723 23 18.6374V15.075C23 14.7569 22.75 14.4966 22.4444 14.4966ZM16.45 19.3371C16.3944 19.3892 16.3333 19.4297 16.2667 19.4586C16.2 19.4875 16.1278 19.5048 16.0556 19.5048C15.9833 19.5048 15.9111 19.4875 15.8444 19.4586C15.7778 19.4297 15.7167 19.3892 15.6611 19.3371C15.5611 19.2272 15.5 19.0769 15.5 18.9265C15.5 18.7762 15.5611 18.6258 15.6611 18.5159C15.7167 18.4639 15.7778 18.4234 15.8444 18.3945C15.9797 18.3366 16.1314 18.3366 16.2667 18.3945C16.3333 18.4234 16.3944 18.4639 16.45 18.5159C16.55 18.6258 16.6111 18.7762 16.6111 18.9265C16.6111 19.0769 16.55 19.2272 16.45 19.3371ZM16.5667 17.1222C16.5389 17.1916 16.5 17.2552 16.45 17.313C16.3944 17.3651 16.3333 17.4056 16.2667 17.4345C16.2 17.4634 16.1278 17.4807 16.0556 17.4807C15.9833 17.4807 15.9111 17.4634 15.8444 17.4345C15.7778 17.4056 15.7167 17.3651 15.6611 17.313C15.6111 17.2552 15.5722 17.1916 15.5444 17.1222C15.5159 17.0527 15.5008 16.978 15.5 16.9024C15.5 16.8272 15.5167 16.7521 15.5444 16.6827C15.5722 16.6133 15.6111 16.5497 15.6611 16.4918C15.7167 16.4398 15.7778 16.3993 15.8444 16.3704C15.9797 16.3125 16.1314 16.3125 16.2667 16.3704C16.3333 16.3993 16.3944 16.4398 16.45 16.4918C16.5 16.5497 16.5389 16.6133 16.5667 16.6827C16.5944 16.7521 16.6111 16.8272 16.6111 16.9024C16.6111 16.9776 16.5944 17.0528 16.5667 17.1222ZM18.3944 17.313C18.3389 17.3651 18.2778 17.4056 18.2111 17.4345C18.1444 17.4634 18.0722 17.4807 18 17.4807C17.9278 17.4807 17.8556 17.4634 17.7889 17.4345C17.7222 17.4056 17.6611 17.3651 17.6056 17.313C17.5056 17.2031 17.4444 17.0528 17.4444 16.9024C17.4444 16.7521 17.5056 16.6017 17.6056 16.4918C17.6611 16.4398 17.7222 16.3993 17.7889 16.3704C17.9222 16.3068 18.0778 16.3068 18.2111 16.3704C18.2778 16.3993 18.3389 16.4398 18.3944 16.4918C18.4944 16.6017 18.5556 16.7521 18.5556 16.9024C18.5556 17.0528 18.4944 17.2031 18.3944 17.313Z" fill="white"/>
</svg>
