<svg width="18" height="21" viewBox="0 0 18 21" fill="none" xmlns="http://www.w3.org/2000/svg">
<mask id="path-1-inside-1_2058_944" fill="white">
<path d="M4.75 12.4583C4.53333 12.4583 4.35417 12.3874 4.2125 12.2458C4.07083 12.1041 4 11.9249 4 11.7083C4 11.4916 4.07083 11.3124 4.2125 11.1708C4.35417 11.0291 4.53333 10.9583 4.75 10.9583H13.25C13.4667 10.9583 13.6458 11.0291 13.7875 11.1708C13.9292 11.3124 14 11.4916 14 11.7083C14 11.9249 13.9292 12.1041 13.7875 12.2458C13.6458 12.3874 13.4667 12.4583 13.25 12.4583H4.75ZM4.75 16.9583C4.53333 16.9583 4.35417 16.8874 4.2125 16.7458C4.07083 16.6041 4 16.4249 4 16.2083C4 15.9916 4.07083 15.8124 4.2125 15.6708C4.35417 15.5291 4.53333 15.4583 4.75 15.4583H10.225C10.4417 15.4583 10.6208 15.5291 10.7625 15.6708C10.9042 15.8124 10.975 15.9916 10.975 16.2083C10.975 16.4249 10.9042 16.6041 10.7625 16.7458C10.6208 16.8874 10.4417 16.9583 10.225 16.9583H4.75ZM1.5 20.9583C1.1 20.9583 0.75 20.8083 0.45 20.5083C0.15 20.2083 0 19.8583 0 19.4583V3.95825C0 3.55825 0.15 3.20825 0.45 2.90825C0.75 2.60825 1.1 2.45825 1.5 2.45825H3.125V1.75825C3.125 1.52492 3.20417 1.33325 3.3625 1.18325C3.52083 1.03325 3.71667 0.958252 3.95 0.958252C4.18333 0.958252 4.375 1.03325 4.525 1.18325C4.675 1.33325 4.75 1.52492 4.75 1.75825V2.45825H13.25V1.75825C13.25 1.52492 13.3292 1.33325 13.4875 1.18325C13.6458 1.03325 13.8417 0.958252 14.075 0.958252C14.3083 0.958252 14.5 1.03325 14.65 1.18325C14.8 1.33325 14.875 1.52492 14.875 1.75825V2.45825H16.5C16.9 2.45825 17.25 2.60825 17.55 2.90825C17.85 3.20825 18 3.55825 18 3.95825V19.4583C18 19.8583 17.85 20.2083 17.55 20.5083C17.25 20.8083 16.9 20.9583 16.5 20.9583H1.5ZM1.5 19.4583H16.5V8.70825H1.5V19.4583ZM1.5 7.20825H16.5V3.95825H1.5V7.20825Z"/>
</mask>
<path d="M4.75 12.4583C4.53333 12.4583 4.35417 12.3874 4.2125 12.2458C4.07083 12.1041 4 11.9249 4 11.7083C4 11.4916 4.07083 11.3124 4.2125 11.1708C4.35417 11.0291 4.53333 10.9583 4.75 10.9583H13.25C13.4667 10.9583 13.6458 11.0291 13.7875 11.1708C13.9292 11.3124 14 11.4916 14 11.7083C14 11.9249 13.9292 12.1041 13.7875 12.2458C13.6458 12.3874 13.4667 12.4583 13.25 12.4583H4.75ZM4.75 16.9583C4.53333 16.9583 4.35417 16.8874 4.2125 16.7458C4.07083 16.6041 4 16.4249 4 16.2083C4 15.9916 4.07083 15.8124 4.2125 15.6708C4.35417 15.5291 4.53333 15.4583 4.75 15.4583H10.225C10.4417 15.4583 10.6208 15.5291 10.7625 15.6708C10.9042 15.8124 10.975 15.9916 10.975 16.2083C10.975 16.4249 10.9042 16.6041 10.7625 16.7458C10.6208 16.8874 10.4417 16.9583 10.225 16.9583H4.75ZM1.5 20.9583C1.1 20.9583 0.75 20.8083 0.45 20.5083C0.15 20.2083 0 19.8583 0 19.4583V3.95825C0 3.55825 0.15 3.20825 0.45 2.90825C0.75 2.60825 1.1 2.45825 1.5 2.45825H3.125V1.75825C3.125 1.52492 3.20417 1.33325 3.3625 1.18325C3.52083 1.03325 3.71667 0.958252 3.95 0.958252C4.18333 0.958252 4.375 1.03325 4.525 1.18325C4.675 1.33325 4.75 1.52492 4.75 1.75825V2.45825H13.25V1.75825C13.25 1.52492 13.3292 1.33325 13.4875 1.18325C13.6458 1.03325 13.8417 0.958252 14.075 0.958252C14.3083 0.958252 14.5 1.03325 14.65 1.18325C14.8 1.33325 14.875 1.52492 14.875 1.75825V2.45825H16.5C16.9 2.45825 17.25 2.60825 17.55 2.90825C17.85 3.20825 18 3.55825 18 3.95825V19.4583C18 19.8583 17.85 20.2083 17.55 20.5083C17.25 20.8083 16.9 20.9583 16.5 20.9583H1.5ZM1.5 19.4583H16.5V8.70825H1.5V19.4583ZM1.5 7.20825H16.5V3.95825H1.5V7.20825Z" fill="white"/>
<path d="M3.125 2.45825V5.45825H6.125V2.45825H3.125ZM4.75 2.45825H1.75V5.45825H4.75V2.45825ZM13.25 2.45825V5.45825H16.25V2.45825H13.25ZM14.875 2.45825H11.875V5.45825H14.875V2.45825ZM1.5 19.4583H-1.5V22.4583H1.5V19.4583ZM16.5 19.4583V22.4583H19.5V19.4583H16.5ZM16.5 8.70825H19.5V5.70825H16.5V8.70825ZM1.5 8.70825V5.70825H-1.5V8.70825H1.5ZM1.5 7.20825H-1.5V10.2083H1.5V7.20825ZM16.5 7.20825V10.2083H19.5V7.20825H16.5ZM16.5 3.95825H19.5V0.958252H16.5V3.95825ZM1.5 3.95825V0.958252H-1.5V3.95825H1.5ZM4.75 9.45825C4.97245 9.45825 5.25346 9.4956 5.5561 9.61524C5.86337 9.73672 6.12633 9.91694 6.33382 10.1244L2.09118 14.3671C2.84411 15.12 3.80923 15.4583 4.75 15.4583V9.45825ZM6.33382 10.1244C6.54131 10.3319 6.72153 10.5949 6.84301 10.9022C6.96266 11.2048 7 11.4858 7 11.7083H1C1 12.649 1.33825 13.6141 2.09118 14.3671L6.33382 10.1244ZM7 11.7083C7 11.9307 6.96266 12.2117 6.84301 12.5144C6.72153 12.8216 6.54131 13.0846 6.33382 13.2921L2.09118 9.04943C1.33825 9.80236 1 10.7675 1 11.7083H7ZM6.33382 13.2921C6.12633 13.4996 5.86337 13.6798 5.5561 13.8013C5.25346 13.9209 4.97245 13.9583 4.75 13.9583V7.95825C3.80923 7.95825 2.84411 8.2965 2.09118 9.04943L6.33382 13.2921ZM4.75 13.9583H13.25V7.95825H4.75V13.9583ZM13.25 13.9583C13.0276 13.9583 12.7465 13.9209 12.4439 13.8013C12.1366 13.6798 11.8737 13.4996 11.6662 13.2921L15.9088 9.04943C15.1559 8.2965 14.1908 7.95825 13.25 7.95825V13.9583ZM11.6662 13.2921C11.4587 13.0846 11.2785 12.8216 11.157 12.5143C11.0373 12.2117 11 11.9307 11 11.7083H17C17 10.7675 16.6617 9.80236 15.9088 9.04943L11.6662 13.2921ZM11 11.7083C11 11.4858 11.0373 11.2048 11.157 10.9022C11.2785 10.5949 11.4587 10.3319 11.6662 10.1244L15.9088 14.3671C16.6617 13.6141 17 12.649 17 11.7083H11ZM11.6662 10.1244C11.8737 9.91694 12.1366 9.73672 12.4439 9.61524C12.7465 9.4956 13.0276 9.45825 13.25 9.45825V15.4583C14.1908 15.4583 15.1559 15.12 15.9088 14.3671L11.6662 10.1244ZM13.25 9.45825H4.75V15.4583H13.25V9.45825ZM4.75 13.9583C4.97245 13.9583 5.25346 13.9956 5.5561 14.1152C5.86337 14.2367 6.12633 14.4169 6.33382 14.6244L2.09118 18.8671C2.84411 19.62 3.80923 19.9583 4.75 19.9583V13.9583ZM6.33382 14.6244C6.54131 14.8319 6.72153 15.0949 6.84301 15.4022C6.96266 15.7048 7 15.9858 7 16.2083H1C1 17.149 1.33825 18.1141 2.09118 18.8671L6.33382 14.6244ZM7 16.2083C7 16.4307 6.96266 16.7117 6.84301 17.0144C6.72153 17.3216 6.54131 17.5846 6.33382 17.7921L2.09118 13.5494C1.33825 14.3024 1 15.2675 1 16.2083H7ZM6.33382 17.7921C6.12633 17.9996 5.86337 18.1798 5.5561 18.3013C5.25346 18.4209 4.97245 18.4583 4.75 18.4583V12.4583C3.80923 12.4583 2.84411 12.7965 2.09118 13.5494L6.33382 17.7921ZM4.75 18.4583H10.225V12.4583H4.75V18.4583ZM10.225 18.4583C10.0026 18.4583 9.72154 18.4209 9.4189 18.3013C9.11163 18.1798 8.84867 17.9996 8.64118 17.7921L12.8838 13.5494C12.1309 12.7965 11.1658 12.4583 10.225 12.4583V18.4583ZM8.64118 17.7921C8.43369 17.5846 8.25347 17.3216 8.13199 17.0144C8.01235 16.7117 7.975 16.4307 7.975 16.2083H13.975C13.975 15.2675 13.6367 14.3024 12.8838 13.5494L8.64118 17.7921ZM7.975 16.2083C7.975 15.9858 8.01235 15.7048 8.13199 15.4021C8.25347 15.0949 8.43369 14.8319 8.64118 14.6244L12.8838 18.8671C13.6367 18.1142 13.975 17.149 13.975 16.2083H7.975ZM8.64118 14.6244C8.84867 14.4169 9.11163 14.2367 9.4189 14.1152C9.72154 13.9956 10.0026 13.9583 10.225 13.9583V19.9583C11.1658 19.9583 12.1309 19.62 12.8838 18.8671L8.64118 14.6244ZM10.225 13.9583H4.75V19.9583H10.225V13.9583ZM1.5 17.9583C1.68541 17.9583 1.90211 17.9953 2.11926 18.0883C2.33295 18.1799 2.48221 18.2978 2.57132 18.3869L-1.67132 22.6296C-0.84659 23.4543 0.252336 23.9583 1.5 23.9583V17.9583ZM2.57132 18.3869C2.66043 18.476 2.77835 18.6253 2.86993 18.839C2.963 19.0561 3 19.2728 3 19.4583H-3C-3 20.7059 -2.49605 21.8048 -1.67132 22.6296L2.57132 18.3869ZM3 19.4583V3.95825H-3V19.4583H3ZM3 3.95825C3 4.14366 2.963 4.36036 2.86994 4.57751C2.77836 4.7912 2.66043 4.94046 2.57132 5.02957L-1.67132 0.786932C-2.49605 1.61166 -3 2.71059 -3 3.95825H3ZM2.57132 5.02957C2.48221 5.11868 2.33294 5.23661 2.11926 5.32819C1.90211 5.42125 1.6854 5.45825 1.5 5.45825V-0.541748C0.252339 -0.541748 -0.846587 -0.0378012 -1.67132 0.786932L2.57132 5.02957ZM1.5 5.45825H3.125V-0.541748H1.5V5.45825ZM6.125 2.45825V1.75825H0.125V2.45825H6.125ZM6.125 1.75825C6.125 1.98548 6.08525 2.27467 5.95716 2.58478C5.82723 2.89935 5.63693 3.16103 5.42573 3.36111L1.29927 -0.994606C0.497821 -0.235343 0.125 0.765382 0.125 1.75825H6.125ZM5.42573 3.36111C5.23063 3.54595 4.98572 3.70706 4.70107 3.81607C4.42 3.92371 4.15891 3.95825 3.95 3.95825V-2.04175C3.00792 -2.04175 2.05614 -1.71165 1.29927 -0.994606L5.42573 3.36111ZM3.95 3.95825C3.74222 3.95825 3.47148 3.92403 3.17555 3.80823C2.87403 3.69024 2.61214 3.51303 2.40368 3.30457L6.64632 -0.938069C5.8748 -1.70958 4.89161 -2.04175 3.95 -2.04175V3.95825ZM2.40368 3.30457C2.19522 3.09612 2.01801 2.83422 1.90002 2.5327C1.78422 2.23677 1.75 1.96603 1.75 1.75825H7.75C7.75 0.816637 7.41784 -0.166553 6.64632 -0.938069L2.40368 3.30457ZM1.75 1.75825V2.45825H7.75V1.75825H1.75ZM4.75 5.45825H13.25V-0.541748H4.75V5.45825ZM16.25 2.45825V1.75825H10.25V2.45825H16.25ZM16.25 1.75825C16.25 1.98548 16.2102 2.27467 16.0822 2.58478C15.9522 2.89934 15.7619 3.16103 15.5507 3.36111L11.4243 -0.994606C10.6228 -0.235336 10.25 0.765391 10.25 1.75825H16.25ZM15.5507 3.36111C15.3556 3.54595 15.1107 3.70706 14.8261 3.81607C14.545 3.92371 14.2839 3.95825 14.075 3.95825V-2.04175C13.1329 -2.04175 12.1811 -1.71165 11.4243 -0.994606L15.5507 3.36111ZM14.075 3.95825C13.8672 3.95825 13.5965 3.92403 13.3005 3.80823C12.999 3.69024 12.7371 3.51303 12.5287 3.30457L16.7713 -0.938069C15.9998 -1.70958 15.0166 -2.04175 14.075 -2.04175V3.95825ZM12.5287 3.30457C12.3202 3.09612 12.143 2.83422 12.025 2.5327C11.9092 2.23678 11.875 1.96603 11.875 1.75825H17.875C17.875 0.816632 17.5428 -0.166556 16.7713 -0.938069L12.5287 3.30457ZM11.875 1.75825V2.45825H17.875V1.75825H11.875ZM14.875 5.45825H16.5V-0.541748H14.875V5.45825ZM16.5 5.45825C16.3146 5.45825 16.0979 5.42125 15.8807 5.32819C15.6671 5.23661 15.5178 5.11868 15.4287 5.02957L19.6713 0.786932C18.8466 -0.0378001 17.7477 -0.541748 16.5 -0.541748V5.45825ZM15.4287 5.02957C15.3396 4.94046 15.2216 4.7912 15.1301 4.57751C15.037 4.36036 15 4.14366 15 3.95825H21C21 2.71059 20.496 1.61166 19.6713 0.786932L15.4287 5.02957ZM15 3.95825V19.4583H21V3.95825H15ZM15 19.4583C15 19.2728 15.037 19.0561 15.1301 18.839C15.2216 18.6253 15.3396 18.476 15.4287 18.3869L19.6713 22.6296C20.496 21.8048 21 20.7059 21 19.4583H15ZM15.4287 18.3869C15.5178 18.2978 15.6671 18.1799 15.8807 18.0883C16.0979 17.9953 16.3146 17.9583 16.5 17.9583V23.9583C17.7477 23.9583 18.8466 23.4543 19.6713 22.6296L15.4287 18.3869ZM16.5 17.9583H1.5V23.9583H16.5V17.9583ZM1.5 22.4583H16.5V16.4583H1.5V22.4583ZM19.5 19.4583V8.70825H13.5V19.4583H19.5ZM16.5 5.70825H1.5V11.7083H16.5V5.70825ZM-1.5 8.70825V19.4583H4.5V8.70825H-1.5ZM1.5 10.2083H16.5V4.20825H1.5V10.2083ZM19.5 7.20825V3.95825H13.5V7.20825H19.5ZM16.5 0.958252H1.5V6.95825H16.5V0.958252ZM-1.5 3.95825V7.20825H4.5V3.95825H-1.5Z" fill="white" mask="url(#path-1-inside-1_2058_944)"/>
</svg>
