<svg width="18" height="20" viewBox="0 0 18 20" fill="none" xmlns="http://www.w3.org/2000/svg">
<mask id="path-1-inside-1_2058_2515" fill="white">
<path d="M4.75 11.5C4.53333 11.5 4.35417 11.4292 4.2125 11.2875C4.07083 11.1458 4 10.9667 4 10.75C4 10.5333 4.07083 10.3542 4.2125 10.2125C4.35417 10.0708 4.53333 10 4.75 10H13.25C13.4667 10 13.6458 10.0708 13.7875 10.2125C13.9292 10.3542 14 10.5333 14 10.75C14 10.9667 13.9292 11.1458 13.7875 11.2875C13.6458 11.4292 13.4667 11.5 13.25 11.5H4.75ZM4.75 16C4.53333 16 4.35417 15.9292 4.2125 15.7875C4.07083 15.6458 4 15.4667 4 15.25C4 15.0333 4.07083 14.8542 4.2125 14.7125C4.35417 14.5708 4.53333 14.5 4.75 14.5H10.225C10.4417 14.5 10.6208 14.5708 10.7625 14.7125C10.9042 14.8542 10.975 15.0333 10.975 15.25C10.975 15.4667 10.9042 15.6458 10.7625 15.7875C10.6208 15.9292 10.4417 16 10.225 16H4.75ZM1.5 20C1.1 20 0.75 19.85 0.45 19.55C0.15 19.25 0 18.9 0 18.5V3C0 2.6 0.15 2.25 0.45 1.95C0.75 1.65 1.1 1.5 1.5 1.5H3.125V0.8C3.125 0.566667 3.20417 0.375 3.3625 0.225C3.52083 0.0749999 3.71667 0 3.95 0C4.18333 0 4.375 0.0749999 4.525 0.225C4.675 0.375 4.75 0.566667 4.75 0.8V1.5H13.25V0.8C13.25 0.566667 13.3292 0.375 13.4875 0.225C13.6458 0.0749999 13.8417 0 14.075 0C14.3083 0 14.5 0.0749999 14.65 0.225C14.8 0.375 14.875 0.566667 14.875 0.8V1.5H16.5C16.9 1.5 17.25 1.65 17.55 1.95C17.85 2.25 18 2.6 18 3V18.5C18 18.9 17.85 19.25 17.55 19.55C17.25 19.85 16.9 20 16.5 20H1.5ZM1.5 18.5H16.5V7.75H1.5V18.5ZM1.5 6.25H16.5V3H1.5V6.25Z"/>
</mask>
<path d="M3.125 1.5V4.5H6.125V1.5H3.125ZM4.75 1.5H1.75V4.5H4.75V1.5ZM13.25 1.5V4.5H16.25V1.5H13.25ZM14.875 1.5H11.875V4.5H14.875V1.5ZM1.5 18.5H-1.5V21.5H1.5V18.5ZM16.5 18.5V21.5H19.5V18.5H16.5ZM16.5 7.75H19.5V4.75H16.5V7.75ZM1.5 7.75V4.75H-1.5V7.75H1.5ZM1.5 6.25H-1.5V9.25H1.5V6.25ZM16.5 6.25V9.25H19.5V6.25H16.5ZM16.5 3H19.5V0H16.5V3ZM1.5 3V0H-1.5V3H1.5ZM4.75 8.5C4.97245 8.5 5.25346 8.53734 5.5561 8.65699C5.86337 8.77847 6.12633 8.95869 6.33382 9.16618L2.09118 13.4088C2.84411 14.1617 3.80923 14.5 4.75 14.5V8.5ZM6.33382 9.16618C6.54131 9.37367 6.72153 9.63663 6.84301 9.9439C6.96266 10.2465 7 10.5276 7 10.75H1C1 11.6908 1.33825 12.6559 2.09118 13.4088L6.33382 9.16618ZM7 10.75C7 10.9724 6.96266 11.2535 6.84301 11.5561C6.72153 11.8634 6.54131 12.1263 6.33382 12.3338L2.09118 8.09118C1.33825 8.8441 1 9.80923 1 10.75H7ZM6.33382 12.3338C6.12633 12.5413 5.86337 12.7215 5.5561 12.843C5.25346 12.9627 4.97245 13 4.75 13V7C3.80923 7 2.84411 7.33825 2.09118 8.09118L6.33382 12.3338ZM4.75 13H13.25V7H4.75V13ZM13.25 13C13.0276 13 12.7465 12.9627 12.4439 12.843C12.1366 12.7215 11.8737 12.5413 11.6662 12.3338L15.9088 8.09118C15.1559 7.33825 14.1908 7 13.25 7V13ZM11.6662 12.3338C11.4587 12.1263 11.2785 11.8634 11.157 11.5561C11.0373 11.2535 11 10.9724 11 10.75H17C17 9.80924 16.6617 8.84411 15.9088 8.09118L11.6662 12.3338ZM11 10.75C11 10.5276 11.0373 10.2465 11.157 9.9439C11.2785 9.63663 11.4587 9.37367 11.6662 9.16618L15.9088 13.4088C16.6617 12.6559 17 11.6908 17 10.75H11ZM11.6662 9.16618C11.8737 8.95869 12.1366 8.77847 12.4439 8.65699C12.7465 8.53734 13.0276 8.5 13.25 8.5V14.5C14.1908 14.5 15.1559 14.1617 15.9088 13.4088L11.6662 9.16618ZM13.25 8.5H4.75V14.5H13.25V8.5ZM4.75 13C4.97245 13 5.25346 13.0373 5.5561 13.157C5.86337 13.2785 6.12633 13.4587 6.33382 13.6662L2.09118 17.9088C2.84411 18.6617 3.80923 19 4.75 19V13ZM6.33382 13.6662C6.54131 13.8737 6.72153 14.1366 6.84301 14.4439C6.96266 14.7465 7 15.0276 7 15.25H1C1 16.1908 1.33825 17.1559 2.09118 17.9088L6.33382 13.6662ZM7 15.25C7 15.4724 6.96266 15.7535 6.84301 16.0561C6.72153 16.3634 6.54131 16.6263 6.33382 16.8338L2.09118 12.5912C1.33825 13.3441 1 14.3092 1 15.25H7ZM6.33382 16.8338C6.12633 17.0413 5.86337 17.2215 5.5561 17.343C5.25346 17.4627 4.97245 17.5 4.75 17.5V11.5C3.80923 11.5 2.84411 11.8383 2.09118 12.5912L6.33382 16.8338ZM4.75 17.5H10.225V11.5H4.75V17.5ZM10.225 17.5C10.0026 17.5 9.72154 17.4627 9.4189 17.343C9.11163 17.2215 8.84867 17.0413 8.64118 16.8338L12.8838 12.5912C12.1309 11.8383 11.1658 11.5 10.225 11.5V17.5ZM8.64118 16.8338C8.43369 16.6263 8.25347 16.3634 8.13199 16.0561C8.01235 15.7535 7.975 15.4725 7.975 15.25H13.975C13.975 14.3092 13.6367 13.3441 12.8838 12.5912L8.64118 16.8338ZM7.975 15.25C7.975 15.0275 8.01235 14.7465 8.13199 14.4439C8.25347 14.1366 8.43369 13.8737 8.64118 13.6662L12.8838 17.9088C13.6367 17.1559 13.975 16.1908 13.975 15.25H7.975ZM8.64118 13.6662C8.84867 13.4587 9.11163 13.2785 9.4189 13.157C9.72154 13.0373 10.0026 13 10.225 13V19C11.1658 19 12.1309 18.6617 12.8838 17.9088L8.64118 13.6662ZM10.225 13H4.75V19H10.225V13ZM1.5 17C1.68541 17 1.90211 17.037 2.11926 17.1301C2.33295 17.2216 2.48221 17.3396 2.57132 17.4287L-1.67132 21.6713C-0.84659 22.496 0.252336 23 1.5 23V17ZM2.57132 17.4287C2.66043 17.5178 2.77835 17.6671 2.86993 17.8807C2.963 18.0979 3 18.3146 3 18.5H-3C-3 19.7477 -2.49605 20.8466 -1.67132 21.6713L2.57132 17.4287ZM3 18.5V3H-3V18.5H3ZM3 3C3 3.1854 2.963 3.40211 2.86994 3.61926C2.77836 3.83294 2.66043 3.98221 2.57132 4.07132L-1.67132 -0.17132C-2.49605 0.653413 -3 1.75234 -3 3H3ZM2.57132 4.07132C2.48221 4.16043 2.33294 4.27836 2.11926 4.36994C1.90211 4.463 1.6854 4.5 1.5 4.5V-1.5C0.252339 -1.5 -0.846587 -0.996053 -1.67132 -0.17132L2.57132 4.07132ZM1.5 4.5H3.125V-1.5H1.5V4.5ZM6.125 1.5V0.8H0.125V1.5H6.125ZM6.125 0.8C6.125 1.02723 6.08525 1.31642 5.95716 1.62653C5.82723 1.94109 5.63693 2.20278 5.42573 2.40286L1.29927 -1.95286C0.497821 -1.19359 0.125 -0.19287 0.125 0.8H6.125ZM5.42573 2.40286C5.23063 2.5877 4.98572 2.7488 4.70107 2.85782C4.42 2.96546 4.15891 3 3.95 3V-3C3.00792 -3 2.05614 -2.6699 1.29927 -1.95286L5.42573 2.40286ZM3.95 3C3.74222 3 3.47148 2.96578 3.17555 2.84998C2.87403 2.73199 2.61214 2.55478 2.40368 2.34632L6.64632 -1.89632C5.8748 -2.66784 4.89161 -3 3.95 -3V3ZM2.40368 2.34632C2.19522 2.13786 2.01801 1.87597 1.90002 1.57445C1.78422 1.27852 1.75 1.00778 1.75 0.8H7.75C7.75 -0.141615 7.41784 -1.1248 6.64632 -1.89632L2.40368 2.34632ZM1.75 0.8V1.5H7.75V0.8H1.75ZM4.75 4.5H13.25V-1.5H4.75V4.5ZM16.25 1.5V0.8H10.25V1.5H16.25ZM16.25 0.8C16.25 1.02723 16.2102 1.31642 16.0822 1.62653C15.9522 1.94109 15.7619 2.20278 15.5507 2.40286L11.4243 -1.95286C10.6228 -1.19359 10.25 -0.192861 10.25 0.8H16.25ZM15.5507 2.40286C15.3556 2.5877 15.1107 2.74881 14.8261 2.85782C14.545 2.96546 14.2839 3 14.075 3V-3C13.1329 -3 12.1811 -2.66991 11.4243 -1.95286L15.5507 2.40286ZM14.075 3C13.8672 3 13.5965 2.96578 13.3005 2.84998C12.999 2.73199 12.7371 2.55477 12.5287 2.34632L16.7713 -1.89632C15.9998 -2.66783 15.0166 -3 14.075 -3V3ZM12.5287 2.34632C12.3202 2.13787 12.143 1.87597 12.025 1.57445C11.9092 1.27852 11.875 1.00778 11.875 0.8H17.875C17.875 -0.14162 17.5428 -1.12481 16.7713 -1.89632L12.5287 2.34632ZM11.875 0.8V1.5H17.875V0.8H11.875ZM14.875 4.5H16.5V-1.5H14.875V4.5ZM16.5 4.5C16.3146 4.5 16.0979 4.463 15.8807 4.36993C15.6671 4.27836 15.5178 4.16043 15.4287 4.07132L19.6713 -0.17132C18.8466 -0.996052 17.7477 -1.5 16.5 -1.5V4.5ZM15.4287 4.07132C15.3396 3.98221 15.2216 3.83295 15.1301 3.61926C15.037 3.40211 15 3.18541 15 3H21C21 1.75234 20.496 0.65341 19.6713 -0.17132L15.4287 4.07132ZM15 3V18.5H21V3H15ZM15 18.5C15 18.3146 15.037 18.0979 15.1301 17.8807C15.2216 17.6671 15.3396 17.5178 15.4287 17.4287L19.6713 21.6713C20.496 20.8466 21 19.7477 21 18.5H15ZM15.4287 17.4287C15.5178 17.3396 15.6671 17.2216 15.8807 17.1301C16.0979 17.037 16.3146 17 16.5 17V23C17.7477 23 18.8466 22.496 19.6713 21.6713L15.4287 17.4287ZM16.5 17H1.5V23H16.5V17ZM1.5 21.5H16.5V15.5H1.5V21.5ZM19.5 18.5V7.75H13.5V18.5H19.5ZM16.5 4.75H1.5V10.75H16.5V4.75ZM-1.5 7.75V18.5H4.5V7.75H-1.5ZM1.5 9.25H16.5V3.25H1.5V9.25ZM19.5 6.25V3H13.5V6.25H19.5ZM16.5 0H1.5V6H16.5V0ZM-1.5 3V6.25H4.5V3H-1.5Z" fill="#525252" mask="url(#path-1-inside-1_2058_2515)"/>
</svg>
