<svg width="20" height="20" viewBox="0 0 20 20" fill="none" xmlns="http://www.w3.org/2000/svg">
<path d="M18.6241 2.55059H16.1411V1.30859C16.151 1.14321 16.1257 0.977613 16.067 0.822703C16.0082 0.667794 15.9173 0.527085 15.8003 0.409842C15.6832 0.292599 15.5427 0.201481 15.3879 0.142489C15.233 0.0834977 15.0675 0.0579697 14.9021 0.0675866H13.6581C13.4925 0.0576755 13.3268 0.0829852 13.1717 0.141846C13.0167 0.200706 12.8758 0.291779 12.7586 0.409054C12.6413 0.52633 12.5502 0.667141 12.4914 0.822198C12.4325 0.977255 12.4072 1.14303 12.4171 1.30859V2.55059H7.4511V1.30859C7.46102 1.14294 7.43569 0.977075 7.37677 0.821945C7.31785 0.666815 7.22668 0.525951 7.1093 0.40866C6.99191 0.291368 6.85098 0.200317 6.6958 0.141523C6.54062 0.0827286 6.37473 0.0575282 6.2091 0.0675866H4.9681C4.80246 0.0575282 4.63657 0.0827286 4.48139 0.141523C4.32622 0.200317 4.18528 0.291368 4.06789 0.40866C3.95051 0.525951 3.85934 0.666815 3.80042 0.821945C3.74151 0.977075 3.71617 1.14294 3.7261 1.30859V2.55059H1.2431C1.07754 2.54068 0.911764 2.56599 0.756708 2.62485C0.601651 2.68371 0.460839 2.77478 0.343564 2.89205C0.226288 3.00933 0.135216 3.15014 0.0763554 3.3052C0.017495 3.46025 -0.00781465 3.62603 0.00209638 3.79159V18.6916C-0.00781465 18.8571 0.017495 19.0229 0.0763554 19.178C0.135216 19.333 0.226288 19.4738 0.343564 19.5911C0.460839 19.7084 0.601651 19.7995 0.756708 19.8583C0.911764 19.9172 1.07754 19.9425 1.2431 19.9326H18.6231C18.7887 19.9425 18.9544 19.9172 19.1095 19.8583C19.2645 19.7995 19.4054 19.7084 19.5226 19.5911C19.6399 19.4738 19.731 19.333 19.7898 19.178C19.8487 19.0229 19.874 18.8571 19.8641 18.6916V3.79159C19.874 3.62612 19.8487 3.46043 19.7899 3.30545C19.7311 3.15047 19.6401 3.00971 19.523 2.89245C19.4058 2.77519 19.2651 2.68409 19.1102 2.62517C18.9552 2.56624 18.7896 2.54082 18.6241 2.55059ZM17.3821 17.4476H2.4851V8.75759H17.3851L17.3821 17.4476Z" fill="white"/>
</svg>
