<svg width="51" height="47" viewBox="0 0 51 47" fill="none" xmlns="http://www.w3.org/2000/svg">
<rect y="0.199951" width="51" height="46" rx="10.625" fill="#37BCF7" fill-opacity="0.6"/>
<rect x="11.3334" y="6.57495" width="28.3333" height="31.1667" rx="7.08333" fill="#37BCF7"/>
<rect width="11.3333" height="18.4167" transform="matrix(-1 0 0 -1 31.1667 31.3666)" fill="#37BCF7"/>
<rect x="31.1667" y="31.3666" width="11.3333" height="2.125" rx="1.0625" transform="rotate(-180 31.1667 31.3666)" fill="white"/>
<path d="M26.252 12.1985C25.8371 11.7836 25.1644 11.7836 24.7494 12.1985L17.9877 18.9602C17.5728 19.3751 17.5728 20.0479 17.9877 20.4628C18.4027 20.8778 19.0754 20.8778 19.4903 20.4628L25.5007 14.4524L31.5111 20.4628C31.9261 20.8778 32.5988 20.8778 33.0137 20.4628C33.4287 20.0479 33.4287 19.3751 33.0137 18.9602L26.252 12.1985ZM26.5632 28.5331L26.5632 12.9498L24.4382 12.9498L24.4382 28.5331L26.5632 28.5331Z" fill="white"/>
</svg>
