<svg width="12" height="16" viewBox="0 0 12 16" fill="none" xmlns="http://www.w3.org/2000/svg">
<path d="M5.99064 0.956006C5.83194 0.958486 5.68071 1.02383 5.57013 1.13769C5.45956 1.25156 5.39868 1.40464 5.40085 1.56334V1.86292H2.10555C2.02618 1.86184 1.94739 1.87654 1.87376 1.90617C1.80012 1.93579 1.7331 1.97976 1.6766 2.0355C1.62009 2.09124 1.57523 2.15765 1.5446 2.23088C1.51398 2.30411 1.49821 2.38269 1.49821 2.46206H0.60768C0.528286 2.46094 0.449461 2.47561 0.375785 2.50522C0.302109 2.53482 0.235051 2.57878 0.17851 2.63452C0.121969 2.69027 0.0770711 2.7567 0.0464261 2.82995C0.0157811 2.9032 0 2.98181 0 3.06121C0 3.14061 0.0157811 3.21922 0.0464261 3.29247C0.0770711 3.36572 0.121969 3.43215 0.17851 3.4879C0.235051 3.54365 0.302109 3.5876 0.375785 3.61721C0.449461 3.64681 0.528286 3.66148 0.60768 3.66036H11.3923C11.4717 3.66148 11.5505 3.64681 11.6242 3.61721C11.6979 3.5876 11.7649 3.54365 11.8215 3.4879C11.878 3.43215 11.9229 3.36572 11.9536 3.29247C11.9842 3.21922 12 3.14061 12 3.06121C12 2.98181 11.9842 2.9032 11.9536 2.82995C11.9229 2.7567 11.878 2.69027 11.8215 2.63452C11.7649 2.57878 11.6979 2.53482 11.6242 2.50522C11.5505 2.47561 11.4717 2.46094 11.3923 2.46206H10.5018C10.5018 2.38269 10.486 2.30411 10.4554 2.23088C10.4248 2.15765 10.3799 2.09124 10.3234 2.0355C10.2669 1.97976 10.1999 1.93579 10.1262 1.90617C10.0526 1.87654 9.97382 1.86184 9.89445 1.86292H6.59915V1.56334C6.60024 1.48318 6.58525 1.40362 6.55504 1.32936C6.52483 1.2551 6.48003 1.18766 6.42329 1.13103C6.36655 1.0744 6.29902 1.02973 6.22471 0.999663C6.15039 0.969599 6.0708 0.954754 5.99064 0.956006ZM0.60768 4.85865L1.68193 13.9863C1.75263 14.5896 2.26333 15.0441 2.87086 15.0441H9.12914C9.73667 15.0441 10.2468 14.5896 10.3181 13.9863L11.3923 4.85865H0.60768Z" fill="#E82910"/>
</svg>
