<svg width="26" height="27" viewBox="0 0 26 27" fill="none" xmlns="http://www.w3.org/2000/svg">
<path d="M24.5903 14.1461H20.2403C19.0153 14.1461 17.9278 14.8211 17.3778 15.9211L16.3278 17.9961C16.0778 18.4961 15.5778 18.8086 15.0278 18.8086H10.9278C10.5403 18.8086 9.99033 18.7211 9.62783 17.9961L8.57783 15.9336C8.31208 15.4015 7.90367 14.9537 7.3982 14.6403C6.89273 14.3269 6.31009 14.1601 5.71533 14.1586H1.34033C0.852832 14.1586 0.465332 14.5461 0.465332 15.0336V19.1086C0.465332 23.6461 3.19033 26.3586 7.74033 26.3586H18.2153C22.5028 26.3586 25.1403 24.0086 25.4653 19.8336V15.0211C25.4653 14.5461 25.0778 14.1461 24.5903 14.1461ZM13.9028 3.61857L14.8028 4.51857C14.9903 4.70607 15.2278 4.79357 15.4653 4.79357C15.7028 4.79357 15.9403 4.70607 16.1278 4.51857C16.4903 4.15607 16.4903 3.55607 16.1278 3.19357L13.6278 0.693567C13.6153 0.681067 13.6028 0.681067 13.6028 0.668567C13.5215 0.592089 13.4287 0.528822 13.3278 0.481067C13.3153 0.481067 13.3153 0.481067 13.3028 0.468567C13.2028 0.431067 13.1028 0.418567 13.0028 0.406067H12.9028C12.8278 0.406067 12.7528 0.431067 12.6778 0.456067C12.6403 0.468567 12.6153 0.481067 12.5903 0.493567C12.4903 0.543567 12.3903 0.593567 12.3153 0.681067L9.81533 3.18107C9.45283 3.54357 9.45283 4.14357 9.81533 4.50607C10.1778 4.86857 10.7778 4.86857 11.1403 4.50607L12.0403 3.60607V5.10607H13.9153V3.61857H13.9028Z" fill="black"/>
<path d="M25.4653 12.371V12.421C25.1845 12.3207 24.8885 12.27 24.5903 12.271H20.2403C18.3028 12.271 16.5653 13.346 15.7028 15.071L14.7653 16.921H11.1903L10.2528 15.0835C9.83641 14.2363 9.19011 13.5234 8.38775 13.026C7.58538 12.5287 6.65932 12.2671 5.71533 12.271H1.34033C1.04033 12.271 0.740332 12.321 0.465332 12.421V12.371C0.465332 7.82102 3.17783 5.10852 7.72783 5.10852H12.0278V10.1085C12.0278 10.621 12.4528 11.046 12.9653 11.046C13.4778 11.046 13.9028 10.621 13.9028 10.1085V5.10852H18.2028C22.7528 5.10852 25.4653 7.82102 25.4653 12.371Z" fill="black"/>
</svg>
