<svg width="20" height="20" viewBox="0 0 20 20" fill="none" xmlns="http://www.w3.org/2000/svg">
<path d="M13.4748 8.38332H6.52477C5.54144 8.38332 5.19977 7.72499 5.77477 6.92499L9.24978 2.05832C9.65811 1.47499 10.3414 1.47499 10.7498 2.05832L14.2248 6.92499C14.7998 7.72499 14.4581 8.38332 13.4748 8.38332Z" fill="black"/>
<path d="M14.658 14.9992H5.34133C4.02467 14.9992 3.57467 14.1242 4.34967 13.0575L7.67467 8.38251H12.3247L15.6497 13.0575C16.4247 14.1242 15.9747 14.9992 14.658 14.9992ZM10.6247 15V18.3333C10.6247 18.675 10.3413 18.9583 9.99967 18.9583C9.658 18.9583 9.37467 18.675 9.37467 18.3333V15H10.6247Z" fill="black"/>
</svg>
