<svg width="24" height="24" viewBox="0 0 24 24" fill="none" xmlns="http://www.w3.org/2000/svg">
<path d="M22.6324 7.56487L14.3177 0.790275C13.0339 -0.261378 10.9582 -0.261378 9.68637 0.778046L1.37163 7.56487C0.435768 8.32304 -0.164142 9.92498 0.0398277 11.1234L1.63559 20.8573C1.92354 22.5937 3.5553 24 5.28304 24H18.721C20.4367 24 22.0805 22.5815 22.3685 20.8573L23.9642 11.1234C24.1562 9.92498 23.5563 8.32304 22.6324 7.56487ZM12.002 16.2838C11.2065 16.2838 10.4435 15.9617 9.88102 15.3884C9.3185 14.8151 9.00247 14.0375 9.00247 13.2267C9.00247 12.4159 9.3185 11.6383 9.88102 11.065C10.4435 10.4916 11.2065 10.1695 12.002 10.1695C12.7976 10.1695 13.5605 10.4916 14.123 11.065C14.6855 11.6383 15.0016 12.4159 15.0016 13.2267C15.0016 14.0375 14.6855 14.8151 14.123 15.3884C13.5605 15.9617 12.7976 16.2838 12.002 16.2838Z" fill="#2CA9F2"/>
</svg>
