<svg width="22" height="23" viewBox="0 0 22 23" fill="none" xmlns="http://www.w3.org/2000/svg">
<path d="M19.606 7.1484L19.6087 7.15063C20.1255 7.57474 20.4989 8.18197 20.7241 8.7837C20.9497 9.38639 21.0665 10.0896 20.9606 10.7507L20.96 10.7543L19.7632 18.0547L19.7627 18.0577C19.4688 19.8177 17.8315 21.25 16.0408 21.25H5.96228C4.16339 21.25 2.53385 19.8276 2.24016 18.0566L2.23986 18.0547L1.04349 10.757C0.931305 10.0934 1.04602 9.38789 1.27218 8.7837C1.49829 8.17968 1.87517 7.57181 2.39768 7.1479C2.3982 7.14748 2.39872 7.14706 2.39924 7.14664L8.63196 2.05924L8.63244 2.05884L9.26478 2.83353C10.2186 2.05397 11.7754 2.05397 12.7383 2.84271L19.606 7.1484ZM19.606 7.1484L13.3719 2.06912C13.3716 2.06883 13.3712 2.06854 13.3709 2.06825L19.606 7.1484ZM11.0015 13.4629C10.6763 13.4629 10.3604 13.3314 10.1246 13.0909C9.88805 12.8499 9.75186 12.519 9.75186 12.17C9.75186 11.8211 9.88805 11.4901 10.1246 11.2491C10.3604 11.0087 10.6763 10.8772 11.0015 10.8772C11.3267 10.8772 11.6426 11.0087 11.8785 11.2491C12.115 11.4901 12.2512 11.8211 12.2512 12.17C12.2512 12.519 12.115 12.8499 11.8785 13.0909C11.6426 13.3314 11.3267 13.4629 11.0015 13.4629Z" stroke="#525252" stroke-width="2"/>
</svg>
