<svg width="28" height="28" viewBox="0 0 28 28" fill="none" xmlns="http://www.w3.org/2000/svg">
<path d="M25.2668 8.79185L25.2641 8.78962L16.9514 2.01669C16.951 2.01639 16.9506 2.01608 16.9502 2.01578C15.3 0.664925 12.6957 0.662053 11.054 2.00335C11.054 2.00341 11.0539 2.00346 11.0538 2.00352C11.0537 2.0036 11.0536 2.00367 11.0536 2.00375L2.74214 8.78786C2.74163 8.78827 2.74113 8.78868 2.74062 8.7891C2.10109 9.30779 1.62822 10.0632 1.34176 10.8285C1.05523 11.5939 0.915757 12.4744 1.05346 13.2879C1.05364 13.289 1.05382 13.2901 1.054 13.2912L2.64876 23.0191L2.64906 23.0209C3.01474 25.226 5.05222 27 7.28304 27H20.721C22.9407 27 24.9889 25.213 25.3548 23.022L25.3553 23.0191L26.951 13.2852L26.9516 13.2815C27.0815 12.4706 26.9393 11.5924 26.6533 10.8285C26.3677 10.0655 25.8991 9.31073 25.2668 8.79185ZM14.002 17.2838C13.4779 17.2838 12.9713 17.0718 12.5948 16.688C12.2177 16.3037 12.0025 15.7783 12.0025 15.2267C12.0025 14.675 12.2177 14.1497 12.5948 13.7653C12.9713 13.3816 13.4779 13.1695 14.002 13.1695C14.5261 13.1695 15.0327 13.3816 15.4092 13.7653C15.7864 14.1497 16.0016 14.675 16.0016 15.2267C16.0016 15.7783 15.7864 16.3037 15.4092 16.688C15.0327 17.0718 14.5261 17.2838 14.002 17.2838Z" stroke="#525252" stroke-width="2"/>
</svg>
