<svg width="18" height="19" viewBox="0 0 18 19" fill="none" xmlns="http://www.w3.org/2000/svg">
<path d="M16.9743 6.00178L10.7383 0.920831C9.7754 0.132092 8.21863 0.132092 7.26478 0.91166L1.02872 6.00178C0.326826 6.57041 -0.123106 7.77186 0.0298708 8.67065L1.22669 15.9711C1.44266 17.2734 2.66647 18.3281 3.96228 18.3281H14.0408C15.3276 18.3281 16.5604 17.2642 16.7763 15.9711L17.9732 8.67065C18.1171 7.77186 17.6672 6.57041 16.9743 6.00178ZM9.00152 12.541C8.40487 12.541 7.83266 12.2994 7.41077 11.8694C6.98887 11.4394 6.75186 10.8562 6.75186 10.2481C6.75186 9.64003 6.98887 9.05684 7.41077 8.62685C7.83266 8.19685 8.40487 7.95529 9.00152 7.95529C9.59816 7.95529 10.1704 8.19685 10.5923 8.62685C11.0142 9.05684 11.2512 9.64003 11.2512 10.2481C11.2512 10.8562 11.0142 11.4394 10.5923 11.8694C10.1704 12.2994 9.59816 12.541 9.00152 12.541Z" fill="white"/>
</svg>
