<svg width="19" height="20" viewBox="0 0 19 20" fill="none" xmlns="http://www.w3.org/2000/svg">
<path d="M4.77818 2.93216C6.176 1.99832 7.81933 1.49993 9.50038 1.5L4.77818 2.93216ZM4.77818 2.93216C3.38027 3.86606 2.29069 5.19353 1.64723 6.74669M4.77818 2.93216L1.64723 6.74669M14.8043 4.69618L15.5114 3.9891C16.3007 4.7785 16.9268 5.71569 17.3538 6.74712C17.7807 7.77845 18.0003 8.88379 18 10L14.8043 4.69618ZM14.8043 4.69618L15.5114 3.9891C14.7221 3.19971 13.7849 2.57358 12.7535 2.14649M14.8043 4.69618L12.7535 2.14649M1.64723 6.74669C1.00378 8.29985 0.835348 10.0089 1.16324 11.6578M1.64723 6.74669L1.16324 11.6578M1.16324 11.6578C1.49113 13.3067 2.30062 14.8213 3.48934 16.0102M1.16324 11.6578L3.48934 16.0102M3.48934 16.0102C4.67806 17.199 6.19261 18.0086 7.84147 18.3366M3.48934 16.0102L7.84147 18.3366M7.84147 18.3366C9.49033 18.6647 11.1994 18.4964 12.7526 17.853M7.84147 18.3366L12.7526 17.853M12.7526 17.853C14.3059 17.2097 15.6334 16.1203 16.5674 14.7224M12.7526 17.853L16.5674 14.7224M16.5674 14.7224C17.5014 13.3247 17.9999 11.6814 18 10.0003L16.5674 14.7224ZM12.7535 2.14649C11.7223 1.71944 10.6169 1.49976 9.50072 1.5L12.7535 2.14649Z" stroke="#8E8E93" stroke-width="2"/>
</svg>
