<svg width="29" height="29" viewBox="0 0 29 29" fill="none" xmlns="http://www.w3.org/2000/svg">
<path d="M7.27839 4.07513C9.41628 2.64686 11.9297 1.88462 14.5008 1.88477L7.27839 4.07513ZM7.27839 4.07513C5.14041 5.50345 3.47399 7.5337 2.48989 9.90912M7.27839 4.07513L2.48989 9.90912M2.48989 9.90912C1.50578 12.2845 1.24818 14.8984 1.74966 17.4203M2.48989 9.90912L1.74966 17.4203M1.74966 17.4203C2.25115 19.9421 3.48919 22.2586 5.30723 24.0768M1.74966 17.4203L5.30723 24.0768M5.30723 24.0768C7.12527 25.895 9.44164 27.1332 11.9634 27.6349M5.30723 24.0768L11.9634 27.6349M11.9634 27.6349C14.4852 28.1366 17.0991 27.8792 19.4746 26.8953M11.9634 27.6349L19.4746 26.8953M19.4746 26.8953C21.8501 25.9114 23.8805 24.2452 25.309 22.1073M19.4746 26.8953L25.309 22.1073M25.309 22.1073C26.7375 19.9695 27.4999 17.4562 27.5 14.8851L25.309 22.1073ZM27.5 14.8848C27.5005 13.1776 27.1647 11.487 26.5117 9.90966C25.8586 8.3322 24.9012 6.89887 23.694 5.69158C22.4868 4.48428 21.0535 3.52669 19.4761 2.8735C17.8988 2.22035 16.2083 1.88438 14.5011 1.88477L27.5 14.8848ZM14.7005 14.6864L14.7013 19.8848H14.3006V14.6864H14.7005ZM14.7008 9.88477L14.701 10.2846H14.3006V9.88477H14.7008Z" stroke="#8E8E93" stroke-width="2"/>
</svg>
