<svg width="30" height="30" viewBox="0 0 30 30" fill="none" xmlns="http://www.w3.org/2000/svg">
<path d="M7.50064 3.77461C9.72071 2.29144 12.3307 1.49988 15.0006 1.5L7.50064 3.77461ZM7.50064 3.77461C5.28042 5.25787 3.54992 7.3662 2.52796 9.83298M7.50064 3.77461L2.52796 9.83298M2.52796 9.83298C1.506 12.2998 1.23849 15.0142 1.75926 17.633M2.52796 9.83298L1.75926 17.633M1.75926 17.633C2.28004 20.2518 3.5657 22.6574 5.45366 24.5455M1.75926 17.633L5.45366 24.5455M5.45366 24.5455C7.34162 26.4337 9.74709 27.7195 12.3659 28.2405M5.45366 24.5455L12.3659 28.2405M12.3659 28.2405C14.9846 28.7615 17.6991 28.4942 20.166 27.4725M12.3659 28.2405L20.166 27.4725M20.166 27.4725C22.6328 26.4507 24.7413 24.7204 26.2248 22.5003M20.166 27.4725L26.2248 22.5003M26.2248 22.5003C27.7081 20.2804 28.4999 17.6704 28.5 15.0005L26.2248 22.5003ZM28.5 15C28.5005 13.2272 28.1518 11.4716 27.4737 9.83364C26.7955 8.19549 25.8012 6.70702 24.5475 5.45327C23.2939 4.19953 21.8055 3.20509 20.1674 2.52677C18.5295 1.84852 16.774 1.49962 15.0011 1.5L28.5 15Z" stroke="white" stroke-width="3"/>
</svg>
