<svg width="26" height="27" viewBox="0 0 26 27" fill="none" xmlns="http://www.w3.org/2000/svg">
<g clip-path="url(#clip0_2182_20359)">
<mask id="mask0_2182_20359" style="mask-type:luminance" maskUnits="userSpaceOnUse" x="0" y="0" width="26" height="26">
<path d="M7.89421 0.910272C6.55792 0.973343 5.64523 1.18738 4.84768 1.49989C4.02206 1.82175 3.32219 2.2531 2.62597 2.95217C1.92893 3.65165 1.50086 4.35277 1.18145 5.17921C0.872192 5.9788 0.662629 6.89192 0.603619 8.22904C0.545032 9.56861 0.531597 9.99586 0.538127 13.4062C0.544633 16.8162 0.559683 17.2442 0.623563 18.5842C0.68744 19.9201 0.90068 20.8324 1.21319 21.6304C1.53546 22.456 1.96636 23.1555 2.66583 23.8521C3.36491 24.5488 4.06642 24.9764 4.89325 25.2963C5.69202 25.6051 6.60553 25.8155 7.94224 25.8741C9.28178 25.9331 9.70943 25.9461 13.1189 25.9396C16.5301 25.9331 16.9577 25.918 18.2973 25.8545C19.6336 25.7907 20.5454 25.5766 21.3438 25.2649C22.1694 24.9418 22.8693 24.5117 23.5655 23.8122C24.2617 23.1132 24.6898 22.4116 25.0092 21.5848C25.3185 20.786 25.5289 19.8725 25.587 18.5366C25.6456 17.1962 25.6595 16.7681 25.653 13.3582C25.6464 9.94784 25.631 9.52059 25.5675 8.18144C25.504 6.84431 25.29 5.93242 24.9779 5.13405C24.6552 4.30842 24.2247 3.60934 23.5256 2.9123C22.8266 2.21607 22.1251 1.78717 21.2982 1.46856C20.4991 1.1593 19.5859 0.948519 18.2492 0.890738C16.9097 0.831329 16.482 0.818315 13.0713 0.824824C9.66143 0.831332 9.23378 0.845985 7.89421 0.910272ZM8.04072 23.6137C6.81631 23.5604 6.15143 23.3569 5.70831 23.1864C5.12154 22.9593 4.70284 22.6871 4.26215 22.2497C3.82228 21.8106 3.54924 21.3931 3.32015 20.8076C3.14802 20.3644 2.94091 19.7004 2.88354 18.476C2.82128 17.1523 2.80705 16.7551 2.80094 13.4017C2.79443 10.0492 2.80662 9.65202 2.86442 8.32711C2.91689 7.10351 3.12159 6.4378 3.29167 5.99507C3.51871 5.40749 3.79012 4.98959 4.22837 4.54891C4.66742 4.10821 5.08491 3.83598 5.67086 3.6069C6.11358 3.43395 6.77766 3.22846 8.00165 3.17028C9.32614 3.10761 9.72286 3.09418 13.0754 3.08767C16.4287 3.08115 16.8259 3.09296 18.1508 3.15115C19.3743 3.20445 20.04 3.4071 20.4824 3.57841C21.0695 3.80546 21.4882 4.07607 21.9285 4.51513C22.3688 4.95419 22.6418 5.37087 22.8709 5.95805C23.0438 6.39954 23.2493 7.06444 23.3071 8.28804C23.3702 9.61255 23.3844 10.0097 23.3905 13.3623C23.397 16.7157 23.3848 17.1128 23.3267 18.4369C23.2734 19.6613 23.0703 20.3266 22.8994 20.7701C22.6724 21.3565 22.4009 21.7752 21.9623 22.2159C21.5237 22.655 21.1062 22.9288 20.5198 23.1579C20.0779 23.3304 19.413 23.5364 18.1898 23.5945C16.8654 23.6568 16.4686 23.671 13.1149 23.6771C9.76233 23.6837 9.3656 23.671 8.04072 23.6137ZM18.279 6.66893C18.2806 7.50067 18.9569 8.17411 19.7886 8.17248C20.6207 8.17086 21.2941 7.49497 21.2929 6.66323C21.2913 5.8315 20.615 5.15766 19.7829 5.15928C18.9508 5.16091 18.2773 5.8372 18.279 6.66893ZM6.64706 13.3944C6.65396 16.9561 9.54668 19.8371 13.1075 19.8302C16.6688 19.8233 19.5514 16.9313 19.5444 13.3696C19.5375 9.8091 16.6444 6.92651 13.0827 6.93342C9.52184 6.94034 6.64013 9.83351 6.64706 13.3944ZM8.90905 13.3899C8.90498 11.0783 10.776 9.20035 13.0872 9.19628C15.3989 9.19181 17.2771 11.062 17.2816 13.3741C17.2861 15.6862 15.4151 17.5637 13.1031 17.5681C10.7918 17.5726 8.91352 15.702 8.90905 13.3899Z" fill="white"/>
</mask>
<g mask="url(#mask0_2182_20359)">
<mask id="mask1_2182_20359" style="mask-type:luminance" maskUnits="userSpaceOnUse" x="-1" y="-1" width="28" height="28">
<path d="M26.6416 -0.160248H-0.485596V26.9674H26.6416V-0.160248Z" fill="white"/>
</mask>
<g mask="url(#mask1_2182_20359)">
<mask id="mask2_2182_20359" style="mask-type:luminance" maskUnits="userSpaceOnUse" x="-1" y="-1" width="28" height="29">
<path d="M26.7761 -0.285934H-0.602295V27.0929H26.7761V-0.285934Z" fill="white"/>
</mask>
<g mask="url(#mask2_2182_20359)">
<mask id="mask3_2182_20359" style="mask-type:luminance" maskUnits="userSpaceOnUse" x="-1" y="-1" width="28" height="29">
<path d="M26.7795 -0.28598H-0.598877V27.0928H26.7795V-0.28598Z" fill="white"/>
</mask>
<g mask="url(#mask3_2182_20359)">
<rect x="-0.607422" y="-0.289978" width="27.3925" height="27.3925" fill="black"/>
</g>
</g>
</g>
</g>
</g>
<defs>
<clipPath id="clip0_2182_20359">
<rect width="25.2434" height="25.2434" fill="white" transform="translate(0.45459 0.76062)"/>
</clipPath>
</defs>
</svg>
