<svg width="34" height="35" viewBox="0 0 34 35" fill="none" xmlns="http://www.w3.org/2000/svg">
<path d="M14.0871 14.3747C12.3564 16.1053 12.3564 18.9087 14.0871 20.6393C15.8162 22.3684 18.6212 22.37 20.3519 20.6393C22.081 18.9087 22.081 16.1053 20.3519 14.3747C18.6212 12.644 15.8178 12.644 14.0871 14.3747Z" fill="#37BCF7"/>
<path d="M12.708 22.7917C12.5833 22.4175 12.2902 22.1244 11.9175 22.0012L3.84718 19.3117C3.39813 19.162 2.90231 19.279 2.56709 19.6142L0.866018 21.3152C0.377994 21.8032 0.377994 22.5953 0.866018 23.0848L11.6259 33.8446C12.114 34.3326 12.906 34.3326 13.3956 33.8446L15.0967 32.1435C15.4319 31.8083 15.5489 31.3125 15.3992 30.8635L12.7096 22.7933L12.708 22.7917Z" fill="#35FAA0"/>
<path d="M21.7123 12.2079C21.8371 12.5821 22.1302 12.8752 22.5028 12.9984L30.5732 15.688C31.0222 15.8376 31.518 15.7207 31.8532 15.3855L33.5543 13.6845C34.0423 13.1964 34.0423 12.4044 33.5543 11.9148L22.7944 1.15507C22.3064 0.667059 21.5143 0.667059 21.0247 1.15507L19.3236 2.85611C18.9884 3.19133 18.8715 3.68714 19.0212 4.13618L21.7108 12.2064L21.7123 12.2079Z" fill="#35FAA0"/>
<path d="M31.8634 19.612C31.5282 19.2768 31.0324 19.1598 30.5833 19.3095L22.513 21.999C22.1388 22.1238 21.8457 22.4169 21.7225 22.7895L19.0329 30.8597C18.8832 31.3088 19.0001 31.8046 19.3354 32.1398L21.0364 33.8408C21.5245 34.3288 22.3165 34.3288 22.8061 33.8408L33.566 23.0811C34.0541 22.5931 34.0541 21.801 33.566 21.3115L31.865 19.6104L31.8634 19.612Z" fill="#35FAA0"/>
<path d="M2.59053 15.3873C2.92575 15.7226 3.42157 15.8395 3.87061 15.6898L11.9409 13.0003C12.3152 12.8755 12.6083 12.5824 12.7315 12.2098L15.421 4.1396C15.5707 3.69056 15.4538 3.19475 15.1186 2.85953L13.4175 1.15849C12.9295 0.670477 12.1374 0.670477 11.6478 1.15849L0.889456 11.9182C0.401431 12.4062 0.401431 13.1983 0.889456 13.6879L2.59053 15.3889V15.3873Z" fill="#35FAA0"/>
</svg>
