<svg width="20" height="20" viewBox="0 0 20 20" fill="none" xmlns="http://www.w3.org/2000/svg">
<path d="M9.99844 11.1917C10.3399 11.1917 10.678 11.1244 10.9934 10.9938C11.3089 10.8631 11.5955 10.6716 11.8369 10.4301C12.0783 10.1887 12.2699 9.90209 12.4005 9.58665C12.5312 9.2712 12.5984 8.93311 12.5984 8.59167C12.5984 8.25023 12.5312 7.91214 12.4005 7.59669C12.2699 7.28125 12.0783 6.99462 11.8369 6.75319C11.5955 6.51176 11.3089 6.32024 10.9934 6.18958C10.678 6.05892 10.3399 5.99167 9.99844 5.99167C9.30887 5.99167 8.64755 6.2656 8.15996 6.75319C7.67237 7.24079 7.39844 7.90211 7.39844 8.59167C7.39844 9.28123 7.67237 9.94255 8.15996 10.4301C8.64755 10.9177 9.30887 11.1917 9.99844 11.1917Z" fill="black" stroke="black" stroke-width="1.5"/>
<path d="M3.0148 7.075C4.65646 -0.141667 15.3481 -0.133334 16.9815 7.08333C17.9398 11.3167 15.3065 14.9 12.9981 17.1167C12.1915 17.8946 11.1146 18.3293 9.99396 18.3293C8.87333 18.3293 7.7964 17.8946 6.9898 17.1167C4.6898 14.9 2.05646 11.3083 3.0148 7.075V7.075Z" stroke="black" stroke-width="1.5"/>
</svg>
