<svg width="36" height="33" viewBox="0 0 36 33" fill="none" xmlns="http://www.w3.org/2000/svg">
<rect y="0.470581" width="36" height="32.4706" rx="7.5" fill="#35FAA0" fill-opacity="0.6"/>
<rect x="8" y="4.97058" width="20" height="22" rx="5" fill="#024C2B"/>
<path d="M18 9.05847C16.1392 9.05847 14.6264 10.5495 14.6264 12.3836C14.6264 14.1827 16.054 15.6388 17.9148 15.7018C17.9716 15.6948 18.0284 15.6948 18.071 15.7018H18.1207C18.9939 15.6731 19.8214 15.3108 20.4285 14.6916C21.0355 14.0724 21.3744 13.2447 21.3736 12.3836C21.3736 10.5495 19.8608 9.05847 18 9.05847ZM21.608 17.5632C19.6264 16.2611 16.3949 16.2611 14.3991 17.5632C13.4972 18.1582 13 18.9633 13 19.8243C13 20.6854 13.4972 21.4834 14.392 22.0714C15.3864 22.7295 16.6932 23.0585 18 23.0585C19.3068 23.0585 20.6136 22.7295 21.608 22.0714C22.5028 21.4764 23 20.6784 23 19.8103C22.9929 18.9493 22.5028 18.1512 21.608 17.5632Z" fill="white"/>
</svg>
