<svg width="34" height="42" viewBox="0 0 34 42" fill="none" xmlns="http://www.w3.org/2000/svg">
<path d="M17.0462 4.00183C10.8564 4.00183 5.82603 9.03222 5.82603 15.222V20.6264C5.82603 21.7672 5.33982 23.5063 4.76011 24.4787L2.60957 28.0505C1.28184 30.2571 2.19816 32.7069 4.62921 33.5297C12.6891 36.2225 21.3847 36.2225 29.4446 33.5297C31.7073 32.7817 32.6984 30.1075 31.4642 28.0505L29.3137 24.4787C28.7527 23.5063 28.2664 21.7672 28.2664 20.6264V15.222C28.2664 9.05092 23.2174 4.00183 17.0462 4.00183Z" stroke="black" stroke-width="3" stroke-miterlimit="10" stroke-linecap="round"/>
<path d="M20.4973 4.54338C18.2358 3.89932 15.8395 3.89932 13.5781 4.54338C14.1204 3.15955 15.4669 2.18713 17.0377 2.18713C18.6085 2.18713 19.9549 3.15955 20.4973 4.54338V4.54338Z" stroke="black" stroke-width="3" stroke-miterlimit="10" stroke-linecap="round" stroke-linejoin="round"/>
<path d="M22.6538 34.2028C22.6538 37.2883 20.1293 39.8129 17.0437 39.8129C15.5103 39.8129 14.089 39.1771 13.0792 38.1672C12.0286 37.115 11.4369 35.6897 11.4336 34.2028" stroke="black" stroke-width="3" stroke-miterlimit="10"/>
<circle cx="25" cy="11.1871" r="7" fill="#FF0000"/>
</svg>
