<svg width="21" height="21" viewBox="0 0 21 21" fill="none" xmlns="http://www.w3.org/2000/svg">
<path d="M16.5301 5.93699C16.4605 5.927 16.3897 5.927 16.3201 5.93699C15.5732 5.91255 14.8653 5.59818 14.3463 5.06054C13.8273 4.52289 13.5381 3.80425 13.5401 3.05699C13.5401 1.46699 14.8301 0.166992 16.4301 0.166992C18.0201 0.166992 19.3201 1.45699 19.3201 3.05699C19.318 3.80472 19.0261 4.52252 18.5058 5.05957C17.9855 5.59662 17.2774 5.91112 16.5301 5.93699ZM19.7921 12.867C18.6721 13.617 17.1021 13.897 15.6521 13.707C16.0321 12.887 16.2321 11.977 16.2421 11.017C16.2421 10.017 16.0221 9.06699 15.6021 8.23699C17.0821 8.03699 18.6521 8.31699 19.7821 9.06699C21.3621 10.107 21.3621 11.817 19.7921 12.867ZM5.44009 5.93699C5.51009 5.92699 5.58009 5.92699 5.65009 5.93699C6.39696 5.91255 7.10493 5.59818 7.62391 5.06054C8.14289 4.52289 8.43205 3.80425 8.43009 3.05699C8.43009 2.67813 8.35547 2.30297 8.21049 1.95295C8.0655 1.60293 7.85299 1.28489 7.5851 1.01699C7.3172 0.749092 6.99916 0.536584 6.64914 0.3916C6.29911 0.246615 5.92396 0.171992 5.54509 0.171992C5.16623 0.171992 4.79108 0.246615 4.44105 0.3916C4.09103 0.536584 3.77299 0.749092 3.50509 1.01699C3.23719 1.28489 3.02469 1.60293 2.8797 1.95295C2.73472 2.30297 2.66009 2.67813 2.66009 3.05699C2.66009 4.61699 3.89009 5.88699 5.44009 5.93699ZM5.55109 11.017C5.55109 11.987 5.76109 12.907 6.14109 13.737C4.73109 13.887 3.26109 13.587 2.18109 12.877C0.601094 11.827 0.601094 10.117 2.18109 9.06699C3.25109 8.34699 4.76109 8.05699 6.18109 8.21699C5.77109 9.05699 5.55109 10.007 5.55109 11.017ZM11.1201 14.037C11.0337 14.027 10.9465 14.027 10.8601 14.037C9.97094 14.0071 9.1283 13.6324 8.51052 12.9923C7.89274 12.3521 7.54829 11.4966 7.55009 10.607C7.56009 8.70699 9.09009 7.16699 11.0001 7.16699C12.9001 7.16699 14.4401 8.70699 14.4401 10.607C14.4395 11.4976 14.093 12.3532 13.4735 12.9932C12.8541 13.6332 12.0103 14.0074 11.1201 14.037ZM7.87009 16.107C6.36009 17.117 6.36009 18.777 7.87009 19.777C9.59009 20.927 12.4101 20.927 14.1301 19.777C15.6401 18.767 15.6401 17.107 14.1301 16.107C12.4201 14.957 9.60009 14.957 7.87009 16.107Z" fill="black"/>
</svg>
