<svg width="28" height="32" viewBox="0 0 28 32" fill="none" xmlns="http://www.w3.org/2000/svg">
<path d="M1.05682 10.6633L1.05621 10.6706L1.0557 10.6779C0.98723 11.6707 1.79594 12.4533 2.72 12.4533H3.33333C2.04772 12.4533 1 13.501 1 14.7867V23C1 25.1533 1.53818 27.1005 2.85054 28.5138C4.17536 29.9405 6.14273 30.6667 8.66667 30.6667H19.3333C21.8573 30.6667 23.8246 29.9405 25.1495 28.5138C26.4618 27.1005 27 25.1533 27 23V14.7867C27 13.501 25.9523 12.4533 24.6667 12.4533H25.28C26.2023 12.4533 27.0423 11.6648 26.9424 10.654C26.7946 8.90602 26.2315 7.33987 25.1179 6.15766C24.1725 5.15397 22.8991 4.50021 21.3333 4.20925V3C21.3333 1.90105 20.4323 1 19.3333 1C18.2344 1 17.3333 1.90105 17.3333 3V4H10.6667V3C10.6667 1.90105 9.76562 1 8.66667 1C7.56772 1 6.66667 1.90105 6.66667 3V4.20925C5.10089 4.50021 3.82755 5.15397 2.88209 6.15766C1.76651 7.34196 1.20341 8.91153 1.05682 10.6633ZM17.0796 19.6129L17.0795 19.6129L17.0726 19.6199L16.7 20H16.6925L16.3996 20.2929L12.3649 24.3275C12.3622 24.3297 12.3553 24.3351 12.3433 24.3433C12.3205 24.3589 12.2902 24.3768 12.2561 24.3939C12.2218 24.4111 12.1917 24.4232 12.17 24.4304C12.1654 24.432 12.1617 24.4331 12.1589 24.4339L12.1543 24.4344L12.1335 24.4375L10.476 24.683L10.7078 23.0232C10.7089 23.0189 10.7118 23.0079 10.7179 22.9901C10.7276 22.9622 10.7417 22.928 10.7599 22.8913C10.778 22.8547 10.797 22.8218 10.8142 22.7956C10.824 22.7807 10.8313 22.7708 10.8356 22.7653L14.8659 18.7483L14.866 18.7483L14.8741 18.7401L15.5371 18.0638C15.9158 17.686 16.1639 17.6 16.2933 17.6C16.3977 17.6 16.6515 17.639 17.0796 18.0671C17.5508 18.5383 17.5555 18.7962 17.5465 18.8865C17.5324 19.0297 17.4294 19.2631 17.0796 19.6129Z" stroke="#525252" stroke-width="2"/>
</svg>
