<svg width="22" height="23" viewBox="0 0 22 23" fill="none" xmlns="http://www.w3.org/2000/svg">
<path d="M19.25 3.70837V2.95837H20V3.70837H19.25ZM10.6137 13.4054C10.3208 13.6983 9.8459 13.6983 9.553 13.4054C9.26011 13.1125 9.26011 12.6376 9.553 12.3447L10.6137 13.4054ZM18.5 11.0417V3.70837H20V11.0417H18.5ZM19.25 4.45837H11.9167V2.95837H19.25V4.45837ZM19.7803 4.2387L10.6137 13.4054L9.553 12.3447L18.7197 3.17804L19.7803 4.2387Z" fill="black"/>
<path d="M18.333 14.7083V14.7083C18.333 16.1844 18.333 16.9225 18.0789 17.4999C17.7767 18.1867 17.2281 18.7354 16.5412 19.0376C15.9638 19.2917 15.2258 19.2917 13.7497 19.2917H9.66635C6.83792 19.2917 5.4237 19.2917 4.54502 18.413C3.66634 17.5343 3.66634 16.1201 3.66634 13.2917V9.20834C3.66634 7.73222 3.66634 6.99417 3.92041 6.41676C4.22262 5.72992 4.77126 5.18128 5.4581 4.87907C6.03551 4.625 6.77356 4.625 8.24967 4.625V4.625" stroke="black" stroke-width="1.5" stroke-linecap="round"/>
</svg>
