<svg width="101" height="18" viewBox="0 0 101 18" fill="none" xmlns="http://www.w3.org/2000/svg">
<path d="M13.0922 2.14439C14.1797 3.12991 14.7234 4.48812 14.7234 6.22129C14.7234 7.95445 14.1797 9.33758 13.0922 10.322C12.0047 11.3075 10.4765 11.7991 8.50656 11.7991H4.44092V17.5424H0.422852V0.667236H8.50656C10.4765 0.667236 12.0047 1.16 13.0922 2.14439ZM9.91351 8.02922C10.3938 7.59649 10.634 6.99385 10.634 6.22129C10.634 5.44873 10.3893 4.85062 9.90105 4.42469C9.41281 3.99876 8.7116 3.78693 7.79742 3.78693H4.44092V8.67943H7.79742C8.72633 8.67943 9.43207 8.46307 9.91238 8.02922H9.91351Z" fill="#033F59"/>
<path d="M27.7211 14.848V17.5429C27.311 17.6687 26.7673 17.7321 26.0899 17.7321C25.3014 17.7321 24.6716 17.6177 24.1992 17.3889C23.7268 17.1612 23.387 16.7942 23.1831 16.2901H23.0891C22.7107 16.7783 22.1873 17.1612 21.5179 17.4364C20.8472 17.7117 20.1188 17.8499 19.3315 17.8499C18.5442 17.8499 17.8226 17.7004 17.169 17.4013C16.5154 17.1023 15.9943 16.6729 15.6091 16.1134C15.2228 15.5538 15.0303 14.8956 15.0303 14.14C15.0303 12.8634 15.4358 11.9141 16.248 11.2922C17.0591 10.6703 18.3007 10.2489 19.9704 10.028C21.1361 9.87057 21.9279 9.69385 22.3459 9.49562C22.7628 9.29851 22.9724 9.01871 22.9724 8.65622C22.9724 8.21557 22.8183 7.87233 22.5113 7.62765C22.2043 7.38297 21.7591 7.26176 21.1757 7.26176C20.6399 7.26176 20.1789 7.41129 19.7926 7.71148C19.4063 8.01053 19.1344 8.44439 18.977 9.01078L15.4789 8.58599C15.7462 7.37278 16.393 6.4235 17.4171 5.73816C18.4412 5.05283 19.7178 4.70959 21.246 4.70959C23.0732 4.70959 24.4439 5.08002 25.3581 5.82086C26.2722 6.5617 26.7288 7.58574 26.7288 8.89297V14.1876C26.7288 14.4708 26.7718 14.6645 26.859 14.7665C26.9451 14.8696 27.0833 14.9194 27.2725 14.9194C27.4617 14.9194 27.6112 14.8956 27.7222 14.848H27.7211ZM22.167 11.8461C21.8045 11.9402 21.3241 12.0353 20.7249 12.1293C20.1415 12.2234 19.685 12.4171 19.3542 12.7082C19.0234 12.9993 18.858 13.3981 18.858 13.9022C18.858 14.3598 18.9962 14.7212 19.2715 14.9896C19.5468 15.2581 19.9217 15.3918 20.3941 15.3918C20.7872 15.3918 21.1814 15.2932 21.5756 15.0961C21.9698 14.899 22.3006 14.6 22.568 14.1978C22.8353 13.7957 22.9701 13.2961 22.9701 12.6969V11.5154C22.7968 11.6411 22.5283 11.7521 22.167 11.8461Z" fill="#033F59"/>
<path d="M32.3846 0.43042V17.5423H28.626V0.43042H32.3846Z" fill="#033F59"/>
<path d="M44.8512 5.5121C45.6623 6.04791 46.3012 6.81141 46.7656 7.80486C47.2301 8.79718 47.4623 9.95602 47.4623 11.2791C47.4623 12.6022 47.2301 13.7611 46.7656 14.7534C46.3 15.7457 45.6543 16.5103 44.8274 17.0461C44.0004 17.5819 43.067 17.8493 42.0271 17.8493C41.1911 17.8493 40.4389 17.6918 39.7694 17.3769C39.0999 17.062 38.5754 16.5658 38.1971 15.8873H38.103V17.5423H34.5098V0.43042H38.2684V6.50442H38.3636C38.7419 5.93689 39.246 5.49624 39.8759 5.18133C40.5057 4.86641 41.2545 4.70895 42.1211 4.70895C43.1293 4.70895 44.0389 4.97742 44.8512 5.51323V5.5121ZM42.9016 14.0918C43.3898 13.462 43.6345 12.524 43.6345 11.2791C43.6345 10.0342 43.3864 9.12002 42.8903 8.4902C42.3941 7.86037 41.7122 7.54432 40.8456 7.54432C39.979 7.54432 39.3208 7.85923 38.8246 8.4902C38.3285 9.12002 38.0804 10.05 38.0804 11.2791C38.0804 12.5082 38.3285 13.462 38.8246 14.0918C39.3208 14.7228 39.9948 15.0377 40.8456 15.0377C41.6963 15.0377 42.4134 14.7228 42.9016 14.0918Z" fill="#033F59"/>
<path d="M57.2511 15.8642C56.2893 17.1873 54.9583 17.85 53.2568 17.85C51.9484 17.85 50.8892 17.4603 50.0781 16.6798C49.2659 15.8993 48.8604 14.7541 48.8604 13.2407V5.0155H52.619V12.3186C52.619 13.2169 52.7969 13.8626 53.1514 14.2568C53.506 14.651 54.0373 14.8481 54.7464 14.8481C55.4555 14.8481 56.0186 14.5887 56.4841 14.0676C56.9486 13.5476 57.1819 12.7909 57.1819 11.7986V5.0155H60.9406V17.543H57.3473V15.8653H57.2533L57.2511 15.8642Z" fill="#033F59"/>
<path d="M70.2077 14.4588C70.594 14.0261 70.8659 13.4699 71.0233 12.7925L74.8522 13.1946C74.5214 14.5177 73.8474 15.6256 72.8313 16.5159C71.8151 17.4063 70.3855 17.8515 68.5413 17.8515C66.5238 17.8515 64.9447 17.2647 63.8028 16.0912C62.6598 14.9176 62.0889 13.3136 62.0889 11.2813C62.0889 9.24913 62.6598 7.64623 63.8028 6.47153C64.9447 5.29797 66.5249 4.71118 68.5413 4.71118C70.3686 4.71118 71.771 5.12918 72.7486 5.96404C73.7251 6.79891 74.3719 7.76857 74.6868 8.87077L70.9757 9.55611C70.5657 8.16958 69.7546 7.47631 68.5413 7.47631C67.7223 7.47631 67.08 7.79576 66.6156 8.43352C66.1511 9.07128 65.9189 10.0217 65.9189 11.2813C65.9189 12.541 66.1511 13.5152 66.6156 14.153C67.08 14.7907 67.7223 15.1102 68.5413 15.1102C69.2663 15.1102 69.8214 14.8938 70.2077 14.4599V14.4588Z" fill="#033F59"/>
<path d="M79.8163 17.5434H76.0576V0.43042H79.8163V9.7895L84.0711 5.01481H88.2783L83.6927 9.83595L88.7983 17.5412H84.4732L81.1881 12.3417L79.8174 13.7837V17.5423L79.8163 17.5434Z" fill="#033F59"/>
<path d="M95.9812 7.54564C95.587 7.24658 95.0987 7.09705 94.5153 7.09705C93.9636 7.09705 93.5185 7.21147 93.1797 7.44029C92.841 7.66911 92.6711 7.98743 92.6711 8.39749C92.6711 8.77584 92.8365 9.05111 93.1673 9.22443C93.4981 9.39774 94.0259 9.54727 94.7509 9.67301L96.0503 9.86219C96.9645 10.0196 97.7438 10.2247 98.3907 10.4773C99.0364 10.7299 99.5643 11.1196 99.9743 11.6475C100.384 12.1753 100.589 12.889 100.589 13.7862C100.589 15.1251 100.038 16.1378 98.9344 16.8232C97.8311 17.5085 96.389 17.8506 94.6093 17.8506C92.9226 17.8506 91.5281 17.5006 90.4259 16.7982C89.3225 16.097 88.6689 15.124 88.4639 13.879L92.0096 13.4769C92.1194 14.1385 92.4026 14.6346 92.8603 14.9665C93.3168 15.2973 93.9081 15.4627 94.6331 15.4627C95.2788 15.4627 95.7943 15.329 96.1817 15.0605C96.568 14.7932 96.7605 14.4228 96.7605 13.9493C96.7605 13.5868 96.5759 13.3036 96.2055 13.0986C95.8351 12.8935 95.28 12.7281 94.5391 12.6024L93.1208 12.3894C91.8442 12.1844 90.8246 11.8106 90.06 11.2668C89.2954 10.7231 88.9136 9.83727 88.9136 8.60819C88.9136 7.78919 89.1651 7.08799 89.6703 6.50461C90.1744 5.92122 90.8518 5.47604 91.7026 5.16905C92.5533 4.86207 93.4833 4.70801 94.4915 4.70801C96.0197 4.70801 97.3043 5.03878 98.3442 5.70033C99.3841 6.36188 100.006 7.2681 100.211 8.41902L96.7368 8.82115C96.6269 8.26949 96.3743 7.84469 95.9801 7.54451L95.9812 7.54564Z" fill="#033F59"/>
</svg>
