<svg width="36" height="33" viewBox="0 0 36 33" fill="none" xmlns="http://www.w3.org/2000/svg">
<rect y="0.411743" width="36" height="32.4706" rx="7.5" fill="#35FAA0" fill-opacity="0.6"/>
<rect x="8" y="4.91174" width="20" height="22" rx="5" fill="#024C2B"/>
<path d="M17.9643 10.1807L16.4828 13.548H15.0012C14.7553 13.548 14.5156 13.566 14.282 13.614L14.8967 12.1735L14.9213 12.1194L14.9582 12.0234C14.9766 11.9814 14.9889 11.9454 15.0074 11.9154C15.7205 10.3007 16.5197 9.79651 17.9643 10.1807ZM22.1391 13.7089L22.1268 13.7029C21.758 13.6008 21.383 13.5468 21.0018 13.5468H17.1535L18.5367 10.4076L18.5551 10.3655C18.6412 10.3955 18.7334 10.4376 18.8256 10.4676L20.1842 11.0258C20.9404 11.3319 21.4691 11.65 21.7949 12.0342C21.8502 12.1062 21.8994 12.1723 21.9486 12.2503C22.0039 12.3343 22.0469 12.4184 22.0715 12.5084C22.0961 12.5624 22.1145 12.6104 22.1268 12.6645C22.2191 12.9706 22.2252 13.3187 22.1391 13.7089ZM21.8668 14.5672C21.5902 14.4892 21.3012 14.4472 21 14.4472H15C14.582 14.4472 14.1885 14.5252 13.8197 14.6813C13.28 14.908 12.8201 15.284 12.4967 15.7629C12.1734 16.2418 12.0007 16.8027 12 17.3763V18.5468C12 18.6909 12.0123 18.8289 12.0307 18.973C12.166 20.8818 13.2111 21.9022 15.166 22.0282C15.3074 22.0462 15.4488 22.0582 15.6025 22.0582H20.3975C22.6721 22.0582 23.8709 21.0018 23.9877 18.901C23.9939 18.7869 24 18.6669 24 18.5468V17.3763C23.9991 16.7469 23.7914 16.1343 23.4074 15.6286C23.0235 15.123 22.4834 14.7509 21.8668 14.5672ZM19.5369 18.907H16.4631C16.2111 18.907 16.002 18.7029 16.002 18.4568C16.002 18.2107 16.2111 18.0066 16.4631 18.0066H19.5369C19.7889 18.0066 19.998 18.2107 19.998 18.4568C19.998 18.7029 19.7889 18.907 19.5369 18.907Z" fill="white"/>
</svg>
