<svg width="388" height="152" viewBox="0 0 388 152" fill="none" xmlns="http://www.w3.org/2000/svg">
<rect width="388" height="152" fill="white"/>
<path fill-rule="evenodd" clip-rule="evenodd" d="M119.781 35C123.25 35 125.5 37.25 125.5 40.7188V53.2812C125.5 56.75 123.25 59 119.781 59H107.219C103.75 59 101.5 56.75 101.5 53.2812V40.7188C101.5 37.25 103.75 35 107.219 35H119.781Z" fill="#2CA9F2"/>
<path fill-rule="evenodd" clip-rule="evenodd" d="M107.5 41.4H111.1V52.6H107.5V41.4ZM116.3 49.6V52.6H112.5V41.4H114.4H120.9V45.2H116.3V46H119.3V49.6H116.3Z" fill="white"/>
<path d="M141.216 56V38.5455H148.103C149.426 38.5455 150.554 38.7983 151.486 39.304C152.418 39.804 153.128 40.5 153.617 41.392C154.111 42.2784 154.358 43.3011 154.358 44.4602C154.358 45.6193 154.108 46.642 153.608 47.5284C153.108 48.4148 152.384 49.1051 151.435 49.5994C150.492 50.0937 149.35 50.3409 148.009 50.3409H143.62V47.3835H147.412C148.123 47.3835 148.708 47.2614 149.168 47.017C149.634 46.767 149.98 46.4233 150.208 45.9858C150.441 45.5426 150.557 45.0341 150.557 44.4602C150.557 43.8807 150.441 43.375 150.208 42.9432C149.98 42.5057 149.634 42.1676 149.168 41.929C148.702 41.6847 148.111 41.5625 147.395 41.5625H144.907V56H141.216ZM165.975 56.2472C165.14 56.2472 164.395 56.1023 163.742 55.8125C163.088 55.517 162.571 55.0824 162.191 54.5085C161.816 53.929 161.628 53.2074 161.628 52.3438C161.628 51.6165 161.762 51.0057 162.029 50.5114C162.296 50.017 162.659 49.6193 163.12 49.3182C163.58 49.017 164.103 48.7898 164.688 48.6364C165.279 48.483 165.898 48.375 166.546 48.3125C167.307 48.233 167.921 48.1591 168.387 48.0909C168.853 48.017 169.191 47.9091 169.401 47.767C169.611 47.625 169.716 47.4148 169.716 47.1364V47.0852C169.716 46.5455 169.546 46.1278 169.205 45.8324C168.87 45.5369 168.392 45.3892 167.773 45.3892C167.12 45.3892 166.6 45.5341 166.213 45.8239C165.827 46.108 165.571 46.4659 165.446 46.8977L162.088 46.625C162.259 45.8295 162.594 45.142 163.094 44.5625C163.594 43.9773 164.239 43.5284 165.029 43.2159C165.824 42.8977 166.745 42.7386 167.79 42.7386C168.517 42.7386 169.213 42.8239 169.878 42.9943C170.549 43.1648 171.142 43.429 171.659 43.7869C172.182 44.1449 172.594 44.6051 172.895 45.1676C173.196 45.7244 173.347 46.392 173.347 47.1705V56H169.904V54.1847H169.801C169.591 54.5938 169.31 54.9545 168.958 55.267C168.605 55.5739 168.182 55.8153 167.688 55.9915C167.194 56.1619 166.623 56.2472 165.975 56.2472ZM167.015 53.7415C167.549 53.7415 168.02 53.6364 168.429 53.4261C168.838 53.2102 169.159 52.9205 169.392 52.5568C169.625 52.1932 169.742 51.7812 169.742 51.321V49.9318C169.628 50.0057 169.472 50.0739 169.273 50.1364C169.08 50.1932 168.861 50.2472 168.617 50.2983C168.373 50.3437 168.128 50.3864 167.884 50.4261C167.64 50.4602 167.418 50.4915 167.219 50.5199C166.793 50.5824 166.421 50.6818 166.103 50.8182C165.784 50.9545 165.537 51.1392 165.361 51.3722C165.185 51.5994 165.097 51.8835 165.097 52.2244C165.097 52.7188 165.276 53.0966 165.634 53.358C165.998 53.6136 166.458 53.7415 167.015 53.7415ZM185.349 38.5455V56H181.718V38.5455H185.349ZM193.88 56V38.5455H197.511V45.108H197.622C197.781 44.7557 198.011 44.3977 198.312 44.0341C198.619 43.6648 199.017 43.358 199.505 43.1136C200 42.8636 200.613 42.7386 201.346 42.7386C202.301 42.7386 203.181 42.9886 203.988 43.4886C204.795 43.983 205.44 44.7301 205.923 45.7301C206.406 46.7244 206.647 47.9716 206.647 49.4716C206.647 50.9318 206.412 52.1648 205.94 53.1705C205.474 54.1705 204.838 54.929 204.031 55.446C203.23 55.9574 202.332 56.2131 201.338 56.2131C200.633 56.2131 200.034 56.0966 199.539 55.8636C199.051 55.6307 198.65 55.3381 198.338 54.9858C198.025 54.6278 197.787 54.267 197.622 53.9034H197.46V56H193.88ZM197.434 49.4545C197.434 50.233 197.542 50.9119 197.758 51.4915C197.974 52.071 198.287 52.5227 198.696 52.8466C199.105 53.1648 199.602 53.3239 200.187 53.3239C200.778 53.3239 201.278 53.1619 201.687 52.8381C202.096 52.5085 202.406 52.054 202.616 51.4744C202.832 50.8892 202.94 50.2159 202.94 49.4545C202.94 48.6989 202.835 48.0341 202.625 47.4602C202.414 46.8864 202.105 46.4375 201.696 46.1136C201.287 45.7898 200.784 45.6278 200.187 45.6278C199.596 45.6278 199.096 45.7841 198.687 46.0966C198.284 46.4091 197.974 46.8523 197.758 47.4261C197.542 48 197.434 48.6761 197.434 49.4545ZM223.02 50.4261V42.9091H226.65V56H223.164V53.6222H223.028C222.733 54.3892 222.241 55.0057 221.554 55.4716C220.872 55.9375 220.039 56.1705 219.056 56.1705C218.181 56.1705 217.412 55.9716 216.747 55.5739C216.082 55.1761 215.562 54.6108 215.187 53.8778C214.818 53.1449 214.63 52.267 214.625 51.2443V42.9091H218.255V50.5966C218.261 51.3693 218.468 51.9801 218.877 52.429C219.287 52.8778 219.835 53.1023 220.522 53.1023C220.96 53.1023 221.369 53.0028 221.75 52.804C222.13 52.5994 222.437 52.2983 222.67 51.9006C222.909 51.5028 223.025 51.0114 223.02 50.4261ZM241.024 56.2557C239.683 56.2557 238.529 55.9716 237.564 55.4034C236.603 54.8295 235.865 54.0341 235.348 53.017C234.836 52 234.581 50.8295 234.581 49.5057C234.581 48.1648 234.839 46.9886 235.356 45.9773C235.879 44.9602 236.62 44.1676 237.581 43.5994C238.541 43.0256 239.683 42.7386 241.007 42.7386C242.149 42.7386 243.149 42.946 244.007 43.3608C244.865 43.7756 245.544 44.358 246.044 45.108C246.544 45.858 246.819 46.7386 246.87 47.75H243.444C243.348 47.0966 243.092 46.571 242.677 46.1733C242.268 45.7699 241.731 45.5682 241.066 45.5682C240.504 45.5682 240.012 45.7216 239.592 46.0284C239.177 46.3295 238.853 46.7699 238.62 47.3494C238.387 47.929 238.271 48.6307 238.271 49.4545C238.271 50.2898 238.385 51 238.612 51.5852C238.845 52.1705 239.172 52.6165 239.592 52.9233C240.012 53.2301 240.504 53.3835 241.066 53.3835C241.481 53.3835 241.853 53.2983 242.183 53.1278C242.518 52.9574 242.794 52.7102 243.01 52.3864C243.231 52.0568 243.376 51.6619 243.444 51.2017H246.87C246.814 52.2017 246.541 53.0824 246.052 53.8438C245.569 54.5994 244.902 55.1903 244.049 55.6165C243.197 56.0426 242.189 56.2557 241.024 56.2557ZM258.039 52.233L258.048 47.8778H258.576L262.77 42.9091H266.937L261.304 49.4886H260.443L258.039 52.233ZM254.75 56V38.5455H258.38V56H254.75ZM262.931 56L259.079 50.2983L261.5 47.733L267.184 56H262.931ZM285.165 46.642L281.841 46.8466C281.784 46.5625 281.662 46.3068 281.475 46.0795C281.287 45.8466 281.04 45.6619 280.733 45.5256C280.432 45.3835 280.071 45.3125 279.651 45.3125C279.088 45.3125 278.614 45.4318 278.228 45.6705C277.841 45.9034 277.648 46.2159 277.648 46.608C277.648 46.9205 277.773 47.1847 278.023 47.4006C278.273 47.6165 278.702 47.7898 279.31 47.9205L281.679 48.3977C282.952 48.6591 283.901 49.0795 284.526 49.6591C285.151 50.2386 285.463 51 285.463 51.9432C285.463 52.8011 285.211 53.554 284.705 54.2017C284.205 54.8494 283.517 55.3551 282.642 55.7188C281.773 56.0767 280.77 56.2557 279.634 56.2557C277.901 56.2557 276.52 55.8949 275.492 55.1733C274.469 54.446 273.87 53.4574 273.694 52.2074L277.265 52.0199C277.373 52.5483 277.634 52.9517 278.049 53.2301C278.463 53.5028 278.995 53.6392 279.642 53.6392C280.279 53.6392 280.79 53.517 281.176 53.2727C281.569 53.0227 281.767 52.7017 281.773 52.3097C281.767 51.9801 281.628 51.7102 281.355 51.5C281.083 51.2841 280.662 51.1193 280.094 51.0057L277.827 50.554C276.549 50.2983 275.597 49.8551 274.972 49.2244C274.353 48.5937 274.043 47.7898 274.043 46.8125C274.043 45.9716 274.27 45.2472 274.725 44.6392C275.185 44.0312 275.83 43.5625 276.659 43.233C277.495 42.9034 278.472 42.7386 279.591 42.7386C281.245 42.7386 282.546 43.0881 283.495 43.7869C284.449 44.4858 285.006 45.4375 285.165 46.642Z" fill="#2CA9F2"/>
<path d="M141.216 56H140.716V56.5H141.216V56ZM141.216 38.5455V38.0455H140.716V38.5455H141.216ZM151.486 39.304L151.248 39.7434L151.25 39.7446L151.486 39.304ZM153.617 41.392L153.178 41.6323L153.18 41.6356L153.617 41.392ZM151.435 49.5994L151.204 49.156L151.203 49.1566L151.435 49.5994ZM143.62 50.3409H143.12V50.8409H143.62V50.3409ZM143.62 47.3835V46.8835H143.12V47.3835H143.62ZM149.168 47.017L149.402 47.4587L149.404 47.4576L149.168 47.017ZM150.208 45.9858L149.765 45.7532L149.764 45.7553L150.208 45.9858ZM150.208 42.9432L149.764 43.1737L149.768 43.1806L150.208 42.9432ZM149.168 41.929L148.936 42.3718L148.94 42.374L149.168 41.929ZM144.907 41.5625V41.0625H144.407V41.5625H144.907ZM144.907 56V56.5H145.407V56H144.907ZM141.716 56V38.5455H140.716V56H141.716ZM141.216 39.0455H148.103V38.0455H141.216V39.0455ZM148.103 39.0455C149.364 39.0455 150.405 39.2862 151.248 39.7434L151.725 38.8645C150.704 38.3104 149.489 38.0455 148.103 38.0455V39.0455ZM151.25 39.7446C152.1 40.2007 152.738 40.8287 153.178 41.6323L154.055 41.1518C153.518 40.1713 152.736 39.4073 151.723 38.8634L151.25 39.7446ZM153.18 41.6356C153.627 42.4375 153.858 43.3741 153.858 44.4602H154.858C154.858 43.2282 154.595 42.1194 154.054 41.1485L153.18 41.6356ZM153.858 44.4602C153.858 45.5454 153.625 46.4813 153.173 47.2827L154.044 47.7741C154.592 46.8028 154.858 45.6933 154.858 44.4602H153.858ZM153.173 47.2827C152.723 48.0803 152.072 48.704 151.204 49.156L151.666 50.0429C152.696 49.5062 153.494 48.7492 154.044 47.7741L153.173 47.2827ZM151.203 49.1566C150.348 49.6049 149.289 49.8409 148.009 49.8409V50.8409C149.41 50.8409 150.636 50.5826 151.667 50.0423L151.203 49.1566ZM148.009 49.8409H143.62V50.8409H148.009V49.8409ZM144.12 50.3409V47.3835H143.12V50.3409H144.12ZM143.62 47.8835H147.412V46.8835H143.62V47.8835ZM147.412 47.8835C148.176 47.8835 148.849 47.7527 149.402 47.4587L148.934 46.5754C148.567 46.77 148.069 46.8835 147.412 46.8835V47.8835ZM149.404 47.4576C149.952 47.1637 150.374 46.7497 150.651 46.2163L149.764 45.7553C149.587 46.0969 149.316 46.3704 148.932 46.5765L149.404 47.4576ZM150.65 46.2184C150.926 45.6936 151.057 45.1032 151.057 44.4602H150.057C150.057 44.965 149.955 45.3916 149.765 45.7532L150.65 46.2184ZM151.057 44.4602C151.057 43.8128 150.927 43.2227 150.648 42.7058L149.768 43.1806C149.955 43.5273 150.057 43.9485 150.057 44.4602H151.057ZM150.651 42.7127C150.373 42.1771 149.948 41.7668 149.396 41.484L148.94 42.374C149.32 42.5684 149.588 42.8342 149.764 43.1737L150.651 42.7127ZM149.4 41.4862C148.842 41.1932 148.164 41.0625 147.395 41.0625V42.0625C148.058 42.0625 148.563 42.1761 148.936 42.3718L149.4 41.4862ZM147.395 41.0625H144.907V42.0625H147.395V41.0625ZM144.407 41.5625V56H145.407V41.5625H144.407ZM144.907 55.5H141.216V56.5H144.907V55.5ZM163.742 55.8125L163.536 56.2681L163.539 56.2696L163.742 55.8125ZM162.191 54.5085L161.771 54.7802L161.774 54.7849L162.191 54.5085ZM162.029 50.5114L161.589 50.2737V50.2737L162.029 50.5114ZM163.12 49.3182L162.846 48.8998L163.12 49.3182ZM164.688 48.6364L164.562 48.1524L164.561 48.1527L164.688 48.6364ZM166.546 48.3125L166.594 48.8102L166.598 48.8098L166.546 48.3125ZM168.387 48.0909L168.459 48.5857L168.465 48.5847L168.387 48.0909ZM169.401 47.767L169.121 47.3528L169.401 47.767ZM169.205 45.8324L168.874 46.2075L168.877 46.2102L169.205 45.8324ZM166.213 45.8239L166.51 46.2267L166.513 46.2239L166.213 45.8239ZM165.446 46.8977L165.406 47.3961L165.813 47.4292L165.927 47.0368L165.446 46.8977ZM162.088 46.625L161.6 46.5202L161.48 47.0772L162.048 47.1234L162.088 46.625ZM163.094 44.5625L163.473 44.8891L163.474 44.8873L163.094 44.5625ZM165.029 43.2159L165.213 43.6808L165.214 43.6801L165.029 43.2159ZM169.878 42.9943L169.754 43.4787L169.755 43.4789L169.878 42.9943ZM171.659 43.7869L171.375 44.198L171.377 44.1995L171.659 43.7869ZM172.895 45.1676L172.454 45.4036L172.455 45.4055L172.895 45.1676ZM173.347 56V56.5H173.847V56H173.347ZM169.904 56H169.404V56.5H169.904V56ZM169.904 54.1847H170.404V53.6847H169.904V54.1847ZM169.801 54.1847V53.6847H169.496L169.357 53.9561L169.801 54.1847ZM168.958 55.267L169.286 55.6441L169.29 55.6411L168.958 55.267ZM167.688 55.9915L167.851 56.4642L167.856 56.4625L167.688 55.9915ZM168.429 53.4261L168.658 53.8709L168.663 53.8683L168.429 53.4261ZM169.392 52.5568L168.971 52.2871V52.2871L169.392 52.5568ZM169.742 49.9318H170.242V49.0105L169.469 49.5126L169.742 49.9318ZM169.273 50.1364L169.414 50.6161L169.423 50.6134L169.273 50.1364ZM168.617 50.2983L168.708 50.79L168.719 50.7877L168.617 50.2983ZM167.884 50.4261L167.953 50.9215L167.964 50.9196L167.884 50.4261ZM167.219 50.5199L167.148 50.0249L167.147 50.0252L167.219 50.5199ZM166.103 50.8182L166.3 51.2778L166.103 50.8182ZM165.361 51.3722L165.756 51.6785L165.76 51.6737L165.361 51.3722ZM165.634 53.358L165.339 53.7618L165.346 53.767L165.634 53.358ZM165.975 55.7472C165.198 55.7472 164.524 55.6125 163.945 55.3554L163.539 56.2696C164.266 56.592 165.081 56.7472 165.975 56.7472V55.7472ZM163.948 55.3569C163.376 55.0985 162.934 54.7243 162.607 54.2321L161.774 54.7849C162.209 55.4405 162.8 55.9356 163.536 56.2681L163.948 55.3569ZM162.61 54.2369C162.3 53.7564 162.128 53.1352 162.128 52.3438H161.128C161.128 53.2796 161.332 54.1015 161.771 54.7801L162.61 54.2369ZM162.128 52.3438C162.128 51.6757 162.251 51.152 162.469 50.749L161.589 50.2737C161.272 50.8594 161.128 51.5572 161.128 52.3438H162.128ZM162.469 50.749C162.697 50.3262 163.004 49.9912 163.393 49.7366L162.846 48.8998C162.315 49.2474 161.895 49.7079 161.589 50.2737L162.469 50.749ZM163.393 49.7366C163.804 49.4678 164.276 49.2611 164.815 49.12L164.561 48.1527C163.929 48.3184 163.356 48.5663 162.846 48.8998L163.393 49.7366ZM164.813 49.1203C165.377 48.9739 165.971 48.8703 166.594 48.8102L166.498 47.8148C165.826 47.8797 165.18 47.992 164.562 48.1524L164.813 49.1203ZM166.598 48.8098C167.362 48.7299 167.984 48.6552 168.459 48.5856L168.314 47.5962C167.858 47.6629 167.252 47.736 166.494 47.8152L166.598 48.8098ZM168.465 48.5847C168.951 48.5076 169.378 48.386 169.681 48.1813L169.121 47.3528C169.003 47.4322 168.754 47.5265 168.308 47.5971L168.465 48.5847ZM169.681 48.1813C170.044 47.9361 170.216 47.5618 170.216 47.1364H169.216C169.216 47.2677 169.179 47.3139 169.121 47.3528L169.681 48.1813ZM170.216 47.1364V47.0852H169.216V47.1364H170.216ZM170.216 47.0852C170.216 46.4317 170.004 45.8637 169.532 45.4545L168.877 46.2102C169.087 46.392 169.216 46.6592 169.216 47.0852H170.216ZM169.536 45.4573C169.079 45.0549 168.467 44.8892 167.773 44.8892V45.8892C168.318 45.8892 168.66 46.0189 168.874 46.2075L169.536 45.4573ZM167.773 44.8892C167.049 44.8892 166.412 45.0497 165.913 45.4239L166.513 46.2239C166.787 46.0185 167.19 45.8892 167.773 45.8892V44.8892ZM165.917 45.421C165.448 45.7657 165.124 46.2138 164.966 46.7587L165.927 47.0368C166.019 46.7181 166.206 46.4502 166.51 46.2267L165.917 45.421ZM165.487 46.3994L162.129 46.1266L162.048 47.1234L165.406 47.3961L165.487 46.3994ZM162.577 46.7298C162.731 46.011 163.031 45.4011 163.473 44.8891L162.716 44.2359C162.157 44.8829 161.786 45.6481 161.6 46.5202L162.577 46.7298ZM163.474 44.8873C163.916 44.3703 164.491 43.9665 165.213 43.6808L164.845 42.751C163.987 43.0903 163.272 43.5842 162.714 44.2377L163.474 44.8873ZM165.214 43.6801C165.939 43.3902 166.795 43.2386 167.79 43.2386V42.2386C166.695 42.2386 165.709 42.4053 164.843 42.7517L165.214 43.6801ZM167.79 43.2386C168.478 43.2386 169.132 43.3192 169.754 43.4786L170.002 42.51C169.295 42.3285 168.557 42.2386 167.79 42.2386V43.2386ZM169.755 43.4789C170.373 43.6361 170.911 43.8772 171.375 44.198L171.944 43.3758C171.373 42.9807 170.724 42.6934 170.001 42.5097L169.755 43.4789ZM171.377 44.1995C171.833 44.5118 172.191 44.9113 172.454 45.4036L173.336 44.9316C172.997 44.299 172.531 43.778 171.942 43.3744L171.377 44.1995ZM172.455 45.4055C172.709 45.8743 172.847 46.4563 172.847 47.1705H173.847C173.847 46.3278 173.684 45.5746 173.335 44.9298L172.455 45.4055ZM172.847 47.1705V56H173.847V47.1705H172.847ZM173.347 55.5H169.904V56.5H173.347V55.5ZM170.404 56V54.1847H169.404V56H170.404ZM169.904 53.6847H169.801V54.6847H169.904V53.6847ZM169.357 53.9561C169.176 54.3088 168.933 54.6206 168.626 54.893L169.29 55.6411C169.687 55.2885 170.007 54.8787 170.246 54.4132L169.357 53.9561ZM168.629 54.89C168.33 55.151 167.963 55.3628 167.52 55.5205L167.856 56.4625C168.402 56.2679 168.881 55.9967 169.286 55.6441L168.629 54.89ZM167.525 55.5188C167.094 55.6674 166.58 55.7472 165.975 55.7472V56.7472C166.665 56.7472 167.293 56.6564 167.851 56.4642L167.525 55.5188ZM167.015 54.2415C167.615 54.2415 168.167 54.1229 168.658 53.8709L168.201 52.9814C167.873 53.1499 167.482 53.2415 167.015 53.2415V54.2415ZM168.663 53.8683C169.143 53.6151 169.531 53.2681 169.813 52.8265L168.971 52.2871C168.788 52.5728 168.534 52.8054 168.196 52.9839L168.663 53.8683ZM169.813 52.8265C170.101 52.377 170.242 51.8703 170.242 51.321H169.242C169.242 51.6922 169.149 52.0093 168.971 52.2871L169.813 52.8265ZM170.242 51.321V49.9318H169.242V51.321H170.242ZM169.469 49.5126C169.408 49.5522 169.299 49.604 169.123 49.6594L169.423 50.6134C169.645 50.5437 169.848 50.4591 170.014 50.351L169.469 49.5126ZM169.132 49.6567C168.954 49.709 168.749 49.7599 168.514 49.8089L168.719 50.7877C168.974 50.7344 169.206 50.6774 169.414 50.616L169.132 49.6567ZM168.525 49.8067C168.285 49.8515 168.044 49.8935 167.804 49.9326L167.964 50.9196C168.212 50.8793 168.46 50.836 168.708 50.7899L168.525 49.8067ZM167.815 49.9309C167.57 49.9651 167.348 49.9964 167.148 50.0249L167.29 51.0149C167.488 50.9865 167.709 50.9554 167.953 50.9213L167.815 49.9309ZM167.147 50.0252C166.688 50.0925 166.272 50.2016 165.906 50.3586L166.3 51.2778C166.57 51.162 166.898 51.0723 167.292 51.0146L167.147 50.0252ZM165.906 50.3586C165.522 50.5228 165.2 50.7565 164.962 51.0706L165.76 51.6737C165.875 51.5219 166.046 51.3863 166.3 51.2778L165.906 50.3586ZM164.966 51.0659C164.71 51.3963 164.597 51.794 164.597 52.2244H165.597C165.597 51.9731 165.66 51.8026 165.756 51.6784L164.966 51.0659ZM164.597 52.2244C164.597 52.8571 164.836 53.3944 165.339 53.7618L165.929 52.9541C165.716 52.7988 165.597 52.5804 165.597 52.2244H164.597ZM165.346 53.767C165.813 54.0953 166.381 54.2415 167.015 54.2415V53.2415C166.535 53.2415 166.182 53.132 165.921 52.9489L165.346 53.767ZM185.349 38.5455H185.849V38.0455H185.349V38.5455ZM185.349 56V56.5H185.849V56H185.349ZM181.718 56H181.218V56.5H181.718V56ZM181.718 38.5455V38.0455H181.218V38.5455H181.718ZM184.849 38.5455V56H185.849V38.5455H184.849ZM185.349 55.5H181.718V56.5H185.349V55.5ZM182.218 56V38.5455H181.218V56H182.218ZM181.718 39.0455H185.349V38.0455H181.718V39.0455ZM193.88 56H193.38V56.5H193.88V56ZM193.88 38.5455V38.0455H193.38V38.5455H193.88ZM197.511 38.5455H198.011V38.0455H197.511V38.5455ZM197.511 45.108H197.011V45.608H197.511V45.108ZM197.622 45.108V45.608H197.945L198.077 45.3137L197.622 45.108ZM198.312 44.0341L197.928 43.7146L197.927 43.7152L198.312 44.0341ZM199.505 43.1136L199.729 43.5609L199.731 43.5598L199.505 43.1136ZM203.988 43.4886L203.725 43.9136L203.727 43.915L203.988 43.4886ZM205.923 45.7301L205.473 45.9476L205.473 45.9486L205.923 45.7301ZM205.94 53.1705L205.487 52.9582L205.487 52.9593L205.94 53.1705ZM204.031 55.446L204.3 55.8675L204.301 55.867L204.031 55.446ZM199.539 55.8636L199.324 56.315L199.326 56.3159L199.539 55.8636ZM198.338 54.9858L197.961 55.3146L197.964 55.3176L198.338 54.9858ZM197.622 53.9034L198.077 53.697L197.944 53.4034H197.622V53.9034ZM197.46 53.9034V53.4034H196.96V53.9034H197.46ZM197.46 56V56.5H197.96V56H197.46ZM198.696 52.8466L198.385 53.2386L198.389 53.2413L198.696 52.8466ZM201.687 52.8381L201.998 53.2301L202.001 53.2274L201.687 52.8381ZM202.616 51.4744L202.147 51.3014L202.146 51.3039L202.616 51.4744ZM202.625 47.4602L203.094 47.2882V47.2882L202.625 47.4602ZM201.696 46.1136L202.006 45.7216L201.696 46.1136ZM198.687 46.0966L198.384 45.6992L198.381 45.7013L198.687 46.0966ZM197.758 47.4261L197.29 47.2501L197.758 47.4261ZM194.38 56V38.5455H193.38V56H194.38ZM193.88 39.0455H197.511V38.0455H193.88V39.0455ZM197.011 38.5455V45.108H198.011V38.5455H197.011ZM197.511 45.608H197.622V44.608H197.511V45.608ZM198.077 45.3137C198.215 45.01 198.419 44.6895 198.697 44.353L197.927 43.7152C197.603 44.1059 197.347 44.5014 197.166 44.9022L198.077 45.3137ZM198.697 44.3536C198.954 44.0444 199.294 43.7785 199.729 43.5609L199.282 42.6664C198.74 42.9374 198.284 43.2851 197.928 43.7146L198.697 44.3536ZM199.731 43.5598C200.136 43.3547 200.667 43.2386 201.346 43.2386V42.2386C200.559 42.2386 199.863 42.3725 199.28 42.6675L199.731 43.5598ZM201.346 43.2386C202.208 43.2386 202.998 43.463 203.725 43.9136L204.252 43.0636C203.365 42.5143 202.393 42.2386 201.346 42.2386V43.2386ZM203.727 43.915C204.439 44.3511 205.024 45.0186 205.473 45.9476L206.373 45.5127C205.856 44.4416 205.151 43.6149 204.249 43.0623L203.727 43.915ZM205.473 45.9486C205.913 46.855 206.147 48.0217 206.147 49.4716H207.147C207.147 47.9215 206.898 46.5939 206.373 45.5117L205.473 45.9486ZM206.147 49.4716C206.147 50.8805 205.92 52.0364 205.487 52.9582L206.393 53.3827C206.904 52.2932 207.147 50.9831 207.147 49.4716H206.147ZM205.487 52.9593C205.055 53.8867 204.477 54.5665 203.761 55.025L204.301 55.867C205.199 55.2914 205.893 54.4542 206.393 53.3816L205.487 52.9593ZM203.762 55.0246C203.045 55.4822 202.241 55.7131 201.338 55.7131V56.7131C202.423 56.7131 203.415 56.4326 204.3 55.8675L203.762 55.0246ZM201.338 55.7131C200.686 55.7131 200.164 55.6052 199.753 55.4113L199.326 56.3159C199.904 56.588 200.58 56.7131 201.338 56.7131V55.7131ZM199.755 55.4123C199.317 55.2039 198.974 54.9493 198.712 54.654L197.964 55.3176C198.327 55.7269 198.784 56.0575 199.324 56.315L199.755 55.4123ZM198.714 54.657C198.428 54.329 198.218 54.0087 198.077 53.697L197.166 54.1098C197.355 54.5254 197.622 54.9267 197.961 55.3146L198.714 54.657ZM197.622 53.4034H197.46V54.4034H197.622V53.4034ZM196.96 53.9034V56H197.96V53.9034H196.96ZM197.46 55.5H193.88V56.5H197.46V55.5ZM196.934 49.4545C196.934 50.2778 197.048 51.0183 197.29 51.666L198.227 51.3169C198.036 50.8056 197.934 50.1881 197.934 49.4545H196.934ZM197.29 51.666C197.531 52.3151 197.892 52.8483 198.385 53.2386L199.006 52.4546C198.681 52.1971 198.417 51.8269 198.227 51.3169L197.29 51.666ZM198.389 53.2413C198.897 53.6364 199.506 53.8239 200.187 53.8239V52.8239C199.698 52.8239 199.313 52.6931 199.003 52.4519L198.389 53.2413ZM200.187 53.8239C200.875 53.8239 201.488 53.6331 201.997 53.2301L201.377 52.446C201.068 52.6908 200.681 52.8239 200.187 52.8239V53.8239ZM202.001 53.2274C202.493 52.8313 202.85 52.2953 203.086 51.6449L202.146 51.3039C201.962 51.8127 201.7 52.1857 201.373 52.4487L202.001 53.2274ZM203.085 51.6475C203.326 50.9962 203.44 50.2624 203.44 49.4545H202.44C202.44 50.1695 202.339 50.7823 202.147 51.3014L203.085 51.6475ZM203.44 49.4545C203.44 48.6536 203.329 47.9285 203.094 47.2882L202.155 47.6322C202.341 48.1397 202.44 48.7442 202.44 49.4545H203.44ZM203.094 47.2882C202.858 46.6428 202.499 46.1119 202.006 45.7216L201.385 46.5057C201.71 46.7631 201.971 47.1299 202.155 47.6322L203.094 47.2882ZM202.006 45.7216C201.496 45.318 200.879 45.1278 200.187 45.1278V46.1278C200.688 46.1278 201.077 46.2616 201.385 46.5057L202.006 45.7216ZM200.187 45.1278C199.503 45.1278 198.892 45.3106 198.384 45.6993L198.991 46.4939C199.3 46.2576 199.689 46.1278 200.187 46.1278V45.1278ZM198.381 45.7013C197.891 46.081 197.532 46.6071 197.29 47.2501L198.226 47.6022C198.416 47.0974 198.677 46.7372 198.993 46.4919L198.381 45.7013ZM197.29 47.2501C197.048 47.8931 196.934 48.6315 196.934 49.4545H197.934C197.934 48.7208 198.036 48.1069 198.226 47.6022L197.29 47.2501ZM223.02 50.4261H222.52L222.52 50.431L223.02 50.4261ZM223.02 42.9091V42.4091H222.52V42.9091H223.02ZM226.65 42.9091H227.15V42.4091H226.65V42.9091ZM226.65 56V56.5H227.15V56H226.65ZM223.164 56H222.664V56.5H223.164V56ZM223.164 53.6222H223.664V53.1222H223.164V53.6222ZM223.028 53.6222V53.1222H222.685L222.561 53.4424L223.028 53.6222ZM221.554 55.4716L221.273 55.0577L221.272 55.0588L221.554 55.4716ZM216.747 55.5739L217.004 55.1448L216.747 55.5739ZM215.187 53.8778L214.741 54.1028L214.742 54.1056L215.187 53.8778ZM214.625 51.2443H214.125L214.125 51.2471L214.625 51.2443ZM214.625 42.9091V42.4091H214.125V42.9091H214.625ZM218.255 42.9091H218.755V42.4091H218.255V42.9091ZM218.255 50.5966H217.755L217.755 50.6003L218.255 50.5966ZM218.877 52.429L219.247 52.0922L218.877 52.429ZM221.75 52.804L221.981 53.2472L221.986 53.2444L221.75 52.804ZM222.67 51.9006L222.241 51.6433L222.239 51.6479L222.67 51.9006ZM223.52 50.4261V42.9091H222.52V50.4261H223.52ZM223.02 43.4091H226.65V42.4091H223.02V43.4091ZM226.15 42.9091V56H227.15V42.9091H226.15ZM226.65 55.5H223.164V56.5H226.65V55.5ZM223.664 56V53.6222H222.664V56H223.664ZM223.164 53.1222H223.028V54.1222H223.164V53.1222ZM222.561 53.4424C222.303 54.1132 221.877 54.6484 221.273 55.0577L221.834 55.8855C222.605 55.363 223.162 54.6652 223.495 53.8019L222.561 53.4424ZM221.272 55.0588C220.688 55.4578 219.958 55.6705 219.056 55.6705V56.6705C220.121 56.6705 221.056 56.4172 221.836 55.8844L221.272 55.0588ZM219.056 55.6705C218.26 55.6705 217.581 55.4903 217.004 55.1448L216.49 56.0029C217.242 56.4529 218.103 56.6705 219.056 56.6705V55.6705ZM217.004 55.1448C216.424 54.7983 215.967 54.3051 215.632 53.6501L214.742 54.1056C215.157 54.9165 215.74 55.554 216.49 56.0029L217.004 55.1448ZM215.634 53.6529C215.307 53.0037 215.13 52.2056 215.125 51.2415L214.125 51.2471C214.131 52.3285 214.329 53.2861 214.741 54.1028L215.634 53.6529ZM215.125 51.2443V42.9091H214.125V51.2443H215.125ZM214.625 43.4091H218.255V42.4091H214.625V43.4091ZM217.755 42.9091V50.5966H218.755V42.9091H217.755ZM217.755 50.6003C217.762 51.4616 217.995 52.203 218.508 52.7658L219.247 52.0922C218.942 51.7572 218.76 51.277 218.755 50.5929L217.755 50.6003ZM218.508 52.7658C219.025 53.3329 219.715 53.6023 220.522 53.6023V52.6023C219.955 52.6023 219.548 52.4228 219.247 52.0922L218.508 52.7658ZM220.522 53.6023C221.039 53.6023 221.528 53.4841 221.981 53.2472L221.518 52.3608C221.21 52.5216 220.881 52.6023 220.522 52.6023V53.6023ZM221.986 53.2444C222.453 52.9935 222.825 52.6248 223.102 52.1533L222.239 51.6479C222.049 51.9718 221.807 52.2054 221.513 52.3635L221.986 53.2444ZM223.099 52.1578C223.396 51.6627 223.526 51.0749 223.52 50.4213L222.52 50.431C222.525 50.9479 222.422 51.343 222.241 51.6433L223.099 52.1578ZM237.564 55.4034L237.307 55.8326L237.31 55.8344L237.564 55.4034ZM235.348 53.017L234.901 53.2417L234.902 53.2436L235.348 53.017ZM235.356 45.9773L234.911 45.7487L234.911 45.7497L235.356 45.9773ZM237.581 43.5994L237.835 44.0297L237.837 44.0286L237.581 43.5994ZM244.007 43.3608L244.224 42.9106V42.9106L244.007 43.3608ZM246.87 47.75V48.25H247.396L247.37 47.7248L246.87 47.75ZM243.444 47.75L242.95 47.8231L243.013 48.25H243.444V47.75ZM242.677 46.1733L242.326 46.5293L242.331 46.5342L242.677 46.1733ZM239.592 46.0284L239.886 46.433L239.887 46.4323L239.592 46.0284ZM238.612 51.5852L238.146 51.7662L238.147 51.7701L238.612 51.5852ZM239.592 52.9233L239.887 52.5194L239.592 52.9233ZM242.183 53.1278L241.956 52.6821L241.953 52.6837L242.183 53.1278ZM243.01 52.3864L242.595 52.1074L242.594 52.109L243.01 52.3864ZM243.444 51.2017V50.7017H243.013L242.95 51.1284L243.444 51.2017ZM246.87 51.2017L247.37 51.2301L247.4 50.7017H246.87V51.2017ZM246.052 53.8438L245.631 53.5737L245.631 53.5745L246.052 53.8438ZM244.049 55.6165L243.826 55.1693L244.049 55.6165ZM241.024 55.7557C239.754 55.7557 238.692 55.4873 237.817 54.9724L237.31 55.8344C238.367 56.4559 239.611 56.7557 241.024 56.7557V55.7557ZM237.82 54.9742C236.942 54.4497 236.269 53.7253 235.793 52.7905L234.902 53.2436C235.461 54.3429 236.264 55.2094 237.307 55.8326L237.82 54.9742ZM235.794 52.7924C235.323 51.8556 235.081 50.7643 235.081 49.5057H234.081C234.081 50.8948 234.349 52.1444 234.901 53.2416L235.794 52.7924ZM235.081 49.5057C235.081 48.2297 235.326 47.1341 235.801 46.2049L234.911 45.7497C234.352 46.8432 234.081 48.0999 234.081 49.5057H235.081ZM235.801 46.2058C236.282 45.2704 236.958 44.5487 237.835 44.0297L237.326 43.1691C236.283 43.7865 235.476 44.65 234.911 45.7487L235.801 46.2058ZM237.837 44.0286C238.707 43.509 239.757 43.2386 241.007 43.2386V42.2386C239.609 42.2386 238.375 42.5422 237.324 43.1702L237.837 44.0286ZM241.007 43.2386C242.088 43.2386 243.011 43.4349 243.789 43.8109L244.224 42.9106C243.286 42.4572 242.209 42.2386 241.007 42.2386V43.2386ZM243.789 43.8109C244.571 44.1892 245.18 44.7139 245.628 45.3853L246.46 44.8306C245.907 44.002 245.158 43.362 244.224 42.9106L243.789 43.8109ZM245.628 45.3853C246.072 46.0514 246.324 46.8425 246.371 47.7752L247.37 47.7248C247.315 46.6348 247.016 45.6645 246.46 44.8306L245.628 45.3853ZM246.87 47.25H243.444V48.25H246.87V47.25ZM243.939 47.6769C243.829 46.9309 243.53 46.2981 243.023 45.8124L242.331 46.5342C242.654 46.8439 242.867 47.2623 242.95 47.8231L243.939 47.6769ZM243.028 45.8173C242.511 45.3071 241.84 45.0682 241.066 45.0682V46.0682C241.622 46.0682 242.025 46.2327 242.326 46.5293L243.028 45.8173ZM241.066 45.0682C240.407 45.0682 239.81 45.2501 239.297 45.6245L239.887 46.4323C240.215 46.1931 240.601 46.0682 241.066 46.0682V45.0682ZM239.298 45.6238C238.792 45.9912 238.417 46.5153 238.156 47.163L239.084 47.5359C239.29 47.0245 239.562 46.6679 239.886 46.433L239.298 45.6238ZM238.156 47.163C237.893 47.8174 237.771 48.5861 237.771 49.4545H238.771C238.771 48.6753 238.881 48.0406 239.084 47.5359L238.156 47.163ZM237.771 49.4545C237.771 50.3324 237.89 51.1077 238.146 51.7662L239.078 51.4042C238.879 50.8923 238.771 50.2471 238.771 49.4545H237.771ZM238.147 51.7701C238.408 52.4244 238.786 52.9542 239.297 53.3272L239.887 52.5194C239.557 52.2788 239.282 51.9165 239.076 51.4003L238.147 51.7701ZM239.297 53.3272C239.81 53.7016 240.407 53.8835 241.066 53.8835V52.8835C240.601 52.8835 240.215 52.7586 239.887 52.5194L239.297 53.3272ZM241.066 53.8835C241.552 53.8835 242.004 53.7833 242.413 53.5719L241.953 52.6837C241.703 52.8133 241.411 52.8835 241.066 52.8835V53.8835ZM242.41 53.5735C242.824 53.3628 243.164 53.0564 243.426 52.6637L242.594 52.109C242.424 52.364 242.212 52.552 241.956 52.6821L242.41 53.5735ZM243.425 52.6654C243.694 52.2643 243.862 51.7963 243.939 51.275L242.95 51.1284C242.891 51.5276 242.768 51.8493 242.595 52.1074L243.425 52.6654ZM243.444 51.7017H246.87V50.7017H243.444V51.7017ZM246.371 51.1733C246.319 52.0968 246.069 52.8923 245.631 53.5737L246.473 54.1138C247.013 53.2724 247.308 52.3066 247.37 51.2301L246.371 51.1733ZM245.631 53.5745C245.2 54.2493 244.603 54.7809 243.826 55.1693L244.273 56.0637C245.201 55.5998 245.939 54.9496 246.474 54.113L245.631 53.5745ZM243.826 55.1693C243.057 55.5538 242.128 55.7557 241.024 55.7557V56.7557C242.249 56.7557 243.338 56.5314 244.273 56.0637L243.826 55.1693ZM258.039 52.233L257.539 52.232L257.537 53.5658L258.416 52.5624L258.039 52.233ZM258.048 47.8778V47.3778H257.549L257.548 47.8769L258.048 47.8778ZM258.576 47.8778V48.3778H258.809L258.958 48.2003L258.576 47.8778ZM262.77 42.9091V42.4091H262.537L262.387 42.5866L262.77 42.9091ZM266.937 42.9091L267.317 43.2343L268.023 42.4091H266.937V42.9091ZM261.304 49.4886V49.9886H261.534L261.683 49.8138L261.304 49.4886ZM260.443 49.4886V48.9886H260.216L260.067 49.1592L260.443 49.4886ZM254.75 56H254.25V56.5H254.75V56ZM254.75 38.5455V38.0455H254.25V38.5455H254.75ZM258.38 38.5455H258.88V38.0455H258.38V38.5455ZM258.38 56V56.5H258.88V56H258.38ZM262.931 56L262.517 56.2799L262.666 56.5H262.931V56ZM259.079 50.2983L258.716 49.9552L258.441 50.2464L258.665 50.5782L259.079 50.2983ZM261.5 47.733L261.912 47.4497L261.561 46.9395L261.136 47.3898L261.5 47.733ZM267.184 56V56.5H268.135L267.596 55.7167L267.184 56ZM258.539 52.2339L258.548 47.8788L257.548 47.8769L257.539 52.232L258.539 52.2339ZM258.048 48.3778H258.576V47.3778H258.048V48.3778ZM258.958 48.2003L263.152 43.2316L262.387 42.5866L258.194 47.5554L258.958 48.2003ZM262.77 43.4091H266.937V42.4091H262.77V43.4091ZM266.557 42.5839L260.924 49.1634L261.683 49.8138L267.317 43.2343L266.557 42.5839ZM261.304 48.9886H260.443V49.9886H261.304V48.9886ZM260.067 49.1592L257.663 51.9035L258.416 52.5624L260.819 49.8181L260.067 49.1592ZM255.25 56V38.5455H254.25V56H255.25ZM254.75 39.0455H258.38V38.0455H254.75V39.0455ZM257.88 38.5455V56H258.88V38.5455H257.88ZM258.38 55.5H254.75V56.5H258.38V55.5ZM263.346 55.7201L259.493 50.0184L258.665 50.5782L262.517 56.2799L263.346 55.7201ZM259.443 50.6414L261.863 48.0761L261.136 47.3898L258.716 49.9552L259.443 50.6414ZM261.088 48.0163L266.772 56.2833L267.596 55.7167L261.912 47.4497L261.088 48.0163ZM267.184 55.5H262.931V56.5H267.184V55.5ZM285.165 46.642L285.196 47.1411L285.731 47.1082L285.661 46.5766L285.165 46.642ZM281.841 46.8466L281.351 46.9446L281.437 47.3724L281.872 47.3456L281.841 46.8466ZM281.475 46.0795L281.085 46.3931L281.089 46.3977L281.475 46.0795ZM280.733 45.5256L280.52 45.9779L280.53 45.9825L280.733 45.5256ZM278.228 45.6705L278.486 46.0987L278.49 46.0959L278.228 45.6705ZM278.023 47.4006L277.696 47.779V47.779L278.023 47.4006ZM279.31 47.9205L279.205 48.4093L279.211 48.4106L279.31 47.9205ZM281.679 48.3977L281.78 47.9079L281.778 47.9076L281.679 48.3977ZM284.526 49.6591L284.186 50.0257L284.526 49.6591ZM284.705 54.2017L284.311 53.894L284.309 53.8962L284.705 54.2017ZM282.642 55.7188L282.833 56.1811L282.834 56.1805L282.642 55.7188ZM275.492 55.1733L275.202 55.5808L275.205 55.5826L275.492 55.1733ZM273.694 52.2074L273.667 51.7081L273.122 51.7367L273.198 52.2772L273.694 52.2074ZM277.265 52.0199L277.754 51.9198L277.668 51.498L277.238 51.5206L277.265 52.0199ZM278.049 53.2301L277.77 53.6453L277.774 53.6479L278.049 53.2301ZM281.176 53.2727L281.444 53.6953L281.445 53.6943L281.176 53.2727ZM281.773 52.3097L282.273 52.3169L282.273 52.309L282.273 52.301L281.773 52.3097ZM281.355 51.5L281.045 51.8921L281.05 51.896L281.355 51.5ZM280.094 51.0057L280.192 50.5154L280.192 50.5153L280.094 51.0057ZM277.827 50.554L277.729 51.0443L277.729 51.0443L277.827 50.554ZM274.972 49.2244L274.615 49.5748L274.617 49.5764L274.972 49.2244ZM274.725 44.6392L274.326 44.3374L274.324 44.3398L274.725 44.6392ZM276.659 43.233L276.476 42.7678L276.475 42.7683L276.659 43.233ZM283.495 43.7869L283.198 44.1895L283.199 44.1904L283.495 43.7869ZM285.134 46.143L281.811 46.3475L281.872 47.3456L285.196 47.1411L285.134 46.143ZM282.332 46.7485C282.258 46.3821 282.1 46.0511 281.86 45.7614L281.089 46.3977C281.225 46.5625 281.311 46.7429 281.351 46.9446L282.332 46.7485ZM281.864 45.766C281.621 45.4639 281.307 45.2333 280.936 45.0687L280.53 45.9825C280.773 46.0906 280.953 46.2293 281.085 46.3931L281.864 45.766ZM280.947 45.0734C280.564 44.8927 280.126 44.8125 279.651 44.8125V45.8125C280.016 45.8125 280.301 45.8743 280.52 45.9778L280.947 45.0734ZM279.651 44.8125C279.018 44.8125 278.447 44.9472 277.965 45.2451L278.49 46.0959C278.781 45.9164 279.159 45.8125 279.651 45.8125V44.8125ZM277.969 45.2423C277.46 45.5495 277.148 46.0114 277.148 46.608H278.148C278.148 46.4204 278.223 46.2573 278.486 46.0986L277.969 45.2423ZM277.148 46.608C277.148 47.0749 277.343 47.4743 277.696 47.779L278.35 47.0222C278.203 46.8951 278.148 46.766 278.148 46.608H277.148ZM277.696 47.779C278.044 48.0794 278.576 48.274 279.205 48.4093L279.415 47.4316C278.829 47.3056 278.502 47.1535 278.35 47.0222L277.696 47.779ZM279.211 48.4106L281.581 48.8879L281.778 47.9076L279.409 47.4303L279.211 48.4106ZM281.579 48.8875C282.805 49.1394 283.654 49.5328 284.186 50.0257L284.866 49.2925C284.147 48.6263 283.099 48.1788 281.78 47.9079L281.579 48.8875ZM284.186 50.0257C284.697 50.5 284.963 51.1227 284.963 51.9432H285.963C285.963 50.8773 285.604 49.9773 284.866 49.2925L284.186 50.0257ZM284.963 51.9432C284.963 52.6949 284.745 53.3383 284.311 53.894L285.099 54.5094C285.676 53.7697 285.963 52.9073 285.963 51.9432H284.963ZM284.309 53.8962C283.87 54.4647 283.258 54.9215 282.451 55.257L282.834 56.1805C283.777 55.7887 284.54 55.2341 285.101 54.5072L284.309 53.8962ZM282.452 55.2564C281.654 55.5849 280.718 55.7557 279.634 55.7557V56.7557C280.822 56.7557 281.892 56.5685 282.833 56.1811L282.452 55.2564ZM279.634 55.7557C277.966 55.7557 276.697 55.408 275.779 54.764L275.205 55.5826C276.344 56.3818 277.836 56.7557 279.634 56.7557V55.7557ZM275.782 54.7658C274.872 54.1187 274.346 53.2525 274.189 52.1376L273.198 52.2772C273.394 53.6622 274.067 54.7734 275.202 55.5808L275.782 54.7658ZM273.72 52.7067L277.291 52.5192L277.238 51.5206L273.667 51.7081L273.72 52.7067ZM276.775 52.12C276.907 52.7658 277.237 53.2875 277.77 53.6453L278.327 52.815C278.031 52.6159 277.838 52.3308 277.754 51.9198L276.775 52.12ZM277.774 53.6479C278.292 53.9884 278.926 54.1392 279.642 54.1392V53.1392C279.063 53.1392 278.635 53.0173 278.323 52.8123L277.774 53.6479ZM279.642 54.1392C280.338 54.1392 280.952 54.0064 281.444 53.6953L280.909 52.8501C280.628 53.0277 280.22 53.1392 279.642 53.1392V54.1392ZM281.445 53.6943C281.949 53.3733 282.264 52.9103 282.273 52.3169L281.273 52.3024C281.27 52.4931 281.188 52.6722 280.908 52.8511L281.445 53.6943ZM282.273 52.301C282.265 51.8118 282.048 51.4022 281.661 51.104L281.05 51.896C281.209 52.0182 281.27 52.1484 281.273 52.3183L282.273 52.301ZM281.666 51.108C281.303 50.8206 280.793 50.6355 280.192 50.5154L279.996 51.496C280.532 51.6032 280.863 51.7475 281.045 51.892L281.666 51.108ZM280.192 50.5153L277.925 50.0636L277.729 51.0443L279.996 51.496L280.192 50.5153ZM277.925 50.0637C276.701 49.8189 275.856 49.4066 275.327 48.8725L274.617 49.5764C275.338 50.3036 276.396 50.7777 277.729 51.0443L277.925 50.0637ZM275.329 48.8741C274.811 48.3472 274.543 47.6739 274.543 46.8125H273.543C273.543 47.9057 273.894 48.8403 274.615 49.5748L275.329 48.8741ZM274.543 46.8125C274.543 46.0673 274.742 45.4508 275.125 44.9386L274.324 44.3398C273.798 45.0435 273.543 45.8759 273.543 46.8125H274.543ZM275.123 44.941C275.52 44.4175 276.085 43.9993 276.844 43.6976L276.475 42.7683C275.575 43.1257 274.85 43.645 274.326 44.3374L275.123 44.941ZM276.843 43.6981C277.607 43.3965 278.52 43.2386 279.591 43.2386V42.2386C278.424 42.2386 277.382 42.4103 276.476 42.7678L276.843 43.6981ZM279.591 43.2386C281.18 43.2386 282.364 43.5749 283.198 44.1895L283.791 43.3843C282.728 42.6012 281.31 42.2386 279.591 42.2386V43.2386ZM283.199 44.1904C284.04 44.8062 284.528 45.6341 284.669 46.7075L285.661 46.5766C285.484 45.2409 284.858 44.1654 283.79 43.3835L283.199 44.1904Z" fill="#2CA9F2"/>
</svg>
