<svg width="62" height="63" viewBox="0 0 62 63" fill="none" xmlns="http://www.w3.org/2000/svg">
<circle cx="30.73" cy="31.4993" r="29.73" fill="#033F59" stroke="#F9F9F9" stroke-width="2"/>
<path d="M28.8719 29.6398C27.6145 30.8972 27.6145 32.934 28.8719 34.1914C30.1282 35.4476 32.1661 35.4488 33.4236 34.1914C34.6798 32.934 34.6798 30.8972 33.4236 29.6398C32.1661 28.3824 30.1294 28.3824 28.8719 29.6398Z" fill="#35FAA0"/>
<path d="M27.8696 35.755C27.779 35.4832 27.566 35.2702 27.2953 35.1807L21.4319 33.2267C21.1056 33.1179 20.7454 33.2029 20.5018 33.4464L19.2659 34.6823C18.9114 35.0368 18.9114 35.6123 19.2659 35.968L27.0834 43.7854C27.438 44.1399 28.0135 44.1399 28.3692 43.7854L29.6051 42.5495C29.8486 42.3059 29.9336 41.9457 29.8248 41.6195L27.8707 35.7562L27.8696 35.755Z" fill="#38BCFA"/>
<path d="M34.4134 28.0655C34.504 28.3374 34.717 28.5504 34.9877 28.6399L40.8511 30.5939C41.1774 30.7027 41.5376 30.6177 41.7812 30.3742L43.0171 29.1383C43.3716 28.7837 43.3716 28.2083 43.0171 27.8526L35.1996 20.0352C34.845 19.6806 34.2695 19.6806 33.9138 20.0352L32.6779 21.2711C32.4344 21.5146 32.3494 21.8749 32.4582 22.2011L34.4123 28.0644L34.4134 28.0655Z" fill="#38BCFA"/>
<path d="M41.7874 33.4448C41.5439 33.2013 41.1836 33.1163 40.8574 33.2251L34.994 35.1791C34.7221 35.2697 34.5091 35.4827 34.4197 35.7534L32.4656 41.6167C32.3568 41.943 32.4418 42.3032 32.6853 42.5468L33.9212 43.7826C34.2758 44.1372 34.8513 44.1372 35.207 43.7826L43.0245 35.9653C43.379 35.6107 43.379 35.0353 43.0245 34.6796L41.7886 33.4437L41.7874 33.4448Z" fill="#38BCFA"/>
<path d="M20.5165 30.3755C20.7601 30.619 21.1203 30.704 21.4465 30.5952L27.3099 28.6412C27.5818 28.5505 27.7948 28.3376 27.8843 28.0668L29.8384 22.2035C29.9471 21.8773 29.8622 21.5171 29.6186 21.2735L28.3827 20.0377C28.0281 19.6831 27.4527 19.6831 27.097 20.0377L19.2806 27.855C18.926 28.2096 18.926 28.785 19.2806 29.1407L20.5165 30.3766V30.3755Z" fill="#38BCFA"/>
</svg>
