<svg width="138" height="25" viewBox="0 0 138 25" fill="none" xmlns="http://www.w3.org/2000/svg">
<path d="M17.5668 2.86956C19.0636 4.22603 19.812 6.09546 19.812 8.48097C19.812 10.8665 19.0636 12.7702 17.5668 14.1251C16.07 15.4816 13.9667 16.1582 11.2552 16.1582H5.65933V24.0632H0.128906V0.836426H11.2552C13.9667 0.836426 16.07 1.51466 17.5668 2.86956ZM13.1917 10.9694C13.8528 10.3738 14.1834 9.54431 14.1834 8.48097C14.1834 7.41762 13.8466 6.59439 13.1746 6.00814C12.5026 5.4219 11.5375 5.13034 10.2792 5.13034H5.65933V11.8643H10.2792C11.5577 11.8643 12.5291 11.5665 13.1902 10.9694H13.1917Z" fill="black"/>
<path d="M37.7058 20.3548V24.0641C37.1414 24.2371 36.393 24.3244 35.4606 24.3244C34.3754 24.3244 33.5085 24.167 32.8583 23.852C32.2081 23.5386 31.7404 23.0335 31.4597 22.3396H31.3303C30.8095 23.0116 30.0892 23.5386 29.1677 23.9175C28.2447 24.2964 27.2421 24.4866 26.1585 24.4866C25.0749 24.4866 24.0817 24.2808 23.182 23.8692C22.2824 23.4576 21.5651 22.8666 21.035 22.0964C20.5033 21.3262 20.2383 20.4203 20.2383 19.3804C20.2383 17.6232 20.7965 16.3166 21.9144 15.4606C23.0308 14.6047 24.7396 14.0247 27.0379 13.7206C28.6423 13.5039 29.7321 13.2607 30.3075 12.9878C30.8813 12.7165 31.1697 12.3314 31.1697 11.8325C31.1697 11.226 30.9577 10.7536 30.5351 10.4168C30.1126 10.08 29.4998 9.91317 28.6969 9.91317C27.9594 9.91317 27.3248 10.119 26.7931 10.5322C26.2614 10.9438 25.8872 11.5409 25.6705 12.3205L20.8557 11.7358C21.2237 10.066 22.114 8.75939 23.5235 7.8161C24.933 6.87281 26.6902 6.40039 28.7935 6.40039C31.3085 6.40039 33.1951 6.91023 34.4534 7.92992C35.7116 8.94961 36.34 10.3591 36.34 12.1584V19.4458C36.34 19.8356 36.3992 20.1022 36.5193 20.2426C36.6378 20.3845 36.828 20.4531 37.0884 20.4531C37.3488 20.4531 37.5546 20.4203 37.7074 20.3548H37.7058ZM30.0611 16.2231C29.5622 16.3525 28.9011 16.4834 28.0763 16.6129C27.2733 16.7423 26.645 17.0089 26.1897 17.4096C25.7344 17.8103 25.5068 18.3591 25.5068 19.0529C25.5068 19.6828 25.697 20.1802 26.0759 20.5497C26.4547 20.9192 26.9708 21.1032 27.621 21.1032C28.162 21.1032 28.7046 20.9676 29.2472 20.6963C29.7898 20.425 30.2451 20.0134 30.6131 19.4599C30.9811 18.9064 31.1666 18.2188 31.1666 17.394V15.7678C30.928 15.9409 30.5585 16.0937 30.0611 16.2231Z" fill="black"/>
<path d="M44.1226 0.510498V24.0631H38.9492V0.510498H44.1226Z" fill="black"/>
<path d="M61.2768 7.50487C62.3931 8.24235 63.2725 9.29322 63.9118 10.6606C64.551 12.0264 64.8707 13.6214 64.8707 15.4425C64.8707 17.2636 64.551 18.8586 63.9118 20.2245C63.271 21.5903 62.3822 22.6427 61.244 23.3802C60.1058 24.1177 58.821 24.4856 57.3897 24.4856C56.239 24.4856 55.2037 24.2689 54.2823 23.8355C53.3608 23.402 52.6389 22.7191 52.1181 21.7852H51.9887V24.0631H47.043V0.510498H52.2163V8.87069H52.3473C52.8681 8.08955 53.5619 7.48304 54.4288 7.0496C55.2957 6.61615 56.3263 6.39943 57.5191 6.39943C58.9068 6.39943 60.1588 6.76895 61.2768 7.50643V7.50487ZM58.5934 19.3139C59.2654 18.447 59.6022 17.156 59.6022 15.4425C59.6022 13.729 59.2607 12.4708 58.5778 11.6039C57.8949 10.737 56.9563 10.302 55.7635 10.302C54.5707 10.302 53.6648 10.7354 52.9819 11.6039C52.299 12.4708 51.9575 13.7508 51.9575 15.4425C51.9575 17.1342 52.299 18.447 52.9819 19.3139C53.6648 20.1824 54.5925 20.6158 55.7635 20.6158C56.9344 20.6158 57.9214 20.1824 58.5934 19.3139Z" fill="black"/>
<path d="M78.3457 21.7536C77.022 23.5747 75.19 24.4868 72.8481 24.4868C71.0472 24.4868 69.5894 23.9504 68.473 22.8762C67.3551 21.8019 66.7969 20.2256 66.7969 18.1426V6.82153H71.9702V16.8734C71.9702 18.1098 72.215 18.9985 72.7031 19.5411C73.1911 20.0837 73.9223 20.355 74.8984 20.355C75.8744 20.355 76.6494 19.998 77.2902 19.2807C77.9294 18.5651 78.2506 17.5236 78.2506 16.1578V6.82153H83.424V24.0642H78.4783V21.7551H78.3489L78.3457 21.7536Z" fill="black"/>
<path d="M96.1786 19.8194C96.7103 19.2238 97.0845 18.4582 97.3012 17.5258L102.571 18.0793C102.116 19.9004 101.188 21.4253 99.7896 22.6508C98.3911 23.8763 96.4234 24.489 93.885 24.489C91.1081 24.489 88.9346 23.6814 87.363 22.0661C85.7897 20.4508 85.0039 18.2431 85.0039 15.4459C85.0039 12.6488 85.7897 10.4426 87.363 8.82576C88.9346 7.21048 91.1097 6.40283 93.885 6.40283C96.4 6.40283 98.3303 6.97816 99.6758 8.12726C101.02 9.27635 101.91 10.611 102.344 12.1281L97.2357 13.0713C96.6713 11.1629 95.5549 10.2087 93.885 10.2087C92.7577 10.2087 91.8737 10.6484 91.2344 11.5262C90.5951 12.404 90.2755 13.7122 90.2755 15.4459C90.2755 17.1797 90.5951 18.5206 91.2344 19.3984C91.8737 20.2762 92.7577 20.7159 93.885 20.7159C94.8829 20.7159 95.6469 20.4181 96.1786 19.8209V19.8194Z" fill="black"/>
<path d="M109.408 24.0647H104.234V0.510498H109.408V13.3922L115.264 6.8204H121.055L114.743 13.4562L121.771 24.0615H115.818L111.296 16.905L109.409 18.8898V24.0631L109.408 24.0647Z" fill="black"/>
<path d="M131.655 10.3041C131.113 9.89251 130.441 9.6867 129.638 9.6867C128.878 9.6867 128.266 9.84417 127.799 10.1591C127.333 10.4741 127.099 10.9122 127.099 11.4766C127.099 11.9974 127.327 12.3762 127.782 12.6148C128.238 12.8533 128.964 13.0592 129.962 13.2322L131.75 13.4926C133.009 13.7093 134.081 13.9915 134.972 14.3392C135.86 14.6869 136.587 15.2233 137.151 15.9498C137.716 16.6764 137.998 17.6587 137.998 18.8935C137.998 20.7364 137.239 22.1303 135.72 23.0736C134.201 24.0169 132.217 24.4878 129.767 24.4878C127.446 24.4878 125.526 24.006 124.009 23.0393C122.49 22.0742 121.591 20.7349 121.309 19.0214L126.189 18.4679C126.34 19.3784 126.73 20.0613 127.36 20.5182C127.988 20.9734 128.802 21.2011 129.8 21.2011C130.689 21.2011 131.398 21.0171 131.931 20.6476C132.463 20.2796 132.728 19.7698 132.728 19.118C132.728 18.6191 132.474 18.2293 131.964 17.9471C131.454 17.6649 130.69 17.4373 129.67 17.2642L127.718 16.9711C125.961 16.6889 124.558 16.1743 123.505 15.4259C122.453 14.6776 121.928 13.4583 121.928 11.7666C121.928 10.6393 122.274 9.67422 122.969 8.87126C123.663 8.06829 124.595 7.45555 125.766 7.03301C126.937 6.61048 128.217 6.39844 129.605 6.39844C131.708 6.39844 133.476 6.85371 134.908 7.76426C136.339 8.6748 137.195 9.92213 137.477 11.5062L132.695 12.0597C132.544 11.3004 132.196 10.7157 131.654 10.3026L131.655 10.3041Z" fill="black"/>
</svg>
