<svg width="144" height="131" viewBox="0 0 144 131" fill="none" xmlns="http://www.w3.org/2000/svg">
<rect y="0.558716" width="144" height="129.883" rx="30.0001" fill="#033F59" fill-opacity="0.6"/>
<rect x="32" y="18.5587" width="80.0001" height="88.0002" rx="20" fill="#033F59"/>
<path d="M72.5 33.0001C64.1264 33.0001 57.3189 39.8077 57.3189 48.1812C57.3189 56.395 63.7429 63.0427 72.1165 63.3304C72.3722 63.2984 72.6278 63.2984 72.8196 63.3304H73.0433C76.9724 63.1993 80.6964 61.5453 83.4281 58.7182C86.1598 55.8911 87.685 52.1125 87.6811 48.1812C87.6811 39.8077 80.8736 33.0001 72.5 33.0001ZM88.7358 71.8286C79.8189 65.884 65.277 65.884 56.2962 71.8286C52.2372 74.5452 50 78.2206 50 82.1518C50 86.0829 52.2372 89.7263 56.2642 92.411C60.7386 95.4152 66.6193 96.9174 72.5 96.9174C78.3807 96.9174 84.2614 95.4152 88.7358 92.411C92.7628 89.6944 95 86.0509 95 82.0878C94.968 78.1567 92.7628 74.5133 88.7358 71.8286Z" fill="white"/>
</svg>
