<svg width="144" height="131" viewBox="0 0 144 131" fill="none" xmlns="http://www.w3.org/2000/svg">
<rect y="0.441406" width="144" height="129.883" rx="30.0001" fill="#033F59" fill-opacity="0.6"/>
<rect x="32" y="18.4414" width="80.0001" height="88.0002" rx="20" fill="#033F59"/>
<path d="M94.9437 58.9392L91.7029 55.1463C91.1027 54.4261 90.5986 53.0817 90.5986 52.1215V48.0405C90.5986 45.4959 88.5101 43.4073 85.9654 43.4073H81.8844C80.9242 43.4073 79.5558 42.9032 78.8357 42.3031L75.0427 39.0623C73.3863 37.6459 70.6736 37.6459 69.0172 39.0623L65.1763 42.3031C64.4561 42.9032 63.1118 43.4073 62.1515 43.4073H57.9985C55.4539 43.4073 53.3653 45.4959 53.3653 48.0405V52.1215C53.3653 53.0577 52.8852 54.4021 52.2851 55.1223L49.0443 58.9392C47.6519 60.6196 47.6519 63.3083 49.0443 64.9407L52.2851 68.7576C52.8852 69.4538 53.3653 70.8222 53.3653 71.7584V75.8634C53.3653 78.408 55.4539 80.4966 57.9985 80.4966H62.1755C63.1118 80.4966 64.4801 81.0007 65.2003 81.6008L68.9932 84.8416C70.6496 86.258 73.3623 86.258 75.0187 84.8416L78.8117 81.6008C79.5318 81.0007 80.8762 80.4966 81.8364 80.4966H85.9174C88.4621 80.4966 90.5506 78.408 90.5506 75.8634V71.7824C90.5506 70.8222 91.0547 69.4778 91.6549 68.7576L94.8957 64.9647C96.36 63.3323 96.36 60.6196 94.9437 58.9392ZM70.1935 52.6736C70.1935 51.6894 71.0097 50.8732 71.994 50.8732C72.9782 50.8732 73.7944 51.6894 73.7944 52.6736V64.2685C73.7944 65.2528 72.9782 66.069 71.994 66.069C71.0097 66.069 70.1935 65.2528 70.1935 64.2685V52.6736ZM71.994 73.6549C70.6736 73.6549 69.5934 72.5746 69.5934 71.2543C69.5934 69.9339 70.6496 68.8537 71.994 68.8537C73.3143 68.8537 74.3946 69.9339 74.3946 71.2543C74.3946 72.5746 73.3383 73.6549 71.994 73.6549Z" fill="white"/>
</svg>
