<svg width="144" height="130" viewBox="0 0 144 130" fill="none" xmlns="http://www.w3.org/2000/svg">
<rect y="0.0587158" width="144" height="129.883" rx="30.0001" fill="#033F59" fill-opacity="0.6"/>
<rect x="32" y="18.0588" width="80.0001" height="88.0002" rx="20" fill="#033F59"/>
<path d="M96.05 63.9501C97.142 63.9501 98 63.0661 98 62.0001C98 60.9081 97.142 60.0501 96.05 60.0501H92.8V54.3301H96.05C97.142 54.3301 98 53.4721 98 52.3801C98 51.3141 97.142 50.4301 96.05 50.4301H92.202C91.5849 48.3919 90.4742 46.5375 88.9684 45.0317C87.4625 43.5259 85.6082 42.4151 83.57 41.7981V37.9501C83.57 36.8841 82.686 36.0001 81.62 36.0001C80.554 36.0001 79.67 36.8841 79.67 37.9501V41.2001H73.95V37.9501C73.95 36.8841 73.066 36.0001 72 36.0001C70.934 36.0001 70.05 36.8841 70.05 37.9501V41.2001H64.356V37.9501C64.356 37.4329 64.1506 36.9369 63.7849 36.5712C63.4192 36.2055 62.9232 36.0001 62.406 36.0001C61.8888 36.0001 61.3928 36.2055 61.0271 36.5712C60.6614 36.9369 60.456 37.4329 60.456 37.9501V41.7981C58.4125 42.4104 56.5523 43.5191 55.0416 45.0253C53.5308 46.5316 52.4165 48.3884 51.798 50.4301H47.95C47.4328 50.4301 46.9368 50.6355 46.5711 51.0012C46.2054 51.3669 46 51.8629 46 52.3801C46 52.8972 46.2054 53.3932 46.5711 53.7589C46.9368 54.1246 47.4328 54.3301 47.95 54.3301H51.2V60.0501H47.95C47.4328 60.0501 46.9368 60.2555 46.5711 60.6212C46.2054 60.9869 46 61.4829 46 62.0001C46 62.5172 46.2054 63.0132 46.5711 63.3789C46.9368 63.7446 47.4328 63.9501 47.95 63.9501H51.2V69.6701H47.95C47.4328 69.6701 46.9368 69.8755 46.5711 70.2412C46.2054 70.6069 46 71.1029 46 71.6201C46 72.1372 46.2054 72.6332 46.5711 72.9989C46.9368 73.3646 47.4328 73.5701 47.95 73.5701H51.798C52.4123 75.6139 53.5252 77.4729 55.0366 78.9798C56.5479 80.4866 58.4103 81.5939 60.456 82.2021V86.0501C60.456 86.5672 60.6614 87.0632 61.0271 87.4289C61.3928 87.7946 61.8888 88.0001 62.406 88.0001C62.9232 88.0001 63.4192 87.7946 63.7849 87.4289C64.1506 87.0632 64.356 86.5672 64.356 86.0501V82.8001H70.076V86.0501C70.076 86.5672 70.2814 87.0632 70.6471 87.4289C71.0128 87.7946 71.5088 88.0001 72.026 88.0001C72.5432 88.0001 73.0392 87.7946 73.4049 87.4289C73.7706 87.0632 73.976 86.5672 73.976 86.0501V82.8001H79.67V86.0501C79.67 87.1161 80.554 88.0001 81.62 88.0001C82.686 88.0001 83.57 87.1161 83.57 86.0501V82.2021C85.6082 81.585 87.4625 80.4742 88.9684 78.9684C90.4742 77.4626 91.5849 75.6083 92.202 73.5701H96.05C97.142 73.5701 98 72.6861 98 71.6201C98 70.5281 97.142 69.6701 96.05 69.6701H92.8V63.9501H96.05ZM85.676 67.8761C85.676 72.1661 82.166 75.6761 77.876 75.6761H66.124C61.834 75.6761 58.324 72.1661 58.324 67.8761V56.1241C58.324 51.8341 61.834 48.3241 66.124 48.3241H77.876C82.166 48.3241 85.676 51.8341 85.676 56.1241V67.8761Z" fill="white"/>
<path d="M66.8473 73.0449H77.1693C80.4193 73.0449 83.0713 70.4189 83.0713 67.1429V56.8209C83.0713 53.5709 80.4453 50.9189 77.1693 50.9189H66.8473C63.5973 50.9189 60.9453 53.5449 60.9453 56.8209V67.1429C60.9453 70.4189 63.5713 73.0449 66.8473 73.0449Z" fill="white"/>
</svg>
