<svg width="144" height="130" viewBox="0 0 144 130" fill="none" xmlns="http://www.w3.org/2000/svg">
<rect width="144" height="129.883" rx="30.0001" fill="#033F59" fill-opacity="0.6"/>
<rect x="32" y="18.0001" width="80.0001" height="88.0002" rx="20" fill="#033F59"/>
<path d="M67.1359 57.1292C64.4443 59.8209 64.4443 64.1808 67.1359 66.8724C69.8252 69.5616 74.1876 69.564 76.8793 66.8724C79.5685 64.1808 79.5685 59.8209 76.8793 57.1292C74.1876 54.4376 69.8276 54.4376 67.1359 57.1292Z" fill="white"/>
<path d="M64.9866 70.2196C64.7926 69.6376 64.3367 69.1818 63.7571 68.9902L51.2057 64.8073C50.5073 64.5745 49.7362 64.7563 49.2148 65.2777L46.5693 67.9232C45.8102 68.6822 45.8102 69.9141 46.5693 70.6755L63.3037 87.4096C64.0627 88.1686 65.2945 88.1686 66.056 87.4096L68.7016 84.764C69.2229 84.2427 69.4048 83.4716 69.172 82.7732L64.989 70.222L64.9866 70.2196Z" fill="white"/>
<path d="M78.9961 53.7593C79.1901 54.3413 79.646 54.7971 80.2255 54.9887L92.777 59.1716C93.4753 59.4044 94.2465 59.2226 94.7678 58.7012L97.4134 56.0557C98.1724 55.2967 98.1724 54.0648 97.4134 53.3034L80.679 36.5693C79.92 35.8103 78.6881 35.8103 77.9267 36.5693L75.2811 39.2148C74.7598 39.7362 74.5779 40.5073 74.8107 41.2057L78.9937 53.7569L78.9961 53.7593Z" fill="white"/>
<path d="M94.781 65.2745C94.2597 64.7531 93.4885 64.5712 92.7902 64.804L80.2387 68.987C79.6568 69.1809 79.2009 69.6368 79.0093 70.2164L74.8263 82.7676C74.5935 83.4659 74.7754 84.237 75.2967 84.7584L77.9423 87.4039C78.7013 88.1629 79.9332 88.1629 80.6946 87.4039L97.429 70.6698C98.1881 69.9108 98.1881 68.679 97.429 67.9176L94.7835 65.272L94.781 65.2745Z" fill="white"/>
<path d="M49.2461 58.704C49.7675 59.2254 50.5386 59.4072 51.237 59.1745L63.7884 54.9915C64.3704 54.7975 64.8262 54.3417 65.0178 53.7621L69.2008 41.2109C69.4336 40.5126 69.2517 39.7414 68.7304 39.2201L66.0848 36.5746C65.3258 35.8156 64.0939 35.8156 63.3325 36.5746L46.6005 53.3087C45.8415 54.0677 45.8415 55.2995 46.6005 56.0609L49.2461 58.7065V58.704Z" fill="white"/>
</svg>
