<svg width="36" height="33" viewBox="0 0 36 33" fill="none" xmlns="http://www.w3.org/2000/svg">
<rect y="0.470581" width="36" height="32.4706" rx="7.5" fill="#35FAA0" fill-opacity="0.6"/>
<rect x="8" y="4.97058" width="20" height="22" rx="5" fill="#024C2B"/>
<path d="M24 16.1018V13.2468C24 12.7136 23.5825 12.1088 23.064 11.9072L19.3131 10.4244C18.4691 10.0927 17.5242 10.0927 16.6801 10.4244L12.9293 11.9072C12.4175 12.1088 12 12.7136 12 13.2468V16.1018C12 19.2818 14.3906 22.2603 17.6566 23.1318C17.8788 23.1903 18.1212 23.1903 18.3434 23.1318C21.6094 22.2603 24 19.2818 24 16.1018ZM18.5051 17.2398V18.9502C18.5051 19.2168 18.2761 19.4379 18 19.4379C17.7239 19.4379 17.4949 19.2168 17.4949 18.9502V17.2398C17.1547 17.1368 16.8571 16.932 16.6453 16.6549C16.4334 16.3779 16.3183 16.0429 16.3165 15.6986C16.3165 15.2674 16.4939 14.8538 16.8096 14.5489C17.1253 14.244 17.5535 14.0727 18 14.0727C18.4465 14.0727 18.8747 14.244 19.1904 14.5489C19.5061 14.8538 19.6835 15.2674 19.6835 15.6986C19.6835 16.4269 19.1852 17.0317 18.5051 17.2398Z" fill="white"/>
</svg>
