<svg width="18" height="18" viewBox="0 0 18 18" fill="none" xmlns="http://www.w3.org/2000/svg">
<path d="M13.6712 2.5186L13.6718 2.51891C14.0055 2.70963 14.126 3.13974 13.9296 3.48393C13.4191 4.37497 13.2512 5.41352 13.76 6.29284C14.2687 7.17181 15.252 7.54343 16.2786 7.54421C16.4688 7.54569 16.6509 7.62164 16.7858 7.75582C16.9201 7.88949 16.997 8.07031 17 8.25971V9.83657C17 10.2254 16.6775 10.5457 16.2909 10.5457C15.2637 10.5457 14.2774 10.9169 13.7693 11.7987C13.2611 12.6804 13.4343 13.7201 13.95 14.6103C14.1415 14.9423 14.0247 15.3797 13.6898 15.571L13.6892 15.5713L12.133 16.4619L12.1257 16.4661L12.1184 16.4704C11.9026 16.5988 11.5932 16.5348 11.4404 16.2826L11.3452 16.1181L11.3449 16.1177C10.8291 15.2278 10.0136 14.56 8.99663 14.56C7.9789 14.56 7.16541 15.2286 6.65388 16.1198C6.65348 16.1205 6.65308 16.1211 6.65268 16.1218L6.55958 16.2826C6.40682 16.5348 6.09737 16.5988 5.88161 16.4704L5.87434 16.4661L5.86699 16.4619L4.31077 15.5713L4.31023 15.571C3.97694 15.3806 3.85638 14.9514 4.05156 14.6075C4.56607 13.7179 4.73833 12.6795 4.23075 11.7987C3.7226 10.9169 2.73629 10.5457 1.70915 10.5457C1.32032 10.5457 1 10.2232 1 9.83657V8.25336C1 7.86454 1.32247 7.54422 1.70915 7.54422C2.73614 7.54422 3.72192 7.17321 4.23022 6.2933C4.73841 5.41358 4.56646 4.37682 4.05105 3.49053C3.85535 3.14453 3.9794 2.70795 4.31023 2.51891L4.31077 2.5186L5.86699 1.62804L5.86704 1.62812L5.87886 1.62114C5.93323 1.58903 5.99343 1.56806 6.05598 1.55943C6.11853 1.55081 6.18217 1.55471 6.24319 1.57091C6.30422 1.58712 6.36141 1.61529 6.41145 1.6538C6.46148 1.69232 6.50336 1.7404 6.53464 1.79524L6.53462 1.79525L6.53787 1.80088L6.63682 1.97179L6.63707 1.97222C7.15287 2.86211 7.96841 3.52997 8.98538 3.52997C10.0031 3.52997 10.8166 2.86131 11.3282 1.97013C11.3285 1.96945 11.3289 1.96876 11.3293 1.96808L11.4224 1.80728C11.5752 1.55508 11.8846 1.49115 12.1004 1.61951L12.1077 1.62384L12.115 1.62804L13.6712 2.5186ZM5.07196 9.04497C5.07196 11.2074 6.83302 12.9685 8.9955 12.9685C11.158 12.9685 12.919 11.2074 12.919 9.04497C12.919 6.88249 11.158 5.12143 8.9955 5.12143C6.83302 5.12143 5.07196 6.88249 5.07196 9.04497Z" fill="white" stroke="white" stroke-width="2"/>
</svg>
