<svg width="28" height="27" viewBox="0 0 28 27" fill="none" xmlns="http://www.w3.org/2000/svg">
<path d="M23.7143 9.33239H23.7091C22.8374 9.33239 22.4841 9.0322 22.3663 8.82852C22.2482 8.62451 22.1641 8.1679 22.5977 7.41143L22.5984 7.41024C23.493 5.84463 22.963 3.84052 21.3872 2.93972C21.3871 2.93962 21.3869 2.93951 21.3867 2.93941L19.3189 1.75609C17.8788 0.905287 16.0546 1.42842 15.2216 2.8286L15.2215 2.82856L15.2155 2.83885L15.0836 3.06674L15.0836 3.06674L15.0815 3.07044C14.6484 3.82592 14.2135 3.98007 13.9805 3.98007C13.746 3.98007 13.3076 3.82415 12.8684 3.06674C12.8683 3.06659 12.8683 3.06645 12.8682 3.0663L12.738 2.84139C12.5432 2.50078 12.2828 2.20217 11.9718 1.96282C11.6599 1.72275 11.3034 1.54711 10.923 1.44611L10.6674 2.40889L10.923 1.44611C10.5426 1.34512 10.1459 1.32079 9.75598 1.37454C9.36858 1.42795 8.99558 1.55738 8.6584 1.75537L6.58932 2.93941C6.58915 2.9395 6.58899 2.9396 6.58882 2.93969C6.58881 2.9397 6.58879 2.93971 6.58878 2.93972C5.01088 3.84176 4.48425 5.85882 5.37763 7.42223L5.3776 7.42225L5.3821 7.42997C5.81949 8.17978 5.73516 8.63107 5.61985 8.83068C5.50372 9.03173 5.15141 9.33239 4.27886 9.33239C2.48262 9.33239 1 10.7962 1 12.6113V14.7222C1 16.5184 2.46379 18.0011 4.27886 18.0011C5.15127 18.0011 5.50304 18.3016 5.61933 18.5034C5.73553 18.705 5.81968 19.1605 5.3807 19.9179L5.38069 19.9179L5.37763 19.9232C4.4829 21.489 5.01318 23.4934 6.58932 24.394L8.65706 25.5773C10.0972 26.4282 11.9214 25.9051 12.7545 24.5049L12.7545 24.5049L12.7605 24.4946L12.8924 24.2667L12.8945 24.263C13.3276 23.5075 13.7625 23.3534 13.9955 23.3534C14.23 23.3534 14.6686 23.5094 15.1078 24.2671L15.2395 24.4946L15.2395 24.4946L15.2455 24.5049C16.0786 25.9051 17.9028 26.4282 19.3429 25.5773L21.4107 24.394C22.9856 23.4941 23.5195 21.476 22.62 19.9191L22.6193 19.9179C22.1803 19.1605 22.2645 18.705 22.3807 18.5034C22.497 18.3016 22.8487 18.0011 23.7211 18.0011C25.5174 18.0011 27 16.5373 27 14.7222V12.6113H27.0001L26.9999 12.6009C26.9909 11.7338 26.6413 10.9051 26.0266 10.2936C25.4119 9.68212 24.5814 9.33687 23.7143 9.33239ZM13.994 16.5648C12.3994 16.5648 11.096 15.2614 11.096 13.6667C11.096 12.0721 12.3994 10.7687 13.994 10.7687C15.5886 10.7687 16.8921 12.0721 16.8921 13.6667C16.8921 15.2614 15.5886 16.5648 13.994 16.5648Z" stroke="#525252" stroke-width="2"/>
</svg>
