<svg width="22" height="22" viewBox="0 0 22 22" fill="none" xmlns="http://www.w3.org/2000/svg">
<path d="M18.2819 7.43875H18.287C19.0029 7.44245 19.6887 7.72752 20.1963 8.23243C20.7038 8.73734 20.9925 9.4216 20.9999 10.1375L21.0001 10.1479H21V11.7311C21 13.2313 19.7752 14.4402 18.2909 14.4402C17.6898 14.4402 17.5292 14.6448 17.5021 14.6918C17.4751 14.7386 17.3782 14.9805 17.6808 15.5025L17.6815 15.5037C18.425 16.7906 17.9843 18.4575 16.6826 19.2017C16.6824 19.2018 16.6822 19.2019 16.682 19.202L15.1329 20.0886C13.9297 20.7984 12.4114 20.3592 11.7193 19.1959L11.7132 19.1857L11.7133 19.1857L11.6146 19.0152L18.2819 7.43875ZM18.2819 7.43875C17.6815 7.43875 17.5194 7.23451 17.4911 7.18563C17.4626 7.13641 17.3665 6.89344 17.6652 6.37236L17.6658 6.37117M18.2819 7.43875L17.6658 6.37117M17.6658 6.37117C18.4046 5.07842 17.9675 3.42214 16.6646 2.67726C16.6645 2.67721 16.6644 2.67715 16.6643 2.6771C16.6642 2.67705 16.6641 2.677 16.6641 2.67695L15.1148 1.79039C13.9117 1.08065 12.3934 1.51982 11.7013 2.68308L11.7013 2.68304M17.6658 6.37117L11.7013 2.68304M11.7013 2.68304L11.6953 2.69333M11.7013 2.68304L11.6953 2.69333M11.6953 2.69333L11.5963 2.86425L11.5963 2.86424M11.6953 2.69333L11.5963 2.86424M11.5963 2.86424L11.5942 2.86795M11.5963 2.86424L11.5942 2.86795M11.5942 2.86795C11.2961 3.38804 11.0396 3.4245 10.9854 3.4245M11.5942 2.86795L10.9854 3.4245M4.31613 6.38018L4.31616 6.38016C3.5787 5.08961 4.01238 3.42338 5.31741 2.67726C5.31752 2.6772 5.31762 2.67714 5.31773 2.67708C5.3178 2.67704 5.31788 2.67699 5.31795 2.67695L6.86845 1.78967C7.14941 1.62491 7.46014 1.51719 7.78284 1.4727C8.10811 1.42786 8.43904 1.44816 8.75639 1.53241C9.07374 1.61666 9.37116 1.76319 9.63135 1.96346L9.0214 2.7559L9.63135 1.96346C9.89054 2.16296 10.1076 2.41183 10.2701 2.69568L10.3674 2.86381L4.31613 6.38018ZM4.31613 6.38018L4.32063 6.3879M4.31613 6.38018L4.32063 6.3879M4.32063 6.3879C4.62159 6.90382 4.52452 7.14222 4.49841 7.18742C4.47148 7.23404 4.31033 7.43875 3.70915 7.43875C2.22475 7.43875 1 8.64766 1 10.1479V11.7311C1 13.2155 2.20891 14.4402 3.70915 14.4402C4.31019 14.4402 4.4708 14.6448 4.49789 14.6918C4.52488 14.7386 4.62178 14.9805 4.31923 15.5025L4.31922 15.5025M4.32063 6.3879L4.31922 15.5025M4.31922 15.5025L4.31616 15.5078M4.31922 15.5025L4.31616 15.5078M4.31616 15.5078C3.57745 16.8006 4.01456 18.4569 5.31741 19.2017C5.31745 19.2018 5.31748 19.2018 5.31751 19.2018C5.31766 19.2019 5.31781 19.202 5.31795 19.202L6.86712 20.0886C8.07028 20.7984 9.58862 20.3592 10.2807 19.1959L10.2808 19.196M4.31616 15.5078L10.2808 19.196M10.2808 19.196L10.2867 19.1857M10.2808 19.196L10.2867 19.1857M10.2867 19.1857L10.3857 19.0147L10.3878 19.011M10.2867 19.1857L10.3878 19.011M10.3878 19.011C10.6859 18.4909 10.9424 18.4545 10.9966 18.4545M10.3878 19.011L10.9966 18.4545M10.9854 3.4245C10.9297 3.4245 10.6704 3.38624 10.3677 2.86425L10.9854 3.4245ZM10.9966 18.4545C11.0524 18.4545 11.3116 18.4928 11.6143 19.0147L10.9966 18.4545ZM10.9955 12.863C9.93759 12.863 9.07196 11.9974 9.07196 10.9395C9.07196 9.88159 9.93759 9.01596 10.9955 9.01596C12.0534 9.01596 12.919 9.88159 12.919 10.9395C12.919 11.9974 12.0534 12.863 10.9955 12.863Z" stroke="#525252" stroke-width="2"/>
</svg>
