<svg width="24" height="23" viewBox="0 0 24 23" fill="none" xmlns="http://www.w3.org/2000/svg">
<path d="M21.7091 8.33239C19.5382 8.33239 18.6507 6.79716 19.7301 4.9141C20.3538 3.82265 19.982 2.43134 18.8906 1.80765L16.8156 0.620247C15.8681 0.0565293 14.6447 0.392361 14.081 1.33989L13.949 1.56777C12.8696 3.45083 11.0945 3.45083 10.003 1.56777L9.87106 1.33989C9.74177 1.11318 9.56868 0.914447 9.36186 0.755258C9.15505 0.596069 8.91864 0.479602 8.66639 0.412633C8.41414 0.345664 8.15109 0.329532 7.89255 0.365175C7.63401 0.400818 7.38514 0.487524 7.16042 0.620247L5.08546 1.80765C3.994 2.43134 3.62219 3.83464 4.24588 4.9261C5.33733 6.79716 4.44978 8.33239 2.27886 8.33239C1.03148 8.33239 0 9.35188 0 10.6113V12.7222C0 13.9696 1.01949 15.0011 2.27886 15.0011C4.44978 15.0011 5.33733 16.5363 4.24588 18.4193C3.62219 19.5108 3.994 20.9021 5.08546 21.5258L7.16042 22.7132C8.10795 23.2769 9.33133 22.9411 9.89505 21.9936L10.027 21.7657C11.1064 19.8826 12.8816 19.8826 13.973 21.7657L14.1049 21.9936C14.6687 22.9411 15.8921 23.2769 16.8396 22.7132L18.9145 21.5258C20.006 20.9021 20.3778 19.4988 19.7541 18.4193C18.6627 16.5363 19.5502 15.0011 21.7211 15.0011C22.9685 15.0011 24 13.9816 24 12.7222V10.6113C23.9937 10.0067 23.75 9.42894 23.3214 9.00258C22.8928 8.57622 22.3137 8.33551 21.7091 8.33239ZM11.994 15.5648C9.84708 15.5648 8.09595 13.8137 8.09595 11.6667C8.09595 9.5198 9.84708 7.76867 11.994 7.76867C14.1409 7.76867 15.8921 9.5198 15.8921 11.6667C15.8921 13.8137 14.1409 15.5648 11.994 15.5648Z" fill="#2CA9F2"/>
</svg>
