<svg width="21" height="22" viewBox="0 0 21 22" fill="none" xmlns="http://www.w3.org/2000/svg">
<path d="M19.2238 11.5817C18.8451 11.5817 18.5278 11.2951 18.4868 10.9164C18.3659 9.80474 18.0072 8.73209 17.435 7.77133C16.8627 6.81058 16.0905 5.98421 15.1706 5.34837C15.0903 5.29281 15.0219 5.22192 14.9691 5.13979C14.9164 5.05766 14.8805 4.96591 14.8633 4.86982C14.8462 4.77374 14.8483 4.67521 14.8694 4.57992C14.8905 4.48463 14.9302 4.39446 14.9863 4.31459C15.2218 3.97683 15.6823 3.89494 16.0201 4.13036C17.1138 4.88991 18.0323 5.87479 18.7138 7.0188C19.3952 8.16281 19.8239 9.43945 19.971 10.7629C20.0119 11.1723 19.7151 11.5408 19.3057 11.5817H19.2238ZM2.21254 11.6319H2.14089C1.94421 11.6112 1.76374 11.5135 1.63903 11.36C1.51432 11.2065 1.45554 11.0098 1.47559 10.8131C1.61193 9.49228 2.0296 8.21604 2.70051 7.07021C3.37141 5.92438 4.27997 4.93555 5.36505 4.17028C5.69258 3.93486 6.16341 4.01674 6.39882 4.34428C6.63424 4.68205 6.55236 5.14264 6.22482 5.37805C5.31404 6.02102 4.55144 6.8515 3.98826 7.81366C3.42508 8.77583 3.07438 9.8474 2.95972 10.9564C2.91878 11.3453 2.59125 11.6319 2.21254 11.6319ZM14.7509 20.1467C13.492 20.7506 12.1409 21.0577 10.7284 21.0577C9.25451 21.0577 7.85225 20.7302 6.54212 20.0648C6.45473 20.0219 6.37678 19.962 6.31285 19.8886C6.24891 19.8152 6.20026 19.7297 6.16976 19.6372C6.13926 19.5448 6.12751 19.4472 6.13521 19.3501C6.14291 19.2531 6.16989 19.1585 6.21459 19.072C6.38859 18.7035 6.83895 18.5602 7.20742 18.7342C7.85225 19.0618 8.53803 19.287 9.23403 19.42C10.1757 19.6043 11.1378 19.6145 12.0795 19.4507C12.7755 19.3279 13.4613 19.113 14.0959 18.8059C14.4746 18.6319 14.9249 18.7752 15.0887 19.1539C15.2729 19.5224 15.1296 19.9727 14.7509 20.1467ZM10.7182 0.609375C9.13168 0.609375 7.83178 1.89904 7.83178 3.49576C7.83178 5.09249 9.12144 6.38215 10.7182 6.38215C12.3149 6.38215 13.6046 5.09249 13.6046 3.49576C13.6046 1.89904 12.3149 0.609375 10.7182 0.609375ZM3.55338 12.7476C1.96689 12.7476 0.666992 14.0372 0.666992 15.6339C0.666992 17.2307 1.95665 18.5203 3.55338 18.5203C5.1501 18.5203 6.43977 17.2307 6.43977 15.6339C6.43977 14.0372 5.13987 12.7476 3.55338 12.7476ZM17.7806 12.7476C16.1941 12.7476 14.8942 14.0372 14.8942 15.6339C14.8942 17.2307 16.1839 18.5203 17.7806 18.5203C19.3773 18.5203 20.667 17.2307 20.667 15.6339C20.667 14.0372 19.3773 12.7476 17.7806 12.7476Z" fill="white"/>
</svg>
