<svg width="80" height="70" viewBox="0 0 80 70" fill="none" xmlns="http://www.w3.org/2000/svg">
<rect width="80" height="70" rx="5" fill="#D8D8D8"/>
<path d="M37.1429 40.9893H42.8571C43.6429 40.9893 44.2857 40.3464 44.2857 39.5607V32.4179H46.5571C47.8286 32.4179 48.4714 30.875 47.5714 29.975L41.0143 23.4179C40.4571 22.8607 39.5571 22.8607 39 23.4179L32.4429 29.975C31.5429 30.875 32.1714 32.4179 33.4429 32.4179H35.7143V39.5607C35.7143 40.3464 36.3571 40.9893 37.1429 40.9893ZM31.4286 43.8464H48.5714C49.3571 43.8464 50 44.4893 50 45.275C50 46.0607 49.3571 46.7036 48.5714 46.7036H31.4286C30.6429 46.7036 30 46.0607 30 45.275C30 44.4893 30.6429 43.8464 31.4286 43.8464Z" fill="#8E8E93"/>
</svg>
