<svg width="95" height="86" viewBox="0 0 95 86" fill="none" xmlns="http://www.w3.org/2000/svg">
<rect x="2.5" y="2.5" width="89.5821" height="80.3093" rx="17.2046" fill="#35FAA0"/>
<rect x="21.0117" y="14.45" width="52.5456" height="60.673" rx="13.1364" fill="#024C2B"/>
<path d="M35.2629 74.7153C33.6622 74.433 31.9202 73.9836 30.037 73.3669C28.1992 72.8152 26.7024 72.2667 25.5464 71.7214L26.6268 65.5945C28.8185 66.7209 31.2391 67.5176 33.8886 67.9848C37.7524 68.6661 41.2038 68.6202 44.2427 67.847C47.3368 67.0836 49.8188 65.7569 51.6887 63.867C53.5586 61.9771 54.7222 59.735 55.1797 57.1407C55.8026 53.6081 55.2356 50.6909 53.4788 48.3892C51.7219 46.0875 48.7833 44.5164 44.663 43.6761L39.4763 44.042L38.6281 38.6849C40.9593 38.6976 43.3165 38.4018 45.6995 37.7976C49.154 36.9269 51.9542 35.571 54.1001 33.7298C56.2557 31.8333 57.5525 29.6432 57.9905 27.1593C58.4771 24.3994 57.9768 22.2339 56.4896 20.6626C55.0575 19.1011 53.0443 18.0916 50.4501 17.6342C48.0214 17.206 45.6577 17.216 43.359 17.6644C41.1156 18.1225 39.1416 18.8273 37.4371 19.7789L35.4298 14.2174C37.3031 12.9541 40.165 11.8936 44.0156 11.0359C47.9214 10.188 51.751 10.0949 55.5044 10.7567C60.7481 11.6814 64.7988 13.5623 67.6564 16.3996C70.5789 19.1915 71.6411 22.8505 70.843 27.3767C70.1423 31.3509 67.9787 34.5834 64.3524 37.0742C60.726 39.565 56.5363 41.2166 51.783 42.0289C52.3447 42.0711 53.1776 42.1895 54.2815 42.3841C59.1941 43.2503 62.9493 45.193 65.5471 48.2122C68.2002 51.2411 69.1618 54.8254 68.4318 58.9652C67.7862 62.9492 65.9717 66.3001 62.9883 69.0181C60.0503 71.801 56.1853 73.7091 51.3931 74.7422C46.601 75.7754 41.2242 75.7664 35.2629 74.7153Z" fill="white"/>
<rect x="2.5" y="2.5" width="89.5821" height="80.3093" rx="17.2046" stroke="black" stroke-width="5"/>
</svg>
