<svg width="183" height="211" viewBox="0 0 183 211" fill="none" xmlns="http://www.w3.org/2000/svg">
<path d="M179.5 3C179.5 50 186.561 130.209 117.988 130.988C96.5288 131.232 60 121 75.5 85.5C75.5564 78.7379 111.724 81.2848 112 81.5C146 98 130 121 124.476 134.393C116 169.5 56.2099 170.233 34.958 177.37C24.4153 180.91 13.5895 183.41 3 186.761C0.816899 187.452 39.4688 138 28.5 157.5C37.5 141.5 22.304 159.633 14.0653 169.01C-0.435072 185.514 -0.68907 190.208 21.5529 197.199C27.2422 198.987 62.9069 207.709 62.9069 207.709" stroke="white" stroke-width="5" stroke-linecap="round"/>
</svg>
