<svg width="95" height="86" viewBox="0 0 95 86" fill="none" xmlns="http://www.w3.org/2000/svg">
<rect x="2.5" y="2.5" width="89.5821" height="80.3093" rx="17.2046" fill="#024C2B"/>
<rect x="21.0156" y="14.4501" width="52.5456" height="60.673" rx="13.1364" fill="#024C2B"/>
<path d="M23.5409 61.0845C32.0114 57.9112 39.1847 54.0254 45.0608 49.4271C50.9369 44.8288 54.3226 39.9906 55.218 34.9125C55.6949 32.2078 55.219 29.9043 53.7901 28.0018C52.4262 26.0539 50.2263 24.8123 47.1904 24.277C44.3202 23.7709 41.7942 23.8947 39.6124 24.6482C37.4956 25.3563 35.348 26.4005 33.1696 27.7807L30.8263 22.6721C32.1735 21.4869 33.9948 20.3567 36.2902 19.2817C38.6407 18.2164 41.2787 17.4579 44.204 17.0062C47.139 16.4993 50.0141 16.494 52.8291 16.9904C56.8585 17.7009 60.1039 18.9845 62.5652 20.8414C65.0818 22.7079 66.8029 24.8896 67.7286 27.3862C68.6543 29.8829 68.8738 32.5112 68.3871 35.271C67.4528 40.5699 63.9745 45.4488 57.9523 49.9075C51.9301 54.3662 44.6058 58.14 35.9795 61.2289L60.3844 63.2272L64.757 56.8271L69.7833 58.8232L64.8128 72.9719L24.4913 65.8621L23.5409 61.0845Z" fill="white"/>
<rect x="2.5" y="2.5" width="89.5821" height="80.3093" rx="17.2046" stroke="white" stroke-width="5"/>
</svg>
