<svg width="95" height="86" viewBox="0 0 95 86" fill="none" xmlns="http://www.w3.org/2000/svg">
<rect x="2.5" y="2.5" width="89.5821" height="80.3093" rx="17.2046" fill="#35FAA0"/>
<rect x="21.0117" y="14.4501" width="52.5456" height="60.673" rx="13.1364" fill="#024C2B"/>
<path d="M45.4975 27.0295C44.5008 27.1952 42.7394 27.3399 40.2134 27.4637C37.6971 27.5322 35.7344 27.5276 34.3253 27.4499L34.4365 21.4936C37.5242 21.412 40.805 20.8807 44.279 19.8997C47.8179 18.8732 50.7593 17.6844 53.1033 16.3334L53.1861 16.348L59.5664 18.4121L51.5369 63.9498L60.815 66.5248L59.9536 71.4098L28.4085 65.8475L29.2698 60.9626L39.3513 61.8865L45.4975 27.0295Z" fill="white"/>
<rect x="2.5" y="2.5" width="89.5821" height="80.3093" rx="17.2046" stroke="black" stroke-width="5"/>
</svg>
