<svg width="176" height="203" viewBox="0 0 176 203" fill="none" xmlns="http://www.w3.org/2000/svg">
<path d="M2.96484 6.24518C49.8431 -5.90844 128.545 15.2324 102.17 78.5341C93.9156 98.3443 62.4219 108.596 42.3392 99.7593C36.1496 97.0359 58.6435 85.3165 58.9503 85.1477C73.7495 77.0081 90.6845 70.9096 107.861 73.9199C140.304 79.6058 136.155 144.63 134.315 166.973C133.403 178.056 131.422 188.989 130.316 200.041C130.088 202.319 118.505 183.059 118.166 182.507C108.193 166.267 112.499 173.695 117.858 184.968C127.291 204.809 132.025 204.792 147.235 187.121C151.126 182.601 173.221 153.189 173.228 153.284C173.491 156.961 173.16 158.513 171.844 158.513" stroke="white" stroke-width="5" stroke-linecap="round"/>
</svg>
