<svg width="36" height="34" viewBox="0 0 36 34" fill="none" xmlns="http://www.w3.org/2000/svg">
<rect y="0.941162" width="36" height="32.4706" rx="7.5" fill="#35FAA0" fill-opacity="0.6"/>
<rect x="8" y="5.44116" width="20" height="22" rx="5" fill="#024C2B"/>
<path d="M14.9543 22.7075C14.9333 22.7075 14.9053 22.7215 14.8843 22.7215C13.5263 22.0495 12.4203 20.9365 11.7413 19.5785C11.7413 19.5575 11.7553 19.5295 11.7553 19.5085C12.6093 19.7605 13.4913 19.9495 14.3663 20.0965C14.5203 20.9785 14.7023 21.8535 14.9543 22.7075ZM24.258 19.5855C23.565 20.9785 22.41 22.1055 21.003 22.7845C21.269 21.8955 21.493 20.9995 21.64 20.0965C22.522 19.9495 23.39 19.7605 24.244 19.5085C24.237 19.5365 24.258 19.5645 24.258 19.5855ZM24.314 13.4675C23.432 13.2015 22.543 12.9845 21.64 12.8305C21.493 11.9275 21.276 11.0315 21.003 10.1565C22.452 10.8495 23.621 12.0185 24.314 13.4675ZM14.955 10.2328C14.703 11.0868 14.521 11.9548 14.374 12.8368C13.471 12.9768 12.575 13.2008 11.686 13.4668C12.365 12.0598 13.492 10.9048 14.885 10.2118C14.906 10.2118 14.934 10.2328 14.955 10.2328ZM20.4444 12.6835C18.8204 12.5015 17.1824 12.5015 15.5584 12.6835C15.7334 11.7245 15.9574 10.7655 16.2724 9.84146C16.2864 9.78546 16.2794 9.74346 16.2864 9.68746C16.8394 9.55446 17.4064 9.47046 18.0014 9.47046C18.5894 9.47046 19.1634 9.55446 19.7094 9.68746C19.7164 9.74346 19.7164 9.78546 19.7304 9.84146C20.0454 10.7725 20.2694 11.7245 20.4444 12.6835ZM14.213 18.9149C13.247 18.7399 12.295 18.5159 11.371 18.2009C11.315 18.1869 11.273 18.1939 11.217 18.1869C11.084 17.6339 11 17.0669 11 16.4719C11 15.8839 11.084 15.3099 11.217 14.7639C11.273 14.7569 11.315 14.7569 11.371 14.7429C12.302 14.4349 13.247 14.2039 14.213 14.0289C14.038 15.6529 14.038 17.2909 14.213 18.9149ZM25 16.4719C25 17.0669 24.916 17.6339 24.783 18.1869C24.727 18.1939 24.685 18.1869 24.629 18.2009C23.698 18.5089 22.746 18.7399 21.787 18.9149C21.969 17.2909 21.969 15.6529 21.787 14.0289C22.746 14.2039 23.705 14.4279 24.629 14.7429C24.685 14.7569 24.727 14.7639 24.783 14.7639C24.916 15.3169 25 15.8839 25 16.4719ZM20.4444 20.2575C20.2694 21.2235 20.0454 22.1755 19.7304 23.0995C19.7164 23.1555 19.7164 23.1975 19.7094 23.2535C19.1634 23.3865 18.5894 23.4705 18.0014 23.4705C17.4064 23.4705 16.8394 23.3865 16.2864 23.2535C16.2794 23.1975 16.2864 23.1555 16.2724 23.0995C15.968 22.1701 15.7294 21.2204 15.5584 20.2575C16.3704 20.3485 17.1824 20.4115 18.0014 20.4115C18.8204 20.4115 19.6394 20.3485 20.4444 20.2575ZM20.6341 19.1046C18.885 19.3254 17.115 19.3254 15.3659 19.1046C15.145 17.3554 15.145 15.5855 15.3659 13.8364C17.115 13.6155 18.885 13.6155 20.6341 13.8364C20.855 15.5855 20.855 17.3554 20.6341 19.1046Z" fill="white"/>
</svg>
