<svg width="26" height="21" viewBox="0 0 26 21" fill="none" xmlns="http://www.w3.org/2000/svg">
<path d="M22.7894 5.37896C22.8046 5.60027 22.8046 5.82157 22.8046 6.04492C22.8046 12.8504 17.6338 20.6992 8.17872 20.6992V20.6951C5.38566 20.6992 2.65062 19.8976 0.299316 18.3862C0.70545 18.4351 1.11362 18.4596 1.52281 18.4606C3.83746 18.4627 6.08596 17.6845 7.90695 16.2516C5.70731 16.2098 3.77843 14.7728 3.10459 12.675C3.87513 12.8239 4.66907 12.7933 5.42536 12.5863C3.02723 12.1008 1.30193 9.98971 1.30193 7.53799C1.30193 7.51555 1.30193 7.49413 1.30193 7.47272C2.01648 7.87148 2.81653 8.09279 3.63491 8.11726C1.37623 6.60482 0.680003 3.59422 2.04396 1.24039C4.6538 4.45803 8.50444 6.41411 12.638 6.62114C12.2238 4.83232 12.7897 2.95783 14.1252 1.70035C16.1955 -0.249611 19.4517 -0.149665 21.3979 1.9237C22.5491 1.69627 23.6525 1.27303 24.6623 0.673356C24.2785 1.86556 23.4754 2.87828 22.4026 3.52181C23.4215 3.40146 24.4169 3.12814 25.3544 2.71102C24.6643 3.74719 23.795 4.64976 22.7894 5.37896Z" fill="#1D9BF0"/>
</svg>
