<svg width="41" height="48" viewBox="0 0 41 48" fill="none" xmlns="http://www.w3.org/2000/svg">
<path d="M14.7857 35.9786H26.2143C27.7857 35.9786 29.0714 34.6929 29.0714 33.1214V18.8357H33.6143C36.1571 18.8357 37.4429 15.75 35.6429 13.95L22.5286 0.835714C21.4143 -0.278571 19.6143 -0.278571 18.5 0.835714L5.38571 13.95C3.58571 15.75 4.84286 18.8357 7.38571 18.8357H11.9286V33.1214C11.9286 34.6929 13.2143 35.9786 14.7857 35.9786ZM3.35714 41.6929H37.6429C39.2143 41.6929 40.5 42.9786 40.5 44.55C40.5 46.1214 39.2143 47.4071 37.6429 47.4071H3.35714C1.78571 47.4071 0.5 46.1214 0.5 44.55C0.5 42.9786 1.78571 41.6929 3.35714 41.6929Z" fill="#8E8E93"/>
</svg>
