<svg width="27" height="28" viewBox="0 0 27 28" fill="none" xmlns="http://www.w3.org/2000/svg">
<path d="M13.5 0.666687C6.14002 0.666687 0.166687 6.64002 0.166687 14C0.166687 21.36 6.14002 27.3334 13.5 27.3334C20.86 27.3334 26.8334 21.36 26.8334 14C26.8334 6.64002 20.86 0.666687 13.5 0.666687ZM18.2067 15.3734L14.2067 19.3734C14.0067 19.5734 13.7534 19.6667 13.5 19.6667C13.2467 19.6667 12.9934 19.5734 12.7934 19.3734L8.79335 15.3734C8.60738 15.1852 8.50309 14.9313 8.50309 14.6667C8.50309 14.4021 8.60738 14.1482 8.79335 13.96C9.18002 13.5734 9.82002 13.5734 10.2067 13.96L12.5 16.2534V9.33335C12.5 8.78669 12.9534 8.33335 13.5 8.33335C14.0467 8.33335 14.5 8.78669 14.5 9.33335V16.2534L16.7934 13.96C17.18 13.5734 17.82 13.5734 18.2067 13.96C18.5934 14.3467 18.5934 14.9867 18.2067 15.3734Z" fill="#37BCF7"/>
</svg>
