<svg width="18" height="18" viewBox="0 0 18 18" fill="none" xmlns="http://www.w3.org/2000/svg">
<path d="M17.0079 5.63932H17.3067C17.4284 5.82098 17.5 6.06224 17.5 6.39129V11.7535C17.5 12.0745 17.4265 12.3168 17.2963 12.5055H17.0079H15.5906H15.0906V12.9779H9.87402C9.44252 12.9779 9.15468 12.8546 8.95198 12.6519C8.74642 12.4463 8.62599 12.1644 8.62599 11.7535V6.39129C8.62599 5.95933 8.74937 5.67866 8.94748 5.48551C9.14954 5.28849 9.43894 5.16688 9.87402 5.16688H15.0906V5.63932H15.5906H17.0079ZM16.5079 13.9672V16.1472C16.5079 16.3839 16.4251 16.5898 16.2291 16.7858C16.0331 16.9818 15.8272 17.0645 15.5906 17.0645H1.41732C1.2017 17.0645 0.996093 16.9857 0.785685 16.781C0.582983 16.5837 0.5 16.3792 0.5 16.1472V1.97396C0.5 1.76297 0.578961 1.5588 0.790561 1.3472C1.00216 1.1356 1.20633 1.05664 1.41732 1.05664H15.5906C15.8226 1.05664 16.0271 1.13962 16.2243 1.34233C16.429 1.55273 16.5079 1.75834 16.5079 1.97396V4.17735C16.4241 4.17033 16.3387 4.16688 16.252 4.16688H16.0906V1.97396V1.47396H15.5906H1.41732H0.917323V1.97396V16.1472V16.6472H1.41732H15.5906H16.0906V16.1472V13.9779H16.252C16.3387 13.9779 16.4241 13.9744 16.5079 13.9672ZM12.5669 11.0724C13.1075 11.0724 13.5814 10.8556 13.9717 10.4653C14.3662 10.0708 14.5787 9.58768 14.5787 9.03696C14.5787 8.49567 14.3612 8.02353 13.967 7.63947C13.5757 7.25817 13.1032 7.04877 12.5669 7.04877C12.0307 7.04877 11.5581 7.25817 11.1668 7.63947C10.7727 8.02353 10.5551 8.49567 10.5551 9.03696C10.5551 9.58768 10.7677 10.0708 11.1622 10.4653C11.5524 10.8556 12.0263 11.0724 12.5669 11.0724Z" stroke="#525252"/>
</svg>
