<svg width="26" height="25" viewBox="0 0 26 25" fill="none" xmlns="http://www.w3.org/2000/svg">
<path d="M11.5021 17.5986V20.0347C11.5021 22.0987 9.58202 23.7668 7.21797 23.7668C4.85392 23.7668 2.92188 22.0987 2.92188 20.0347V17.5986C2.92188 19.6627 4.84192 21.1267 7.21797 21.1267C9.58202 21.1267 11.5021 19.6507 11.5021 17.5986Z" stroke="#525252" stroke-width="2" stroke-linecap="round" stroke-linejoin="round"/>
<path d="M11.5043 14.2984C11.5043 14.8985 11.3363 15.4505 11.0483 15.9305C10.3403 17.0945 8.88824 17.8265 7.2082 17.8265C5.52817 17.8265 4.07613 17.0825 3.36812 15.9305C3.08011 15.4505 2.91211 14.8985 2.91211 14.2984C2.91211 13.2664 3.39212 12.3424 4.16014 11.6704C4.94015 10.9864 6.00818 10.5784 7.1962 10.5784C8.38423 10.5784 9.45225 10.9984 10.2323 11.6704C11.0243 12.3304 11.5043 13.2664 11.5043 14.2984V14.2984Z" stroke="#525252" stroke-width="2" stroke-linecap="round" stroke-linejoin="round"/>
<path d="M11.5021 14.299V17.5991C11.5021 19.6631 9.58202 21.1271 7.21797 21.1271C4.85392 21.1271 2.92188 19.6511 2.92188 17.5991V14.299C2.92188 12.2349 4.84192 10.5669 7.21797 10.5669C8.40599 10.5669 9.47402 10.9869 10.254 11.6589C11.0221 12.331 11.5021 13.267 11.5021 14.299V14.299ZM25 10.5309V13.003C25 13.663 24.4719 14.203 23.7999 14.227H21.4479C20.1519 14.227 18.9638 13.279 18.8558 11.9829C18.7838 11.2269 19.0718 10.5189 19.5758 10.0269C20.0198 9.57089 20.6319 9.30688 21.3039 9.30688H23.7999C24.4719 9.33089 25 9.8709 25 10.5309Z" stroke="#525252" stroke-width="2" stroke-linecap="round" stroke-linejoin="round"/>
<path d="M1 9.96665V7.5666C1 4.30253 2.96804 2.02248 6.02811 1.63847C6.34012 1.59047 6.66412 1.56647 7.00013 1.56647H17.8004C18.1124 1.56647 18.4124 1.57847 18.7004 1.62647C21.7965 1.98648 23.8005 4.27853 23.8005 7.5666V9.30664H21.3044C20.6324 9.30664 20.0204 9.57064 19.5764 10.0267C19.0724 10.5187 18.7844 11.2267 18.8564 11.9827C18.9644 13.2787 20.1524 14.2267 21.4484 14.2267H23.8005V15.9668C23.8005 19.5669 21.4004 21.9669 17.8004 21.9669H14.8003" stroke="#525252" stroke-width="2" stroke-linecap="round" stroke-linejoin="round"/>
</svg>
