<svg width="36" height="34" viewBox="0 0 36 34" fill="none" xmlns="http://www.w3.org/2000/svg">
<rect y="0.941162" width="36" height="32.4706" rx="7.5" fill="#35FAA0" fill-opacity="0.6"/>
<rect x="8" y="5.44116" width="20" height="22" rx="5" fill="#024C2B"/>
<path d="M17.9643 10.7101L16.4828 14.0774H15.0012C14.7553 14.0774 14.5156 14.0954 14.282 14.1435L14.8967 12.7029L14.9213 12.6489L14.9582 12.5528C14.9766 12.5108 14.9889 12.4748 15.0074 12.4448C15.7205 10.8301 16.5197 10.3259 17.9643 10.7101ZM22.1391 14.2383L22.1268 14.2323C21.758 14.1303 21.383 14.0762 21.0018 14.0762H17.1535L18.5367 10.937L18.5551 10.895C18.6412 10.925 18.7334 10.967 18.8256 10.997L20.1842 11.5552C20.9404 11.8613 21.4691 12.1795 21.7949 12.5636C21.8502 12.6357 21.8994 12.7017 21.9486 12.7797C22.0039 12.8637 22.0469 12.9478 22.0715 13.0378C22.0961 13.0918 22.1145 13.1399 22.1268 13.1939C22.2191 13.5 22.2252 13.8481 22.1391 14.2383ZM21.8668 15.0966C21.5902 15.0186 21.3012 14.9766 21 14.9766H15C14.582 14.9766 14.1885 15.0546 13.8197 15.2107C13.28 15.4374 12.8201 15.8134 12.4967 16.2923C12.1734 16.7712 12.0007 17.3321 12 17.9058V19.0762C12 19.2203 12.0123 19.3584 12.0307 19.5024C12.166 21.4112 13.2111 22.4316 15.166 22.5576C15.3074 22.5756 15.4488 22.5876 15.6025 22.5876H20.3975C22.6721 22.5876 23.8709 21.5312 23.9877 19.4304C23.9939 19.3163 24 19.1963 24 19.0762V17.9058C23.9991 17.2763 23.7914 16.6637 23.4074 16.158C23.0235 15.6524 22.4834 15.2803 21.8668 15.0966ZM19.5369 19.4364H16.4631C16.2111 19.4364 16.002 19.2323 16.002 18.9862C16.002 18.7401 16.2111 18.536 16.4631 18.536H19.5369C19.7889 18.536 19.998 18.7401 19.998 18.9862C19.998 19.2323 19.7889 19.4364 19.5369 19.4364Z" fill="white"/>
</svg>
