<svg width="36" height="33" viewBox="0 0 36 33" fill="none" xmlns="http://www.w3.org/2000/svg">
<rect width="36" height="32.4706" rx="7.5" fill="#35FAA0" fill-opacity="0.6"/>
<rect x="8" y="4.5" width="20" height="22" rx="5" fill="#024C2B"/>
<path d="M18 9.05859C14.688 9.05859 12 11.7466 12 15.0586C12 18.3706 14.688 21.0586 18 21.0586C21.312 21.0586 24 18.3706 24 15.0586C24 11.7466 21.312 9.05859 18 9.05859ZM20.118 15.0766C20.028 15.1666 19.914 15.2086 19.8 15.2086C19.686 15.2086 19.572 15.1666 19.482 15.0766L18.45 14.0446V17.1586C18.45 17.4046 18.246 17.6086 18 17.6086C17.754 17.6086 17.55 17.4046 17.55 17.1586V14.0446L16.518 15.0766C16.344 15.2506 16.056 15.2506 15.882 15.0766C15.7983 14.9919 15.7514 14.8777 15.7514 14.7586C15.7514 14.6395 15.7983 14.5253 15.882 14.4406L17.682 12.6406C17.856 12.4666 18.144 12.4666 18.318 12.6406L20.118 14.4406C20.292 14.6146 20.292 14.9026 20.118 15.0766Z" fill="white"/>
</svg>
