<svg width="33" height="32" viewBox="0 0 33 32" fill="none" xmlns="http://www.w3.org/2000/svg">
<g id="filled down icon">
<path id="Vector" d="M16.4993 2.66699C9.13935 2.66699 3.16602 8.64033 3.16602 16.0003C3.16602 23.3603 9.13935 29.3337 16.4993 29.3337C23.8594 29.3337 29.8327 23.3603 29.8327 16.0003C29.8327 8.64033 23.8594 2.66699 16.4993 2.66699ZM21.206 17.3737L17.206 21.3737C17.006 21.5737 16.7527 21.667 16.4993 21.667C16.246 21.667 15.9927 21.5737 15.7927 21.3737L11.7927 17.3737C11.6067 17.1855 11.5024 16.9316 11.5024 16.667C11.5024 16.4024 11.6067 16.1485 11.7927 15.9603C12.1793 15.5737 12.8193 15.5737 13.206 15.9603L15.4993 18.2537V11.3337C15.4993 10.787 15.9527 10.3337 16.4993 10.3337C17.046 10.3337 17.4993 10.787 17.4993 11.3337V18.2537L19.7927 15.9603C20.1793 15.5737 20.8193 15.5737 21.206 15.9603C21.5927 16.347 21.5927 16.987 21.206 17.3737Z" fill="#D8D8D8"/>
</g>
</svg>
