<svg width="33" height="33" viewBox="0 0 33 33" fill="none" xmlns="http://www.w3.org/2000/svg">
<g clip-path="url(#clip0_4526_19273)">
<path d="M26.1771 3.16667H20.6038C20.0437 1.62 18.5771 0.5 16.8438 0.5C15.1104 0.5 13.6438 1.62 13.0838 3.16667H7.51042C6.04375 3.16667 4.84375 4.36667 4.84375 5.83333V27.1667C4.84375 28.6333 6.04375 29.8333 7.51042 29.8333H26.1771C27.6438 29.8333 28.8438 28.6333 28.8438 27.1667V5.83333C28.8438 4.36667 27.6438 3.16667 26.1771 3.16667ZM16.8438 3.16667C17.5771 3.16667 18.1771 3.76667 18.1771 4.5C18.1771 5.23333 17.5771 5.83333 16.8438 5.83333C16.1104 5.83333 15.5104 5.23333 15.5104 4.5C15.5104 3.76667 16.1104 3.16667 16.8438 3.16667ZM26.1771 27.1667H7.51042V5.83333H10.1771V9.83333H23.5104V5.83333H26.1771V27.1667Z" fill="black"/>
</g>
<defs>
<clipPath id="clip0_4526_19273">
<rect width="32" height="32" fill="white" transform="translate(0.84375 0.5)"/>
</clipPath>
</defs>
</svg>
