<svg width="32" height="32" viewBox="0 0 32 32" fill="none" xmlns="http://www.w3.org/2000/svg">
<path d="M16.0026 1.33333C7.91594 1.33333 1.33594 7.91333 1.33594 16C1.33594 24.0867 7.91594 30.6667 16.0026 30.6667C24.0893 30.6667 30.6693 24.0867 30.6693 16C30.6693 7.91333 24.0893 1.33333 16.0026 1.33333ZM16.0026 3.99999C22.6199 3.99999 28.0026 9.384 28.0026 16C28.0026 22.6173 22.6199 28 16.0026 28C9.3866 28 4.0026 22.6173 4.0026 16C4.0026 9.384 9.3866 3.99999 16.0026 3.99999ZM9.33594 9.33333V12H14.6693V13.3984C11.7273 13.5432 8.0026 14.1751 8.0026 16C8.0026 17.8249 11.7273 18.4568 14.6693 18.6016V24H17.3359V18.6016C20.2779 18.4568 24.0026 17.8249 24.0026 16C24.0026 14.1751 20.2779 13.5432 17.3359 13.3984V12H22.6693V9.33333H9.33594ZM14.6693 14.7031V16H17.3359V14.7031C20.565 14.869 22.5095 15.6013 22.6745 15.9713C22.4878 16.446 20.0306 17.3333 16.0026 17.3333C11.9733 17.3333 9.5174 16.4473 9.33073 16.0286C9.49571 15.6091 11.4395 14.8697 14.6693 14.7031Z" fill="black"/>
</svg>
