<svg width="48" height="48" viewBox="0 0 48 48" fill="none" xmlns="http://www.w3.org/2000/svg">
<rect width="48" height="48" rx="9.17942" fill="#35FAA0" fill-opacity="0.2"/>
<path d="M24 13C17.935 13 13 17.935 13 24C13 30.065 17.935 35 24 35C30.065 35 35 30.065 35 24C35 17.935 30.065 13 24 13ZM24 15C28.963 15 33 19.038 33 24C33 28.963 28.963 33 24 33C19.038 33 15 28.963 15 24C15 19.038 19.038 15 24 15ZM19 19V21H23V22.0488C20.7935 22.1574 18 22.6313 18 24C18 25.3687 20.7935 25.8426 23 25.9512V30H25V25.9512C27.2065 25.8426 30 25.3687 30 24C30 22.6313 27.2065 22.1574 25 22.0488V21H29V19H19ZM23 23.0273V24H25V23.0273C27.4218 23.1518 28.8802 23.701 29.0039 23.9785C28.8639 24.3345 27.021 25 24 25C20.978 25 19.1361 24.3355 18.9961 24.0215C19.1198 23.7068 20.5777 23.1523 23 23.0273Z" fill="black"/>
</svg>
