<svg width="18" height="18" viewBox="0 0 18 18" fill="none" xmlns="http://www.w3.org/2000/svg">
<path d="M14.5906 5.66688V6.13932H15.5906H16.9778C16.9917 6.20814 17 6.29092 17 6.39129V11.7535C17 11.8532 16.9909 11.9359 16.9753 12.0055H15.5906H14.5906V12.4779H9.87402C9.54647 12.4779 9.39597 12.3888 9.30553 12.2984C9.20937 12.2022 9.12599 12.0557 9.12599 11.7535V6.39129C9.12599 6.06282 9.21527 5.92273 9.29653 5.84351C9.3857 5.75656 9.53929 5.66688 9.87402 5.66688H14.5906ZM12.5669 11.5724C13.2544 11.5724 13.8518 11.2923 14.3252 10.8189C14.8072 10.3369 15.0787 9.72896 15.0787 9.03696C15.0787 8.34808 14.7972 7.75026 14.316 7.28136C13.8404 6.81797 13.2458 6.54877 12.5669 6.54877C11.8881 6.54877 11.2935 6.81797 10.8179 7.28136C10.3366 7.75026 10.0551 8.34808 10.0551 9.03696C10.0551 9.72896 10.3266 10.3369 10.8086 10.8189C11.282 11.2923 11.8794 11.5724 12.5669 11.5724Z" fill="white" stroke="white" stroke-width="2"/>
</svg>
