<svg width="35" height="35" viewBox="0 0 35 35" fill="none" xmlns="http://www.w3.org/2000/svg">
<g id="Amex Canada svg" clip-path="url(#clip0_3523_24540)">
<path id="logo-blue-box-small-45-9x45-a" d="M34.9222 34.9222H0V0H34.9222V34.9222Z" fill="white"/>
<path id="Vector" d="M34.9222 18.9155V0.0155029H0V34.9377H34.9222V24.7488C34.8444 24.7488 34.9222 18.9155 34.9222 18.9155Z" fill="#006FCF"/>
<path id="Vector_2" d="M30.6444 16.9711H33.2889V10.8267H30.4111V11.6822L29.8667 10.8267H27.3778V11.9155L26.9111 10.8267H22.3222C22.1667 10.8267 22.0111 10.9044 21.8556 10.9044C21.7 10.9044 21.6222 10.9822 21.4667 11.06C21.3111 11.1378 21.2333 11.1378 21.0778 11.2155V10.8267H7.93333L7.54444 11.8378L7.15555 10.8267H4.04444V11.9155L3.57778 10.8267H1.08889L0 13.4711V16.9711H1.78889L2.1 16.1155H2.72222L3.03333 16.9711H16.7222V16.1933L17.2667 16.9711H21.0778V16.5044C21.1556 16.5822 21.3111 16.5822 21.3889 16.66C21.4667 16.7378 21.6222 16.7378 21.7 16.8155C21.8556 16.8933 22.0111 16.8933 22.1667 16.8933H24.9667L25.2778 16.0378H25.9L26.2111 16.8933H30.0222V16.1155L30.6444 16.9711ZM34.9222 24.7489V18.9933H13.5333L12.9889 19.7711L12.4444 18.9933H6.22222V25.1378H12.4444L12.9889 24.36L13.5333 25.1378H17.4222V23.8155H17.2667C17.8111 23.8155 18.2778 23.7378 18.6667 23.5822V25.2155H21.4667V24.4378L22.0111 25.2155H33.6C34.0667 25.06 34.5333 24.9822 34.9222 24.7489Z" fill="white"/>
<path id="Vector_3" d="M33.6 23.2711H31.5V24.1267H33.5222C34.3778 24.1267 34.9222 23.5822 34.9222 22.8044C34.9222 22.0267 34.4556 21.6378 33.6778 21.6378H32.7444C32.5111 21.6378 32.3556 21.4822 32.3556 21.2489C32.3556 21.0155 32.5111 20.86 32.7444 20.86H34.5333L34.9222 20.0044H32.8222C31.9667 20.0044 31.4222 20.5489 31.4222 21.2489C31.4222 22.0267 31.8889 22.4155 32.6667 22.4155H33.6C33.8333 22.4155 33.9889 22.5711 33.9889 22.8044C34.0667 23.1155 33.9111 23.2711 33.6 23.2711ZM29.7889 23.2711H27.6889V24.1267H29.7111C30.5667 24.1267 31.1111 23.5822 31.1111 22.8044C31.1111 22.0267 30.6444 21.6378 29.8667 21.6378H28.9333C28.7 21.6378 28.5444 21.4822 28.5444 21.2489C28.5444 21.0155 28.7 20.86 28.9333 20.86H30.7222L31.1111 20.0044H29.0111C28.1556 20.0044 27.6111 20.5489 27.6111 21.2489C27.6111 22.0267 28.0778 22.4155 28.8556 22.4155H29.7889C30.0222 22.4155 30.1778 22.5711 30.1778 22.8044C30.2556 23.1155 30.0222 23.2711 29.7889 23.2711ZM27.0667 20.7822V19.9267H23.8V24.0489H27.0667V23.1933H24.7333V22.3378H26.9889V21.4822H24.7333V20.7044H27.0667V20.7822ZM21.7778 20.7822C22.1667 20.7822 22.3222 21.0155 22.3222 21.2489C22.3222 21.4822 22.1667 21.7155 21.7778 21.7155H20.6111V20.7044L21.7778 20.7822ZM20.6111 22.5711H21.0778L22.3222 24.0489H23.4889L22.0889 22.4933C22.7889 22.3378 23.1778 21.8711 23.1778 21.2489C23.1778 20.4711 22.6333 19.9267 21.7778 19.9267H19.6V24.0489H20.5333L20.6111 22.5711ZM18.1222 21.3267C18.1222 21.6378 17.9667 21.8711 17.5778 21.8711H16.3333V20.7822H17.5C17.8889 20.7822 18.1222 21.0155 18.1222 21.3267ZM15.4 19.9267V24.0489H16.3333V22.6489H17.5778C18.4333 22.6489 19.0556 22.1044 19.0556 21.2489C19.0556 20.4711 18.5111 19.8489 17.6556 19.8489L15.4 19.9267ZM14 24.0489H15.1667L13.5333 21.9489L15.1667 19.9267H14L12.9889 21.2489L11.9778 19.9267H10.8111L12.4444 21.9489L10.8111 23.9711H11.9778L12.9889 22.6489L14 24.0489ZM10.5 20.7822V19.9267H7.23333V24.0489H10.5V23.1933H8.16667V22.3378H10.4222V21.4822H8.16667V20.7044H10.5V20.7822ZM29.4 13.4711L31.0333 15.96H32.2V11.8378H31.2667V14.56L31.0333 14.1711L29.5556 11.8378H28.3111V15.96H29.2444V13.16L29.4 13.4711ZM25.3556 13.3933L25.6667 12.5378L25.9778 13.3933L26.3667 14.3267H24.9667L25.3556 13.3933ZM26.9889 15.96H28L26.2111 11.8378H24.9667L23.1778 15.96H24.1889L24.5778 15.1044H26.6L26.9889 15.96ZM22.6333 15.96L23.0222 15.1044H22.7889C22.0889 15.1044 21.7 14.6378 21.7 13.9378V13.86C21.7 13.16 22.0889 12.6933 22.7889 12.6933H23.8V11.8378H22.7111C21.4667 11.8378 20.7667 12.6933 20.7667 13.86V13.9378C20.7667 15.1822 21.4667 15.96 22.6333 15.96ZM19.1333 15.96H20.0667V11.9155H19.1333V15.96ZM17.1111 12.6933C17.5 12.6933 17.6556 12.9267 17.6556 13.16C17.6556 13.3933 17.5 13.6267 17.1111 13.6267H15.9444V12.6155L17.1111 12.6933ZM15.9444 14.4822H16.4111L17.6556 15.96H18.8222L17.4222 14.4044C18.1222 14.2489 18.5111 13.7822 18.5111 13.16C18.5111 12.3822 17.9667 11.8378 17.1111 11.8378H14.9333V15.96H15.8667L15.9444 14.4822ZM14.2333 12.6933V11.8378H10.9667V15.96H14.2333V15.1044H11.9V14.2489H14.1556V13.3933H11.9V12.6155H14.2333V12.6933ZM7.15555 15.96H8.01111L9.17778 12.6155V15.96H10.1111V11.8378H8.55556L7.62222 14.6378L6.68889 11.8378H5.13333V15.96H6.06667V12.6155L7.15555 15.96ZM2.1 13.3933L2.41111 12.5378L2.72222 13.3933L3.11111 14.3267H1.71111L2.1 13.3933ZM3.73333 15.96H4.74444L2.95556 11.8378H1.78889L0 15.96H1.01111L1.4 15.1044H3.42222L3.73333 15.96Z" fill="#006FCF"/>
</g>
<defs>
<clipPath id="clip0_3523_24540">
<rect width="35" height="35" fill="white"/>
</clipPath>
</defs>
</svg>
