<svg width="26" height="26" viewBox="0 0 26 26" fill="none" xmlns="http://www.w3.org/2000/svg">
<g id="copy">
<path id="Vector" d="M21.388 9.875H12.013C10.8624 9.875 9.92969 10.8077 9.92969 11.9583V21.3333C9.92969 22.4839 10.8624 23.4167 12.013 23.4167H21.388C22.5386 23.4167 23.4714 22.4839 23.4714 21.3333V11.9583C23.4714 10.8077 22.5386 9.875 21.388 9.875Z" stroke="black" stroke-width="2" stroke-linecap="round" stroke-linejoin="round"/>
<path id="Vector_2" d="M5.76172 16.125H4.72005C4.16752 16.125 3.63761 15.9055 3.24691 15.5148C2.85621 15.1241 2.63672 14.5942 2.63672 14.0416V4.66665C2.63672 4.11411 2.85621 3.58421 3.24691 3.19351C3.63761 2.80281 4.16752 2.58331 4.72005 2.58331H14.0951C14.6476 2.58331 15.1775 2.80281 15.5682 3.19351C15.9589 3.58421 16.1784 4.11411 16.1784 4.66665V5.70831" stroke="black" stroke-width="2" stroke-linecap="round" stroke-linejoin="round"/>
</g>
</svg>
