<svg width="26" height="26" viewBox="0 0 26 26" fill="none" xmlns="http://www.w3.org/2000/svg">
<g id="Facebook svg" clip-path="url(#clip0_3523_24614)">
<g id="g10">
<g id="g12">
<path id="path14" d="M25.5547 13C25.5547 6.09643 19.9583 0.499998 13.0547 0.499998C6.15112 0.499998 0.554688 6.09643 0.554688 13C0.554688 19.2391 5.12576 24.4104 11.1016 25.3481V16.6133H7.92773V13H11.1016V10.2461C11.1016 7.11328 12.9677 5.38281 15.823 5.38281C17.1906 5.38281 18.6211 5.62695 18.6211 5.62695V8.70312H17.0449C15.4921 8.70312 15.0078 9.66667 15.0078 10.6552V13H18.4746L17.9204 16.6133H15.0078V25.3481C20.9836 24.4104 25.5547 19.2391 25.5547 13Z" fill="#100F0D"/>
<path id="path16" d="M17.9224 16.6133L18.4766 13H15.0098V10.6552C15.0098 9.66667 15.494 8.70312 17.0468 8.70312H18.623V5.62695C18.623 5.62695 17.1926 5.38281 15.825 5.38281C12.9697 5.38281 11.1035 7.11328 11.1035 10.2461V13H7.92969V16.6133H11.1035V25.3481C11.7399 25.448 12.3922 25.5 13.0566 25.5C13.7211 25.5 14.3734 25.448 15.0098 25.3481V16.6133H17.9224Z" fill="white"/>
</g>
</g>
</g>
<defs>
<clipPath id="clip0_3523_24614">
<rect width="25" height="25" fill="white" transform="translate(0.554688 0.5)"/>
</clipPath>
</defs>
</svg>
