<svg width="35" height="23" viewBox="0 0 35 23" fill="none" xmlns="http://www.w3.org/2000/svg">
<g id="Mastercard svg" clip-path="url(#clip0_3523_24532)">
<g id="Group">
<g id="Group_2">
<path id="Vector" d="M22.2291 3.00806H12.7656V19.9919H22.2291V3.00806Z" fill="#FF5F00"/>
<path id="Vector_2" d="M13.3677 11.5C13.3677 8.19928 14.8999 5.04856 17.4836 3.00809C12.7969 -0.682749 6.00718 0.127436 2.3119 4.83851C-1.38338 9.51958 -0.572221 16.3011 4.14452 19.992C8.08014 23.0827 13.578 23.0827 17.5136 19.992C14.8999 17.9515 13.3677 14.8008 13.3677 11.5Z" fill="#EB001B"/>
<path id="Vector_3" d="M34.9967 11.5C34.9967 17.4714 30.1598 22.3025 24.1812 22.3025C21.7478 22.3025 19.4044 21.4923 17.5117 19.992C22.1984 16.3011 23.0096 9.51958 19.3143 4.80851C18.7735 4.14836 18.1727 3.51821 17.5117 3.00809C22.1984 -0.68275 29.0182 0.127436 32.6834 4.83851C34.1855 6.72895 34.9967 9.06948 34.9967 11.5Z" fill="#F79E1B"/>
<path id="Vector_4" d="M33.9759 18.1916V17.8315H34.1261V17.7715H33.7656V17.8315H33.9158V18.1916H33.9759ZM34.6669 18.1916V17.7715H34.5467L34.4266 18.0716L34.3064 17.7715H34.1862V18.1916H34.2764V17.8615L34.3965 18.1316H34.4867L34.6068 17.8615V18.1916H34.6669Z" fill="#F79E1B"/>
</g>
</g>
</g>
<defs>
<clipPath id="clip0_3523_24532">
<rect width="35" height="21.6049" fill="white" transform="translate(0 0.69751)"/>
</clipPath>
</defs>
</svg>
