<svg width="26" height="23" viewBox="0 0 26 23" fill="none" xmlns="http://www.w3.org/2000/svg">
<path d="M1.1168 21.05L3.9068 20.66V15.26H0.126797V13.31H3.9068V10.16H0.366797V8.24H3.9068V3.2L1.0868 2.78V0.709999H9.0968L13.6868 8.24H19.2368L19.1768 3.2L16.2068 2.78V0.709999H24.6068V2.78L21.9668 3.2V8.24H25.4468V10.16H21.9668V13.31H25.0568V15.26H21.9668V23H17.3168L12.4868 15.26H6.7268V20.66L9.9068 21.05V23H1.1168V21.05ZM8.3468 8.24L6.7268 5.06V8.24H8.3468ZM11.3168 13.31L9.3668 10.16H6.7268V13.31H11.3168ZM19.2668 13.31L19.2368 10.16H14.8868L16.8068 13.31H19.2668ZM19.2668 15.26H17.7668L19.3268 18.59L19.2668 15.26Z" fill="black"/>
</svg>
