<svg width="16" height="30" viewBox="0 0 16 30" fill="none" xmlns="http://www.w3.org/2000/svg">
<path d="M15.9602 19.7001C15.9602 21.3401 15.4202 22.7801 14.3402 24.0201C13.2602 25.2401 11.5702 25.9801 9.27023 26.2401L9.24024 29.7801H6.63023L6.66023 26.3001C5.56023 26.2401 4.54023 26.1101 3.60023 25.9101C2.68023 25.6901 1.94023 25.5001 1.38023 25.3401C0.820234 25.1601 0.470234 25.0501 0.330234 25.0101L0.570234 19.5801H3.42023L4.20023 23.2101C4.78023 23.9101 5.84023 24.2601 7.38024 24.2601C9.74024 24.2601 10.9202 23.2201 10.9202 21.1401C10.9202 20.2201 10.5102 19.4301 9.69023 18.7701C8.87023 18.0901 7.57023 17.3001 5.79023 16.4001C4.09023 15.5401 2.77023 14.5901 1.83023 13.5501C0.910234 12.4901 0.450234 11.0901 0.450234 9.35012C0.450234 8.39012 0.690234 7.50012 1.17023 6.68012C1.67023 5.84012 2.39023 5.14012 3.33023 4.58012C4.29023 4.02012 5.43023 3.66012 6.75024 3.50012V0.200122H9.42023V3.47012C10.7802 3.55012 11.9602 3.74012 12.9602 4.04012C13.9602 4.34012 14.5102 4.50012 14.6102 4.52012L14.4302 9.50012H11.6702L11.0102 6.20012C10.7902 5.98012 10.4702 5.80012 10.0502 5.66012C9.63023 5.50012 9.17023 5.42012 8.67023 5.42012C7.61023 5.42012 6.78023 5.68012 6.18023 6.20012C5.58023 6.72012 5.28023 7.40012 5.28023 8.24012C5.28023 8.96012 5.51023 9.60012 5.97023 10.1601C6.43023 10.7201 6.96023 11.1901 7.56023 11.5701C8.18023 11.9301 9.09024 12.4201 10.2902 13.0401C11.5102 13.7001 12.5002 14.3101 13.2602 14.8701C14.0402 15.4301 14.6802 16.1101 15.1802 16.9101C15.7002 17.7101 15.9602 18.6401 15.9602 19.7001Z" fill="#14142A"/>
</svg>
