<svg width="35" height="13" viewBox="0 0 35 13" fill="none" xmlns="http://www.w3.org/2000/svg">
<g id="Visa Inc. svg" clip-path="url(#clip0_3523_24530)">
<path id="path3789" d="M22.804 0.841675C20.3222 0.841675 18.0938 2.13311 18.0938 4.50295C18.0938 7.23226 22.0301 7.41865 22.0301 8.77666C22.0301 9.34914 21.3629 9.86838 20.2421 9.86838C18.6409 9.86838 17.44 9.14944 17.44 9.14944L16.9329 11.5459C16.9329 11.5459 18.3073 12.1583 20.1487 12.1583C22.8708 12.1583 25.0057 10.8137 25.0057 8.39056C25.0057 5.51479 21.056 5.3284 21.056 4.0636C21.056 3.61093 21.6031 3.11832 22.724 3.11832C23.9916 3.11832 25.0324 3.63756 25.0324 3.63756L25.5395 1.32097C25.5261 1.32097 24.3919 0.841675 22.804 0.841675ZM0.0667175 1.01475L0 1.36091C0 1.36091 1.04079 1.5473 1.98818 1.9334C3.20244 2.37275 3.2825 2.62571 3.496 3.41122L5.72436 11.9719H8.71331L13.2901 1.01475H10.3145L7.36561 8.47044L6.1647 2.14642C6.05795 1.42748 5.49752 1.01475 4.80366 1.01475H0.0667175ZM14.491 1.01475L12.1559 11.9719H14.9981L17.3199 1.01475H14.491ZM30.3164 1.01475C29.6359 1.01475 29.2756 1.37422 29.0088 2.01328L24.8456 11.9719H27.8212L28.395 10.3077H32.0244L32.3713 11.9719H35L32.7183 1.01475H30.3164ZM30.7034 3.98371L31.5841 8.09766H29.2223L30.7034 3.98371Z" fill="black"/>
</g>
<defs>
<clipPath id="clip0_3523_24530">
<rect width="35" height="11.3167" fill="white" transform="translate(0 0.841675)"/>
</clipPath>
</defs>
</svg>
