<svg width="26" height="26" viewBox="0 0 26 26" fill="none" xmlns="http://www.w3.org/2000/svg">
<g id="WhatsApp svg" clip-path="url(#clip0_3523_24621)">
<g id="Icon_Shape">
<path id="Vector" d="M25.5547 19.1558C25.5547 19.2928 25.5504 19.5882 25.5418 19.8193C25.5204 20.3801 25.4776 21.1036 25.4091 21.4332C25.3064 21.9298 25.1566 22.3964 24.9554 22.786C24.7199 23.2483 24.4203 23.6592 24.0607 24.0146C23.7054 24.3699 23.2944 24.6695 22.8321 24.905C22.4425 25.1062 21.9716 25.256 21.4708 25.3587C21.1454 25.4229 20.4263 25.47 19.8698 25.4872C19.6386 25.4957 19.3432 25.5 19.2062 25.5H6.89459C6.7576 25.5 6.46222 25.4957 6.23106 25.4872C5.67027 25.4658 4.94681 25.4229 4.61719 25.3545C4.12061 25.2517 3.654 25.1019 3.26445 24.9007C2.80212 24.6652 2.39116 24.3656 2.03585 24.006C1.68054 23.6507 1.38089 23.2397 1.14544 22.7774C0.944242 22.3878 0.794414 21.917 0.691674 21.4161C0.627461 21.0908 0.580372 20.3716 0.563249 19.8151C0.558968 19.5882 0.554688 19.2928 0.554688 19.1558V6.84418C0.554688 6.70719 0.558968 6.41182 0.56753 6.18065C0.588934 5.61986 0.631742 4.8964 0.700235 4.56678C0.802975 4.07021 0.952804 3.6036 1.154 3.21404C1.38945 2.75171 1.68911 2.34075 2.04441 1.98545C2.39972 1.63014 2.81068 1.33048 3.27301 1.09503C3.66256 0.893836 4.13345 0.744007 4.63431 0.641267C4.95965 0.577055 5.67883 0.529966 6.23534 0.512842C6.4665 0.504281 6.76188 0.5 6.89887 0.5H19.2105C19.3475 0.5 19.6429 0.504281 19.874 0.512842C20.4348 0.534247 21.1583 0.577055 21.4879 0.645548C21.9845 0.748288 22.4511 0.898116 22.8406 1.09932C23.303 1.33476 23.7139 1.63442 24.0692 1.99401C24.4246 2.34932 24.7242 2.76027 24.9597 3.2226C25.1609 3.61216 25.3107 4.08305 25.4134 4.5839C25.4776 4.90925 25.5247 5.62842 25.5418 6.18493C25.5504 6.4161 25.5547 6.71147 25.5547 6.84846V19.1558Z" fill="black"/>
</g>
<g id="WA_Logo">
<g id="Group">
<path id="Vector_2" fill-rule="evenodd" clip-rule="evenodd" d="M19.6309 6.48459C17.9486 4.80223 15.7097 3.87329 13.3253 3.87329C8.4109 3.87329 4.4169 7.87158 4.41262 12.7817C4.41262 14.3527 4.82358 15.8853 5.60269 17.2337L4.33984 21.8527L9.06587 20.6156C10.3672 21.3262 11.8313 21.6986 13.3253 21.6986H13.3296C18.2397 21.6986 22.238 17.7003 22.2422 12.7902C22.2422 10.4058 21.3133 8.16696 19.6309 6.48459ZM13.3296 20.1918C11.9982 20.1918 10.6926 19.8322 9.55817 19.1601L9.28847 19.0017L6.48454 19.738L7.23368 17.0069L7.05817 16.7286C6.31758 15.5514 5.92375 14.1858 5.92375 12.786C5.92375 8.70206 9.24995 5.38014 13.3338 5.38014C15.3116 5.38014 17.1737 6.15069 18.5693 7.55052C19.9691 8.95035 20.7397 10.8125 20.7354 12.7902C20.7311 16.8699 17.4092 20.1918 13.3296 20.1918ZM17.3921 14.6481C17.1695 14.5368 16.0736 13.9974 15.8724 13.9247C15.6669 13.8519 15.5213 13.8134 15.3715 14.036C15.2217 14.2586 14.7979 14.7594 14.6652 14.9092C14.5368 15.0591 14.4041 15.0762 14.1815 14.9649C13.9588 14.8536 13.2397 14.6182 12.3921 13.8604C11.7285 13.2697 11.2833 12.542 11.1549 12.3194C11.0265 12.0968 11.1421 11.9769 11.2534 11.8656C11.3518 11.7671 11.476 11.6045 11.5873 11.476C11.6986 11.3476 11.7371 11.2534 11.8099 11.1036C11.8827 10.9538 11.8484 10.8253 11.7928 10.714C11.7371 10.6027 11.2919 9.50685 11.1078 9.06165C10.928 8.62928 10.744 8.68494 10.607 8.68065C10.4785 8.67209 10.3287 8.67209 10.1789 8.67209C10.0291 8.67209 9.78933 8.72774 9.58385 8.95035C9.37837 9.17295 8.80474 9.71233 8.80474 10.8082C8.80474 11.9041 9.60097 12.9615 9.71227 13.1113C9.82358 13.2611 11.2833 15.5086 13.5179 16.4717C14.0487 16.7029 14.464 16.8399 14.7893 16.9426C15.3244 17.1139 15.8082 17.0882 16.1934 17.0325C16.6215 16.9683 17.5119 16.4932 17.696 15.9752C17.8801 15.4572 17.8801 15.0077 17.8244 14.9178C17.7602 14.8151 17.6147 14.7594 17.3921 14.6481Z" fill="white"/>
</g>
</g>
</g>
<defs>
<clipPath id="clip0_3523_24621">
<rect width="25" height="25" fill="white" transform="translate(0.554688 0.5)"/>
</clipPath>
</defs>
</svg>
