<svg width="16" height="16" viewBox="0 0 16 16" fill="none" xmlns="http://www.w3.org/2000/svg">
<g id="Business label">
<path id="Vector" d="M9.875 5.16865C9.875 4.7499 9.66875 4.3624 9.31875 4.13115L6.81875 2.4624C6.4 2.18115 5.85 2.18115 5.43125 2.4624L2.93125 4.13115C2.5875 4.3624 2.375 4.7499 2.375 5.16865V8.71865C2.375 8.89365 2.5125 9.03115 2.6875 9.03115H9.5625C9.7375 9.03115 9.875 8.89365 9.875 8.71865V5.16865ZM6.125 7.46865C5.525 7.46865 5.03125 6.9749 5.03125 6.3749C5.03125 5.7749 5.525 5.28115 6.125 5.28115C6.725 5.28115 7.21875 5.7749 7.21875 6.3749C7.21875 6.9749 6.725 7.46865 6.125 7.46865Z" fill="black"/>
<path id="Vector_2" d="M14.25 14.0319H13.4563V12.1569C14.05 11.9632 14.4813 11.4069 14.4813 10.7507V9.50068C14.4813 8.68193 13.8125 8.01318 12.9938 8.01318C12.175 8.01318 11.5063 8.68193 11.5063 9.50068V10.7507C11.5063 11.4007 11.9313 11.9507 12.5125 12.1507V14.0319H9.875V10.2819C9.875 10.1069 9.7375 9.96943 9.5625 9.96943H2.6875C2.5125 9.96943 2.375 10.1069 2.375 10.2819V14.0319H1.75C1.49375 14.0319 1.28125 14.2444 1.28125 14.5007C1.28125 14.7569 1.49375 14.9694 1.75 14.9694H12.9563C12.9688 14.9694 12.975 14.9757 12.9875 14.9757C13 14.9757 13.0063 14.9694 13.0188 14.9694H14.25C14.5063 14.9694 14.7188 14.7569 14.7188 14.5007C14.7188 14.2444 14.5063 14.0319 14.25 14.0319ZM5.65625 12.1569C5.65625 11.9007 5.86875 11.6882 6.125 11.6882C6.38125 11.6882 6.59375 11.9007 6.59375 12.1569V14.0319H5.65625V12.1569Z" fill="black"/>
</g>
</svg>
