<svg width="16" height="16" viewBox="0 0 16 16" fill="none" xmlns="http://www.w3.org/2000/svg">
<g id="charity label">
<path id="Vector" d="M12.4809 4.89971C12.2121 3.54346 11.2059 2.94971 9.80586 2.94971H4.31836C2.66836 2.94971 1.56836 3.77471 1.56836 5.69971V8.91846C1.56836 10.306 2.13711 11.1185 3.07461 11.4685C3.21211 11.5185 3.36211 11.5622 3.51836 11.5872C3.76836 11.6435 4.03711 11.6685 4.31836 11.6685H9.81211C11.4621 11.6685 12.5621 10.8435 12.5621 8.91846V5.69971C12.5621 5.40596 12.5371 5.14346 12.4809 4.89971ZM3.95586 8.24971C3.95586 8.50596 3.74336 8.71846 3.48711 8.71846C3.23086 8.71846 3.01836 8.50596 3.01836 8.24971V6.37471C3.01836 6.11846 3.23086 5.90596 3.48711 5.90596C3.74336 5.90596 3.95586 6.11846 3.95586 6.37471V8.24971ZM7.06211 8.96221C6.14961 8.96221 5.41211 8.22471 5.41211 7.31221C5.41211 6.39971 6.14961 5.66221 7.06211 5.66221C7.97461 5.66221 8.71211 6.39971 8.71211 7.31221C8.71211 8.22471 7.97461 8.96221 7.06211 8.96221ZM11.0996 8.24971C11.0996 8.50596 10.8871 8.71846 10.6309 8.71846C10.3746 8.71846 10.1621 8.50596 10.1621 8.24971V6.37471C10.1621 6.11846 10.3746 5.90596 10.6309 5.90596C10.8871 5.90596 11.0996 6.11846 11.0996 6.37471V8.24971Z" fill="black"/>
<path id="Vector_2" d="M14.4386 7.57346V10.7922C14.4386 12.7172 13.3386 13.5485 11.6823 13.5485H6.19483C5.72608 13.5485 5.30733 13.4797 4.94483 13.3422C4.65108 13.236 4.39483 13.0797 4.18858 12.8797C4.07608 12.7735 4.16358 12.6047 4.31983 12.6047H9.80733C12.1198 12.6047 13.4948 11.2297 13.4948 8.92346V5.69846C13.4948 5.54846 13.6636 5.45471 13.7698 5.56721C14.1948 6.01721 14.4386 6.67346 14.4386 7.57346Z" fill="black"/>
</g>
</svg>
