<svg width="16" height="16" viewBox="0 0 16 16" fill="none" xmlns="http://www.w3.org/2000/svg">
<g id="Community label">
<path id="Vector" d="M6.1251 2C4.4876 2 3.15635 3.33125 3.15635 4.96875C3.15635 6.575 4.4126 7.875 6.0501 7.93125C6.1001 7.925 6.1501 7.925 6.1876 7.93125H6.23135C6.9997 7.90561 7.72796 7.58217 8.26215 7.02932C8.79635 6.47646 9.0946 5.73752 9.09385 4.96875C9.09385 3.33125 7.7626 2 6.1251 2ZM9.3001 9.59313C7.55635 8.43063 4.7126 8.43063 2.95635 9.59313C2.1626 10.1244 1.7251 10.8431 1.7251 11.6119C1.7251 12.3806 2.1626 13.0931 2.9501 13.6181C3.8251 14.2056 4.9751 14.4994 6.1251 14.4994C7.2751 14.4994 8.4251 14.2056 9.3001 13.6181C10.0876 13.0869 10.5251 12.3744 10.5251 11.5994C10.5188 10.8306 10.0876 10.1181 9.3001 9.59313ZM12.9938 5.33625C13.0938 6.54875 12.2313 7.61125 11.0376 7.755H11.0063C10.9688 7.755 10.9313 7.755 10.9001 7.7675C10.2938 7.79875 9.7376 7.605 9.31885 7.24875C9.9626 6.67375 10.3313 5.81125 10.2563 4.87375C10.2135 4.38625 10.0479 3.91754 9.7751 3.51125C10.1026 3.35193 10.4639 3.27467 10.8279 3.28614C11.192 3.29761 11.5477 3.39747 11.8645 3.5771C12.1813 3.75672 12.4497 4.01073 12.6464 4.31721C12.8432 4.62368 12.9624 4.97342 12.9938 5.33625Z" fill="black"/>
<path id="Vector_2" d="M14.2427 11.119C14.1927 11.7252 13.8052 12.2502 13.1552 12.6065C12.5302 12.9502 11.7427 13.1127 10.9614 13.094C11.4114 12.6877 11.6739 12.1815 11.7239 11.644C11.7864 10.869 11.4177 10.1252 10.6802 9.5315C10.2614 9.20025 9.77393 8.93775 9.24268 8.744C10.6239 8.344 12.3614 8.61275 13.4302 9.47525C14.0052 9.93775 14.2989 10.519 14.2427 11.119Z" fill="black"/>
</g>
</svg>
