<svg width="16" height="16" viewBox="0 0 16 16" fill="none" xmlns="http://www.w3.org/2000/svg">
<g id="Creative label">
<path id="Vector" d="M8 2C4.55 2 1.75 4.8 1.75 8.25C1.75 11.7 4.55 14.5 8 14.5C11.45 14.5 14.25 11.7 14.25 8.25C14.25 4.8 11.45 2 8 2ZM7.76875 10.9063C7.2375 11.4375 6.7 11.4375 6.1625 10.9063L4.5625 9.3C4.2875 9.025 4.15625 8.75 4.1625 8.46875C4.16875 8.20625 4.30625 7.95 4.5625 7.69375L6.8125 5.44375L6.4625 5.1C6.43431 5.07226 6.41191 5.03918 6.39663 5.0027C6.38135 4.96621 6.37347 4.92706 6.37347 4.8875C6.37347 4.84794 6.38135 4.80879 6.39663 4.7723C6.41191 4.73582 6.43431 4.70274 6.4625 4.675C6.58125 4.55625 6.76875 4.55625 6.8875 4.675L7.23125 5.01875L10.1688 7.95625C10.2313 8.01875 10.275 8.1125 10.275 8.2C10.2794 8.25372 10.2723 8.30777 10.2539 8.35847C10.2356 8.40916 10.2065 8.4553 10.1688 8.49375L7.76875 10.9063ZM10.9 11.9125C10.3813 11.9125 9.9625 11.4938 9.9625 10.975C9.9625 10.45 10.5813 9.75625 10.7063 9.61875C10.8063 9.50625 11 9.50625 11.1063 9.61875C11.2313 9.75 11.85 10.45 11.85 10.975C11.8375 11.4938 11.4188 11.9125 10.9 11.9125Z" fill="black"/>
</g>
</svg>
