<svg width="16" height="16" viewBox="0 0 16 16" fill="none" xmlns="http://www.w3.org/2000/svg">
<g id="Faith label">
<path id="Vector" d="M8 2C4.55 2 1.75 4.8 1.75 8.25C1.75 11.7 4.55 14.5 8 14.5C11.45 14.5 14.25 11.7 14.25 8.25C14.25 4.8 11.45 2 8 2ZM8.20625 11.375C8.09375 11.4125 7.9 11.4125 7.7875 11.375C6.8125 11.0438 4.625 9.65 4.625 7.2875C4.625 6.24375 5.4625 5.4 6.5 5.4C7.1125 5.4 7.65625 5.69375 8 6.15625C8.3375 5.7 8.8875 5.4 9.5 5.4C10.5375 5.4 11.375 6.24375 11.375 7.2875C11.375 9.65 9.1875 11.0438 8.20625 11.375Z" fill="black"/>
</g>
</svg>
