<svg width="16" height="16" viewBox="0 0 16 16" fill="none" xmlns="http://www.w3.org/2000/svg">
<g id="Family label">
<path id="Vector" d="M11.4563 5.60625C11.4128 5.6 11.3686 5.6 11.3251 5.60625C10.8583 5.59098 10.4158 5.39449 10.0914 5.05847C9.76706 4.72244 9.58633 4.27329 9.58756 3.80625C9.58756 2.8125 10.3938 2 11.3938 2C12.3876 2 13.2001 2.80625 13.2001 3.80625C13.1987 4.27358 13.0163 4.7222 12.6911 5.05786C12.366 5.39352 11.9234 5.59008 11.4563 5.60625ZM13.4951 9.9375C12.7951 10.4062 11.8138 10.5813 10.9076 10.4625C11.1451 9.95 11.2701 9.38125 11.2763 8.78125C11.2763 8.15625 11.1388 7.5625 10.8763 7.04375C11.8013 6.91875 12.7826 7.09375 13.4888 7.5625C14.4763 8.2125 14.4763 9.28125 13.4951 9.9375ZM4.52506 5.60625C4.56881 5.6 4.61256 5.6 4.65631 5.60625C5.1231 5.59098 5.56558 5.39449 5.88994 5.05847C6.21431 4.72244 6.39503 4.27329 6.39381 3.80625C6.39381 3.56946 6.34717 3.33499 6.25655 3.11622C6.16594 2.89746 6.03312 2.69868 5.86569 2.53125C5.69825 2.36381 5.49948 2.231 5.28071 2.14038C5.06194 2.04976 4.82747 2.00312 4.59068 2.00312C4.35389 2.00312 4.11942 2.04976 3.90066 2.14038C3.68189 2.231 3.48312 2.36381 3.31568 2.53125C3.14825 2.69868 3.01543 2.89746 2.92481 3.11622C2.8342 3.33499 2.78756 3.56946 2.78756 3.80625C2.78756 4.78125 3.55631 5.575 4.52506 5.60625ZM4.59443 8.78125C4.59443 9.3875 4.72568 9.9625 4.96318 10.4812C4.08193 10.575 3.16318 10.3875 2.48818 9.94375C1.50068 9.2875 1.50068 8.21875 2.48818 7.5625C3.15693 7.1125 4.10068 6.93125 4.98818 7.03125C4.73193 7.55625 4.59443 8.15 4.59443 8.78125ZM8.07506 10.6687C8.02107 10.6625 7.96654 10.6625 7.91256 10.6687C7.35684 10.6501 6.83019 10.4159 6.44407 10.0158C6.05796 9.61569 5.84268 9.08103 5.84381 8.525C5.85006 7.3375 6.80631 6.375 8.00006 6.375C9.18756 6.375 10.1501 7.3375 10.1501 8.525C10.1497 9.08166 9.93311 9.6164 9.54596 10.0164C9.15881 10.4164 8.63141 10.6503 8.07506 10.6687ZM6.04381 11.9625C5.10006 12.5938 5.10006 13.6313 6.04381 14.2563C7.11881 14.975 8.88131 14.975 9.95631 14.2563C10.9001 13.625 10.9001 12.5875 9.95631 11.9625C8.88756 11.2438 7.12506 11.2438 6.04381 11.9625Z" fill="black"/>
</g>
</svg>
