<svg width="16" height="16" viewBox="0 0 16 16" fill="none" xmlns="http://www.w3.org/2000/svg">
<g id="Football icon">
<g id="Subtract">
<path fill-rule="evenodd" clip-rule="evenodd" d="M7.79476 1.37443C8.34884 1.3728 9.12489 1.88694 9.8635 2.74673C8.70113 3.04603 7.51017 2.98855 6.3904 2.72536C6.27234 2.69761 6.1552 2.6676 6.03912 2.63552C6.69301 1.84898 7.35139 1.37566 7.79476 1.37443ZM6.21846 3.45505C7.52277 3.76162 8.95449 3.81839 10.359 3.38555C11.9805 5.69438 13.0962 9.61241 10.5918 13.0971C8.89954 12.7137 7.36053 12.8822 6.03976 13.3354C5.94314 13.3686 5.84778 13.4032 5.75371 13.4393C2.60344 10.0873 3.87577 5.7313 5.55699 3.2758C5.77365 3.34225 5.99438 3.40238 6.21846 3.45505ZM10.0696 13.7559C9.58779 14.3096 9.00595 14.8486 8.31089 15.3642C7.54872 14.948 6.90155 14.4968 6.35637 14.0198C7.43128 13.6626 8.68178 13.5066 10.0696 13.7559Z" fill="black"/>
<path d="M9.8635 2.74673L9.87286 2.78303L9.93122 2.768L9.89197 2.72231L9.8635 2.74673ZM7.79476 1.37443L7.79486 1.41192L7.79486 1.41192L7.79476 1.37443ZM6.3904 2.72536L6.38181 2.76185L6.3904 2.72536ZM6.03912 2.63552L6.01026 2.61157L5.97316 2.65619L6.02912 2.67165L6.03912 2.63552ZM10.359 3.38555L10.3897 3.36401L10.374 3.34169L10.3479 3.34973L10.359 3.38555ZM6.21846 3.45505L6.20987 3.49154L6.21846 3.45505ZM10.5918 13.0971L10.5836 13.1337L10.6078 13.1392L10.6223 13.119L10.5918 13.0971ZM6.03976 13.3354L6.05194 13.3709L6.05194 13.3709L6.03976 13.3354ZM5.75371 13.4393L5.72637 13.4649L5.74361 13.4833L5.76713 13.4743L5.75371 13.4393ZM5.55699 3.2758L5.568 3.23996L5.54162 3.23187L5.52604 3.25463L5.55699 3.2758ZM8.31089 15.3642L8.2929 15.3971L8.31397 15.4086L8.33325 15.3943L8.31089 15.3642ZM10.0696 13.7559L10.0979 13.7805L10.1413 13.7306L10.0763 13.719L10.0696 13.7559ZM6.35637 14.0198L6.34454 13.9842L6.28237 14.0048L6.33166 14.048L6.35637 14.0198ZM9.89197 2.72231C9.52098 2.29047 9.1398 1.94446 8.78067 1.70631C8.42232 1.46868 8.08236 1.3361 7.79465 1.33694L7.79486 1.41192C8.06123 1.41113 8.38633 1.5348 8.73919 1.76879C9.09126 2.00225 9.46741 2.34321 9.83504 2.77115L9.89197 2.72231ZM6.38181 2.76185C7.50604 3.02609 8.70332 3.08418 9.87286 2.78303L9.85415 2.71043C8.69895 3.00788 7.51431 2.95101 6.39899 2.68886L6.38181 2.76185ZM6.02912 2.67165C6.14566 2.70386 6.26327 2.73398 6.38181 2.76185L6.39899 2.68886C6.28141 2.66123 6.16475 2.63134 6.04912 2.59939L6.02912 2.67165ZM7.79465 1.33694C7.56118 1.33759 7.27785 1.46173 6.97399 1.68005C6.66898 1.89919 6.33864 2.21657 6.01026 2.61157L6.06797 2.65948C6.39348 2.26793 6.71928 1.95539 7.01778 1.74092C7.31742 1.52564 7.58496 1.4125 7.79486 1.41192L7.79465 1.33694ZM10.3479 3.34973C8.95129 3.78014 7.52656 3.724 6.22705 3.41855L6.20987 3.49154C7.51897 3.79924 8.95769 3.85663 10.37 3.42137L10.3479 3.34973ZM10.6223 13.119C13.1394 9.61654 12.0164 5.6803 10.3897 3.36401L10.3283 3.40709C11.9445 5.70846 13.0529 9.60828 10.5614 13.0753L10.6223 13.119ZM6.05194 13.3709C7.36676 12.9197 8.89867 12.7519 10.5836 13.1337L10.6001 13.0606C8.9004 12.6754 7.35429 12.8447 6.02757 13.3L6.05194 13.3709ZM5.76713 13.4743C5.8608 13.4384 5.95574 13.4039 6.05194 13.3709L6.02757 13.3C5.93054 13.3333 5.83477 13.3681 5.74029 13.4043L5.76713 13.4743ZM5.52604 3.25463C3.84082 5.71595 2.55806 10.0938 5.72637 13.4649L5.78105 13.4136C2.64882 10.0809 3.91071 5.74665 5.58795 3.29697L5.52604 3.25463ZM6.22705 3.41855C6.00382 3.36608 5.78389 3.30618 5.568 3.23996L5.54599 3.31164C5.76341 3.37832 5.98494 3.43867 6.20987 3.49154L6.22705 3.41855ZM8.33325 15.3943C9.03031 14.8772 9.61418 14.3364 10.0979 13.7805L10.0413 13.7313C9.5614 14.2828 8.98158 14.82 8.28853 15.3341L8.33325 15.3943ZM6.33166 14.048C6.87909 14.5269 7.52856 14.9797 8.2929 15.3971L8.32888 15.3313C7.56888 14.9163 6.92401 14.4666 6.38108 13.9916L6.33166 14.048ZM10.0763 13.719C8.68161 13.4685 7.42475 13.6253 6.34454 13.9842L6.36821 14.0553C7.43781 13.7 8.68195 13.5448 10.063 13.7928L10.0763 13.719Z" fill="white"/>
</g>
<path id="Vector 399" d="M8.04883 5.58301V11.1716" stroke="white" stroke-width="0.75" stroke-linecap="round"/>
<path id="Vector 400" d="M6.93213 6.70117H9.16899" stroke="white" stroke-width="0.75" stroke-linecap="round"/>
<path id="Vector 401" d="M6.93213 7.81885H9.16899" stroke="white" stroke-width="0.75" stroke-linecap="round"/>
<path id="Vector 402" d="M6.93213 8.93652H9.16899" stroke="white" stroke-width="0.75" stroke-linecap="round"/>
<path id="Vector 403" d="M6.93213 10.0542H9.16899" stroke="white" stroke-width="0.75" stroke-linecap="round"/>
</g>
</svg>
