<svg width="21" height="20" viewBox="0 0 21 20" fill="none" xmlns="http://www.w3.org/2000/svg">
<path d="M17.566 11.59V11.5817C16.8327 10.8067 15.8077 10.3317 14.666 10.3317C12.4577 10.3317 10.666 12.1233 10.666 14.3317C10.666 15.3567 11.0577 16.29 11.691 16.9983C12.4243 17.815 13.4827 18.3317 14.666 18.3317C16.8744 18.3317 18.666 16.54 18.666 14.3317C18.666 13.2733 18.2493 12.3067 17.566 11.59ZM16.1577 15.0067H15.291V15.915C15.291 16.2567 15.0077 16.54 14.666 16.54C14.3243 16.54 14.041 16.2567 14.041 15.915V15.0067H13.1743C12.8243 15.0067 12.5493 14.7317 12.5493 14.3817C12.5493 14.04 12.816 13.765 13.166 13.7567H14.041V12.9233C14.041 12.9067 14.041 12.89 14.0493 12.8733C14.066 12.5567 14.341 12.2983 14.666 12.2983C14.9993 12.2983 15.2743 12.565 15.291 12.8983V13.7567H16.1577C16.5077 13.7567 16.7827 14.04 16.7827 14.3817C16.7827 14.7317 16.5077 15.0067 16.1577 15.0067Z" fill="black"/>
<path d="M18.6667 7.275C18.6667 8.26667 18.5083 9.18333 18.2333 10.0333C18.1833 10.2083 17.975 10.2583 17.825 10.15C16.9106 9.47514 15.8031 9.1128 14.6667 9.11667C11.775 9.11667 9.41667 11.475 9.41667 14.3667C9.41667 15.2667 9.65 16.15 10.0917 16.9333C10.225 17.1667 10.0667 17.4667 9.81667 17.375C7.80833 16.6917 3.75 14.2 2.43333 10.0333C2.15833 9.18333 2 8.26667 2 7.275C2 4.7 4.075 2.61667 6.63333 2.61667C8.14167 2.61667 9.49167 3.35 10.3333 4.475C10.7632 3.89901 11.3215 3.43116 11.9637 3.10858C12.606 2.786 13.3146 2.61757 14.0333 2.61667C16.5917 2.61667 18.6667 4.7 18.6667 7.275Z" fill="black"/>
</svg>
