<svg width="16" height="16" viewBox="0 0 16 16" fill="none" xmlns="http://www.w3.org/2000/svg">
<g id="travel label">
<path id="Vector" d="M13.0309 7.39287L10.1121 6.13662L9.46211 5.86162C9.40888 5.83213 9.36385 5.78982 9.33111 5.73852C9.29837 5.68723 9.27895 5.62857 9.27461 5.56787V3.65537C9.27461 3.05537 8.83086 2.34287 8.29336 2.06787C8.10586 1.97412 7.88086 1.97412 7.69336 2.06787C7.16211 2.34287 6.71836 3.06162 6.71836 3.66162V5.57412C6.71836 5.68662 6.63086 5.81787 6.53086 5.86787L2.96836 7.39912C2.57461 7.56162 2.25586 8.05537 2.25586 8.48037V9.30537C2.25586 9.83662 2.65586 10.0991 3.14961 9.88662L6.28086 8.53662C6.52461 8.43037 6.72461 8.56162 6.72461 8.83037V10.6491C6.72461 10.7929 6.64336 10.9991 6.54336 11.0991L5.09336 12.5554C4.94336 12.7054 4.87461 12.9991 4.94336 13.2116L5.22461 14.0616C5.33711 14.4304 5.75586 14.6054 6.09961 14.4304L7.58711 13.1804C7.81211 12.9866 8.18086 12.9866 8.40586 13.1804L9.89336 14.4304C10.2371 14.5991 10.6559 14.4304 10.7809 14.0616L11.0621 13.2116C11.1309 13.0054 11.0621 12.7054 10.9121 12.5554L9.46211 11.0991C9.35586 10.9991 9.27461 10.7929 9.27461 10.6491V8.83037C9.27461 8.56162 9.46836 8.43662 9.71836 8.53662L12.8496 9.88662C13.3434 10.0991 13.7434 9.83662 13.7434 9.30537V8.48037C13.7434 8.05537 13.4246 7.56162 13.0309 7.39287Z" fill="black"/>
</g>
</svg>
