<svg width="16" height="16" viewBox="0 0 16 16" fill="none" xmlns="http://www.w3.org/2000/svg">
<g id="Wish label">
<path id="Vector" d="M11.3064 3.33753L11.2627 5.70628C11.2564 6.03128 11.4627 6.46253 11.7252 6.65628L13.2752 7.83128C14.2689 8.58128 14.1064 9.50003 12.9189 9.87503L10.9002 10.5063C10.5627 10.6125 10.2064 10.9813 10.1189 11.325L9.63767 13.1625C9.25642 14.6125 8.30642 14.7563 7.51892 13.4813L6.41892 11.7C6.21892 11.375 5.74392 11.1313 5.36892 11.15L3.28142 11.2563C1.78767 11.3313 1.36267 10.4688 2.33767 9.33128L3.57517 7.89378C3.80642 7.62503 3.91267 7.12503 3.80642 6.78753L3.16892 4.76253C2.80017 3.57503 3.46267 2.91878 4.64392 3.30628L6.48767 3.91253C6.80017 4.01253 7.26892 3.94378 7.53142 3.75003L9.45642 2.36253C10.5002 1.61878 11.3314 2.05628 11.3064 3.33753Z" fill="black"/>
<path id="Vector_2" d="M13.8997 13.544L12.006 11.6502C11.9177 11.563 11.7987 11.5142 11.6747 11.5142C11.5507 11.5142 11.4317 11.563 11.3435 11.6502C11.1622 11.8315 11.1622 12.1315 11.3435 12.3127L13.2372 14.2065C13.331 14.3002 13.4497 14.344 13.5685 14.344C13.6872 14.344 13.806 14.3002 13.8997 14.2065C14.081 14.0252 14.081 13.7252 13.8997 13.544Z" fill="black"/>
</g>
</svg>
